G04 #@! TF.GenerationSoftware,KiCad,Pcbnew,(5.1.5)-3*
G04 #@! TF.CreationDate,2019-12-18T23:42:08-07:00*
G04 #@! TF.ProjectId,MiniV1,4d696e69-5631-42e6-9b69-6361645f7063,rev?*
G04 #@! TF.SameCoordinates,Original*
G04 #@! TF.FileFunction,Soldermask,Bot*
G04 #@! TF.FilePolarity,Negative*
%FSLAX46Y46*%
G04 Gerber Fmt 4.6, Leading zero omitted, Abs format (unit mm)*
G04 Created by KiCad (PCBNEW (5.1.5)-3) date 2019-12-18 23:42:08*
%MOMM*%
%LPD*%
G04 APERTURE LIST*
%ADD10C,0.020000*%
G04 APERTURE END LIST*
D10*
G36*
X86855000Y-93383000D02*
G01*
X84953000Y-93383000D01*
X84953000Y-92181000D01*
X86855000Y-92181000D01*
X86855000Y-93383000D01*
G37*
G36*
X80655000Y-93383000D02*
G01*
X78753000Y-93383000D01*
X78753000Y-92181000D01*
X80655000Y-92181000D01*
X80655000Y-93383000D01*
G37*
G36*
X86855000Y-89683000D02*
G01*
X84953000Y-89683000D01*
X84953000Y-88481000D01*
X86855000Y-88481000D01*
X86855000Y-89683000D01*
G37*
G36*
X80655000Y-89683000D02*
G01*
X78753000Y-89683000D01*
X78753000Y-88481000D01*
X80655000Y-88481000D01*
X80655000Y-89683000D01*
G37*
G36*
X137176000Y-86288500D02*
G01*
X135874000Y-86288500D01*
X135874000Y-85286500D01*
X137176000Y-85286500D01*
X137176000Y-86288500D01*
G37*
G36*
X156226000Y-86288500D02*
G01*
X154924000Y-86288500D01*
X154924000Y-85286500D01*
X156226000Y-85286500D01*
X156226000Y-86288500D01*
G37*
G36*
X148233974Y-82171184D02*
G01*
X148451974Y-82261483D01*
X148606123Y-82325333D01*
X148941048Y-82549123D01*
X149225877Y-82833952D01*
X149449667Y-83168877D01*
X149482062Y-83247086D01*
X149603816Y-83541026D01*
X149682400Y-83936094D01*
X149682400Y-84338906D01*
X149603816Y-84733974D01*
X149552951Y-84856772D01*
X149449667Y-85106123D01*
X149225877Y-85441048D01*
X148941048Y-85725877D01*
X148606123Y-85949667D01*
X148451974Y-86013517D01*
X148233974Y-86103816D01*
X147838906Y-86182400D01*
X147436094Y-86182400D01*
X147041026Y-86103816D01*
X146823026Y-86013517D01*
X146668877Y-85949667D01*
X146333952Y-85725877D01*
X146049123Y-85441048D01*
X145825333Y-85106123D01*
X145722049Y-84856772D01*
X145671184Y-84733974D01*
X145592600Y-84338906D01*
X145592600Y-83936094D01*
X145671184Y-83541026D01*
X145792938Y-83247086D01*
X145825333Y-83168877D01*
X146049123Y-82833952D01*
X146333952Y-82549123D01*
X146668877Y-82325333D01*
X146823026Y-82261483D01*
X147041026Y-82171184D01*
X147436094Y-82092600D01*
X147838906Y-82092600D01*
X148233974Y-82171184D01*
G37*
G36*
X129183974Y-82171184D02*
G01*
X129401974Y-82261483D01*
X129556123Y-82325333D01*
X129891048Y-82549123D01*
X130175877Y-82833952D01*
X130399667Y-83168877D01*
X130432062Y-83247086D01*
X130553816Y-83541026D01*
X130632400Y-83936094D01*
X130632400Y-84338906D01*
X130553816Y-84733974D01*
X130502951Y-84856772D01*
X130399667Y-85106123D01*
X130175877Y-85441048D01*
X129891048Y-85725877D01*
X129556123Y-85949667D01*
X129401974Y-86013517D01*
X129183974Y-86103816D01*
X128788906Y-86182400D01*
X128386094Y-86182400D01*
X127991026Y-86103816D01*
X127773026Y-86013517D01*
X127618877Y-85949667D01*
X127283952Y-85725877D01*
X126999123Y-85441048D01*
X126775333Y-85106123D01*
X126672049Y-84856772D01*
X126621184Y-84733974D01*
X126542600Y-84338906D01*
X126542600Y-83936094D01*
X126621184Y-83541026D01*
X126742938Y-83247086D01*
X126775333Y-83168877D01*
X126999123Y-82833952D01*
X127283952Y-82549123D01*
X127618877Y-82325333D01*
X127773026Y-82261483D01*
X127991026Y-82171184D01*
X128386094Y-82092600D01*
X128788906Y-82092600D01*
X129183974Y-82171184D01*
G37*
G36*
X106590718Y-84184815D02*
G01*
X106629388Y-84196546D01*
X106665027Y-84215596D01*
X106696267Y-84241233D01*
X106721904Y-84272473D01*
X106740954Y-84308112D01*
X106752685Y-84346782D01*
X106757250Y-84393138D01*
X106757250Y-85469362D01*
X106752685Y-85515718D01*
X106740954Y-85554388D01*
X106721904Y-85590027D01*
X106696267Y-85621267D01*
X106665027Y-85646904D01*
X106629388Y-85665954D01*
X106590718Y-85677685D01*
X106544362Y-85682250D01*
X105893138Y-85682250D01*
X105846782Y-85677685D01*
X105808112Y-85665954D01*
X105772473Y-85646904D01*
X105741233Y-85621267D01*
X105715596Y-85590027D01*
X105696546Y-85554388D01*
X105684815Y-85515718D01*
X105680250Y-85469362D01*
X105680250Y-84393138D01*
X105684815Y-84346782D01*
X105696546Y-84308112D01*
X105715596Y-84272473D01*
X105741233Y-84241233D01*
X105772473Y-84215596D01*
X105808112Y-84196546D01*
X105846782Y-84184815D01*
X105893138Y-84180250D01*
X106544362Y-84180250D01*
X106590718Y-84184815D01*
G37*
G36*
X108465718Y-84184815D02*
G01*
X108504388Y-84196546D01*
X108540027Y-84215596D01*
X108571267Y-84241233D01*
X108596904Y-84272473D01*
X108615954Y-84308112D01*
X108627685Y-84346782D01*
X108632250Y-84393138D01*
X108632250Y-85469362D01*
X108627685Y-85515718D01*
X108615954Y-85554388D01*
X108596904Y-85590027D01*
X108571267Y-85621267D01*
X108540027Y-85646904D01*
X108504388Y-85665954D01*
X108465718Y-85677685D01*
X108419362Y-85682250D01*
X107768138Y-85682250D01*
X107721782Y-85677685D01*
X107683112Y-85665954D01*
X107647473Y-85646904D01*
X107616233Y-85621267D01*
X107590596Y-85590027D01*
X107571546Y-85554388D01*
X107559815Y-85515718D01*
X107555250Y-85469362D01*
X107555250Y-84393138D01*
X107559815Y-84346782D01*
X107571546Y-84308112D01*
X107590596Y-84272473D01*
X107616233Y-84241233D01*
X107647473Y-84215596D01*
X107683112Y-84196546D01*
X107721782Y-84184815D01*
X107768138Y-84180250D01*
X108419362Y-84180250D01*
X108465718Y-84184815D01*
G37*
G36*
X133937604Y-83247085D02*
G01*
X134106126Y-83316889D01*
X134257791Y-83418228D01*
X134386772Y-83547209D01*
X134488111Y-83698874D01*
X134557915Y-83867396D01*
X134593500Y-84046297D01*
X134593500Y-84228703D01*
X134557915Y-84407604D01*
X134488111Y-84576126D01*
X134386772Y-84727791D01*
X134257791Y-84856772D01*
X134106126Y-84958111D01*
X133937604Y-85027915D01*
X133758703Y-85063500D01*
X133576297Y-85063500D01*
X133397396Y-85027915D01*
X133228874Y-84958111D01*
X133077209Y-84856772D01*
X132948228Y-84727791D01*
X132846889Y-84576126D01*
X132777085Y-84407604D01*
X132741500Y-84228703D01*
X132741500Y-84046297D01*
X132777085Y-83867396D01*
X132846889Y-83698874D01*
X132948228Y-83547209D01*
X133077209Y-83418228D01*
X133228874Y-83316889D01*
X133397396Y-83247085D01*
X133576297Y-83211500D01*
X133758703Y-83211500D01*
X133937604Y-83247085D01*
G37*
G36*
X142827604Y-83247085D02*
G01*
X142996126Y-83316889D01*
X143147791Y-83418228D01*
X143276772Y-83547209D01*
X143378111Y-83698874D01*
X143447915Y-83867396D01*
X143483500Y-84046297D01*
X143483500Y-84228703D01*
X143447915Y-84407604D01*
X143378111Y-84576126D01*
X143276772Y-84727791D01*
X143147791Y-84856772D01*
X142996126Y-84958111D01*
X142827604Y-85027915D01*
X142648703Y-85063500D01*
X142466297Y-85063500D01*
X142287396Y-85027915D01*
X142118874Y-84958111D01*
X141967209Y-84856772D01*
X141838228Y-84727791D01*
X141736889Y-84576126D01*
X141667085Y-84407604D01*
X141631500Y-84228703D01*
X141631500Y-84046297D01*
X141667085Y-83867396D01*
X141736889Y-83698874D01*
X141838228Y-83547209D01*
X141967209Y-83418228D01*
X142118874Y-83316889D01*
X142287396Y-83247085D01*
X142466297Y-83211500D01*
X142648703Y-83211500D01*
X142827604Y-83247085D01*
G37*
G36*
X123777604Y-83247085D02*
G01*
X123946126Y-83316889D01*
X124097791Y-83418228D01*
X124226772Y-83547209D01*
X124328111Y-83698874D01*
X124397915Y-83867396D01*
X124433500Y-84046297D01*
X124433500Y-84228703D01*
X124397915Y-84407604D01*
X124328111Y-84576126D01*
X124226772Y-84727791D01*
X124097791Y-84856772D01*
X123946126Y-84958111D01*
X123777604Y-85027915D01*
X123598703Y-85063500D01*
X123416297Y-85063500D01*
X123237396Y-85027915D01*
X123068874Y-84958111D01*
X122917209Y-84856772D01*
X122788228Y-84727791D01*
X122686889Y-84576126D01*
X122617085Y-84407604D01*
X122581500Y-84228703D01*
X122581500Y-84046297D01*
X122617085Y-83867396D01*
X122686889Y-83698874D01*
X122788228Y-83547209D01*
X122917209Y-83418228D01*
X123068874Y-83316889D01*
X123237396Y-83247085D01*
X123416297Y-83211500D01*
X123598703Y-83211500D01*
X123777604Y-83247085D01*
G37*
G36*
X152987604Y-83247085D02*
G01*
X153156126Y-83316889D01*
X153307791Y-83418228D01*
X153436772Y-83547209D01*
X153538111Y-83698874D01*
X153607915Y-83867396D01*
X153643500Y-84046297D01*
X153643500Y-84228703D01*
X153607915Y-84407604D01*
X153538111Y-84576126D01*
X153436772Y-84727791D01*
X153307791Y-84856772D01*
X153156126Y-84958111D01*
X152987604Y-85027915D01*
X152808703Y-85063500D01*
X152626297Y-85063500D01*
X152447396Y-85027915D01*
X152278874Y-84958111D01*
X152127209Y-84856772D01*
X151998228Y-84727791D01*
X151896889Y-84576126D01*
X151827085Y-84407604D01*
X151791500Y-84228703D01*
X151791500Y-84046297D01*
X151827085Y-83867396D01*
X151896889Y-83698874D01*
X151998228Y-83547209D01*
X152127209Y-83418228D01*
X152278874Y-83316889D01*
X152447396Y-83247085D01*
X152626297Y-83211500D01*
X152808703Y-83211500D01*
X152987604Y-83247085D01*
G37*
G36*
X156226000Y-82988500D02*
G01*
X154924000Y-82988500D01*
X154924000Y-81986500D01*
X156226000Y-81986500D01*
X156226000Y-82988500D01*
G37*
G36*
X137176000Y-82988500D02*
G01*
X135874000Y-82988500D01*
X135874000Y-81986500D01*
X137176000Y-81986500D01*
X137176000Y-82988500D01*
G37*
G36*
X144014403Y-80435638D02*
G01*
X144170527Y-80466693D01*
X144384545Y-80555342D01*
X144423509Y-80581377D01*
X144577154Y-80684039D01*
X144740961Y-80847846D01*
X144826758Y-80976251D01*
X144869658Y-81040455D01*
X144958307Y-81254473D01*
X144958307Y-81254475D01*
X145003399Y-81481163D01*
X145003500Y-81481674D01*
X145003500Y-81713326D01*
X144958307Y-81940527D01*
X144869658Y-82154545D01*
X144869657Y-82154546D01*
X144740961Y-82347154D01*
X144577154Y-82510961D01*
X144520040Y-82549123D01*
X144384545Y-82639658D01*
X144170527Y-82728307D01*
X144019060Y-82758436D01*
X143943327Y-82773500D01*
X143711673Y-82773500D01*
X143635940Y-82758436D01*
X143484473Y-82728307D01*
X143270455Y-82639658D01*
X143134960Y-82549123D01*
X143077846Y-82510961D01*
X142914039Y-82347154D01*
X142785343Y-82154546D01*
X142785342Y-82154545D01*
X142696693Y-81940527D01*
X142651500Y-81713326D01*
X142651500Y-81481674D01*
X142651602Y-81481163D01*
X142696693Y-81254475D01*
X142696693Y-81254473D01*
X142785342Y-81040455D01*
X142828242Y-80976251D01*
X142914039Y-80847846D01*
X143077846Y-80684039D01*
X143231491Y-80581377D01*
X143270455Y-80555342D01*
X143484473Y-80466693D01*
X143640597Y-80435638D01*
X143711673Y-80421500D01*
X143943327Y-80421500D01*
X144014403Y-80435638D01*
G37*
G36*
X124964403Y-80435638D02*
G01*
X125120527Y-80466693D01*
X125334545Y-80555342D01*
X125373509Y-80581377D01*
X125527154Y-80684039D01*
X125690961Y-80847846D01*
X125776758Y-80976251D01*
X125819658Y-81040455D01*
X125908307Y-81254473D01*
X125908307Y-81254475D01*
X125953399Y-81481163D01*
X125953500Y-81481674D01*
X125953500Y-81713326D01*
X125908307Y-81940527D01*
X125819658Y-82154545D01*
X125819657Y-82154546D01*
X125690961Y-82347154D01*
X125527154Y-82510961D01*
X125470040Y-82549123D01*
X125334545Y-82639658D01*
X125120527Y-82728307D01*
X124969060Y-82758436D01*
X124893327Y-82773500D01*
X124661673Y-82773500D01*
X124585940Y-82758436D01*
X124434473Y-82728307D01*
X124220455Y-82639658D01*
X124084960Y-82549123D01*
X124027846Y-82510961D01*
X123864039Y-82347154D01*
X123735343Y-82154546D01*
X123735342Y-82154545D01*
X123646693Y-81940527D01*
X123601500Y-81713326D01*
X123601500Y-81481674D01*
X123601602Y-81481163D01*
X123646693Y-81254475D01*
X123646693Y-81254473D01*
X123735342Y-81040455D01*
X123778242Y-80976251D01*
X123864039Y-80847846D01*
X124027846Y-80684039D01*
X124181491Y-80581377D01*
X124220455Y-80555342D01*
X124434473Y-80466693D01*
X124590597Y-80435638D01*
X124661673Y-80421500D01*
X124893327Y-80421500D01*
X124964403Y-80435638D01*
G37*
G36*
X113296968Y-81366065D02*
G01*
X113335638Y-81377796D01*
X113371277Y-81396846D01*
X113402517Y-81422483D01*
X113428154Y-81453723D01*
X113447204Y-81489362D01*
X113458935Y-81528032D01*
X113463500Y-81574388D01*
X113463500Y-82225612D01*
X113458935Y-82271968D01*
X113447204Y-82310638D01*
X113428154Y-82346277D01*
X113402517Y-82377517D01*
X113371277Y-82403154D01*
X113335638Y-82422204D01*
X113296968Y-82433935D01*
X113250612Y-82438500D01*
X112174388Y-82438500D01*
X112128032Y-82433935D01*
X112089362Y-82422204D01*
X112053723Y-82403154D01*
X112022483Y-82377517D01*
X111996846Y-82346277D01*
X111977796Y-82310638D01*
X111966065Y-82271968D01*
X111961500Y-82225612D01*
X111961500Y-81574388D01*
X111966065Y-81528032D01*
X111977796Y-81489362D01*
X111996846Y-81453723D01*
X112022483Y-81422483D01*
X112053723Y-81396846D01*
X112089362Y-81377796D01*
X112128032Y-81366065D01*
X112174388Y-81361500D01*
X113250612Y-81361500D01*
X113296968Y-81366065D01*
G37*
G36*
X107513500Y-81907250D02*
G01*
X98861500Y-81907250D01*
X98861500Y-80305250D01*
X107513500Y-80305250D01*
X107513500Y-81907250D01*
G37*
G36*
X93675468Y-80540565D02*
G01*
X93714138Y-80552296D01*
X93749777Y-80571346D01*
X93781017Y-80596983D01*
X93806654Y-80628223D01*
X93825704Y-80663862D01*
X93837435Y-80702532D01*
X93842000Y-80748888D01*
X93842000Y-81400112D01*
X93837435Y-81446468D01*
X93825704Y-81485138D01*
X93806654Y-81520777D01*
X93781017Y-81552017D01*
X93749777Y-81577654D01*
X93714138Y-81596704D01*
X93675468Y-81608435D01*
X93629112Y-81613000D01*
X92552888Y-81613000D01*
X92506532Y-81608435D01*
X92467862Y-81596704D01*
X92432223Y-81577654D01*
X92400983Y-81552017D01*
X92375346Y-81520777D01*
X92356296Y-81485138D01*
X92344565Y-81446468D01*
X92340000Y-81400112D01*
X92340000Y-80748888D01*
X92344565Y-80702532D01*
X92356296Y-80663862D01*
X92375346Y-80628223D01*
X92400983Y-80596983D01*
X92432223Y-80571346D01*
X92467862Y-80552296D01*
X92506532Y-80540565D01*
X92552888Y-80536000D01*
X93629112Y-80536000D01*
X93675468Y-80540565D01*
G37*
G36*
X113296968Y-79491065D02*
G01*
X113335638Y-79502796D01*
X113371277Y-79521846D01*
X113402517Y-79547483D01*
X113428154Y-79578723D01*
X113447204Y-79614362D01*
X113458935Y-79653032D01*
X113463500Y-79699388D01*
X113463500Y-80350612D01*
X113458935Y-80396968D01*
X113447204Y-80435638D01*
X113428154Y-80471277D01*
X113402517Y-80502517D01*
X113371277Y-80528154D01*
X113335638Y-80547204D01*
X113296968Y-80558935D01*
X113250612Y-80563500D01*
X112174388Y-80563500D01*
X112128032Y-80558935D01*
X112089362Y-80547204D01*
X112053723Y-80528154D01*
X112022483Y-80502517D01*
X111996846Y-80471277D01*
X111977796Y-80435638D01*
X111966065Y-80396968D01*
X111961500Y-80350612D01*
X111961500Y-79699388D01*
X111966065Y-79653032D01*
X111977796Y-79614362D01*
X111996846Y-79578723D01*
X112022483Y-79547483D01*
X112053723Y-79521846D01*
X112089362Y-79502796D01*
X112128032Y-79491065D01*
X112174388Y-79486500D01*
X113250612Y-79486500D01*
X113296968Y-79491065D01*
G37*
G36*
X131319060Y-77896564D02*
G01*
X131470527Y-77926693D01*
X131684545Y-78015342D01*
X131684546Y-78015343D01*
X131877154Y-78144039D01*
X132040961Y-78307846D01*
X132126758Y-78436251D01*
X132169658Y-78500455D01*
X132258307Y-78714473D01*
X132263357Y-78739861D01*
X132301626Y-78932250D01*
X132303500Y-78941674D01*
X132303500Y-79173326D01*
X132258307Y-79400527D01*
X132169658Y-79614545D01*
X132143942Y-79653032D01*
X132040961Y-79807154D01*
X131877154Y-79970961D01*
X131748749Y-80056758D01*
X131684545Y-80099658D01*
X131470527Y-80188307D01*
X131319060Y-80218436D01*
X131243327Y-80233500D01*
X131011673Y-80233500D01*
X130935940Y-80218436D01*
X130784473Y-80188307D01*
X130570455Y-80099658D01*
X130506251Y-80056758D01*
X130377846Y-79970961D01*
X130214039Y-79807154D01*
X130111058Y-79653032D01*
X130085342Y-79614545D01*
X129996693Y-79400527D01*
X129951500Y-79173326D01*
X129951500Y-78941674D01*
X129953375Y-78932250D01*
X129991643Y-78739861D01*
X129996693Y-78714473D01*
X130085342Y-78500455D01*
X130128242Y-78436251D01*
X130214039Y-78307846D01*
X130377846Y-78144039D01*
X130570454Y-78015343D01*
X130570455Y-78015342D01*
X130784473Y-77926693D01*
X130935940Y-77896564D01*
X131011673Y-77881500D01*
X131243327Y-77881500D01*
X131319060Y-77896564D01*
G37*
G36*
X150369060Y-77896564D02*
G01*
X150520527Y-77926693D01*
X150734545Y-78015342D01*
X150734546Y-78015343D01*
X150927154Y-78144039D01*
X151090961Y-78307846D01*
X151176758Y-78436251D01*
X151219658Y-78500455D01*
X151308307Y-78714473D01*
X151313357Y-78739861D01*
X151351626Y-78932250D01*
X151353500Y-78941674D01*
X151353500Y-79173326D01*
X151308307Y-79400527D01*
X151219658Y-79614545D01*
X151193942Y-79653032D01*
X151090961Y-79807154D01*
X150927154Y-79970961D01*
X150798749Y-80056758D01*
X150734545Y-80099658D01*
X150520527Y-80188307D01*
X150369060Y-80218436D01*
X150293327Y-80233500D01*
X150061673Y-80233500D01*
X149985940Y-80218436D01*
X149834473Y-80188307D01*
X149620455Y-80099658D01*
X149556251Y-80056758D01*
X149427846Y-79970961D01*
X149264039Y-79807154D01*
X149161058Y-79653032D01*
X149135342Y-79614545D01*
X149046693Y-79400527D01*
X149001500Y-79173326D01*
X149001500Y-78941674D01*
X149003375Y-78932250D01*
X149041643Y-78739861D01*
X149046693Y-78714473D01*
X149135342Y-78500455D01*
X149178242Y-78436251D01*
X149264039Y-78307846D01*
X149427846Y-78144039D01*
X149620454Y-78015343D01*
X149620455Y-78015342D01*
X149834473Y-77926693D01*
X149985940Y-77896564D01*
X150061673Y-77881500D01*
X150293327Y-77881500D01*
X150369060Y-77896564D01*
G37*
G36*
X93675468Y-78665565D02*
G01*
X93714138Y-78677296D01*
X93749777Y-78696346D01*
X93781017Y-78721983D01*
X93806654Y-78753223D01*
X93825704Y-78788862D01*
X93837435Y-78827532D01*
X93842000Y-78873888D01*
X93842000Y-79525112D01*
X93837435Y-79571468D01*
X93825704Y-79610138D01*
X93806654Y-79645777D01*
X93781017Y-79677017D01*
X93749777Y-79702654D01*
X93714138Y-79721704D01*
X93675468Y-79733435D01*
X93629112Y-79738000D01*
X92552888Y-79738000D01*
X92506532Y-79733435D01*
X92467862Y-79721704D01*
X92432223Y-79702654D01*
X92400983Y-79677017D01*
X92375346Y-79645777D01*
X92356296Y-79610138D01*
X92344565Y-79571468D01*
X92340000Y-79525112D01*
X92340000Y-78873888D01*
X92344565Y-78827532D01*
X92356296Y-78788862D01*
X92375346Y-78753223D01*
X92400983Y-78721983D01*
X92432223Y-78696346D01*
X92467862Y-78677296D01*
X92506532Y-78665565D01*
X92552888Y-78661000D01*
X93629112Y-78661000D01*
X93675468Y-78665565D01*
G37*
G36*
X109688500Y-79732250D02*
G01*
X108086500Y-79732250D01*
X108086500Y-71080250D01*
X109688500Y-71080250D01*
X109688500Y-79732250D01*
G37*
G36*
X98288500Y-79732250D02*
G01*
X96686500Y-79732250D01*
X96686500Y-71080250D01*
X98288500Y-71080250D01*
X98288500Y-79732250D01*
G37*
G36*
X92271468Y-74056565D02*
G01*
X92310138Y-74068296D01*
X92345777Y-74087346D01*
X92377017Y-74112983D01*
X92402654Y-74144223D01*
X92421704Y-74179862D01*
X92433435Y-74218532D01*
X92438000Y-74264888D01*
X92438000Y-75341112D01*
X92433435Y-75387468D01*
X92421704Y-75426138D01*
X92402654Y-75461777D01*
X92377017Y-75493017D01*
X92345777Y-75518654D01*
X92310138Y-75537704D01*
X92271468Y-75549435D01*
X92225112Y-75554000D01*
X91573888Y-75554000D01*
X91527532Y-75549435D01*
X91488862Y-75537704D01*
X91453223Y-75518654D01*
X91421983Y-75493017D01*
X91396346Y-75461777D01*
X91377296Y-75426138D01*
X91365565Y-75387468D01*
X91361000Y-75341112D01*
X91361000Y-74264888D01*
X91365565Y-74218532D01*
X91377296Y-74179862D01*
X91396346Y-74144223D01*
X91421983Y-74112983D01*
X91453223Y-74087346D01*
X91488862Y-74068296D01*
X91527532Y-74056565D01*
X91573888Y-74052000D01*
X92225112Y-74052000D01*
X92271468Y-74056565D01*
G37*
G36*
X94146468Y-74056565D02*
G01*
X94185138Y-74068296D01*
X94220777Y-74087346D01*
X94252017Y-74112983D01*
X94277654Y-74144223D01*
X94296704Y-74179862D01*
X94308435Y-74218532D01*
X94313000Y-74264888D01*
X94313000Y-75341112D01*
X94308435Y-75387468D01*
X94296704Y-75426138D01*
X94277654Y-75461777D01*
X94252017Y-75493017D01*
X94220777Y-75518654D01*
X94185138Y-75537704D01*
X94146468Y-75549435D01*
X94100112Y-75554000D01*
X93448888Y-75554000D01*
X93402532Y-75549435D01*
X93363862Y-75537704D01*
X93328223Y-75518654D01*
X93296983Y-75493017D01*
X93271346Y-75461777D01*
X93252296Y-75426138D01*
X93240565Y-75387468D01*
X93236000Y-75341112D01*
X93236000Y-74264888D01*
X93240565Y-74218532D01*
X93252296Y-74179862D01*
X93271346Y-74144223D01*
X93296983Y-74112983D01*
X93328223Y-74087346D01*
X93363862Y-74068296D01*
X93402532Y-74056565D01*
X93448888Y-74052000D01*
X94100112Y-74052000D01*
X94146468Y-74056565D01*
G37*
G36*
X79000604Y-71848347D02*
G01*
X79037144Y-71859432D01*
X79070821Y-71877433D01*
X79100341Y-71901659D01*
X79124567Y-71931179D01*
X79142568Y-71964856D01*
X79153653Y-72001396D01*
X79158000Y-72045538D01*
X79158000Y-72994462D01*
X79153653Y-73038604D01*
X79142568Y-73075144D01*
X79124567Y-73108821D01*
X79100341Y-73138341D01*
X79070821Y-73162567D01*
X79037144Y-73180568D01*
X79000604Y-73191653D01*
X78956462Y-73196000D01*
X77507538Y-73196000D01*
X77463396Y-73191653D01*
X77426856Y-73180568D01*
X77393179Y-73162567D01*
X77363659Y-73138341D01*
X77339433Y-73108821D01*
X77321432Y-73075144D01*
X77310347Y-73038604D01*
X77306000Y-72994462D01*
X77306000Y-72045538D01*
X77310347Y-72001396D01*
X77321432Y-71964856D01*
X77339433Y-71931179D01*
X77363659Y-71901659D01*
X77393179Y-71877433D01*
X77426856Y-71859432D01*
X77463396Y-71848347D01*
X77507538Y-71844000D01*
X78956462Y-71844000D01*
X79000604Y-71848347D01*
G37*
G36*
X113296968Y-71047315D02*
G01*
X113335638Y-71059046D01*
X113371277Y-71078096D01*
X113402517Y-71103733D01*
X113428154Y-71134973D01*
X113447204Y-71170612D01*
X113458935Y-71209282D01*
X113463500Y-71255638D01*
X113463500Y-71906862D01*
X113458935Y-71953218D01*
X113447204Y-71991888D01*
X113428154Y-72027527D01*
X113402517Y-72058767D01*
X113371277Y-72084404D01*
X113335638Y-72103454D01*
X113296968Y-72115185D01*
X113250612Y-72119750D01*
X112174388Y-72119750D01*
X112128032Y-72115185D01*
X112089362Y-72103454D01*
X112053723Y-72084404D01*
X112022483Y-72058767D01*
X111996846Y-72027527D01*
X111977796Y-71991888D01*
X111966065Y-71953218D01*
X111961500Y-71906862D01*
X111961500Y-71255638D01*
X111966065Y-71209282D01*
X111977796Y-71170612D01*
X111996846Y-71134973D01*
X112022483Y-71103733D01*
X112053723Y-71078096D01*
X112089362Y-71059046D01*
X112128032Y-71047315D01*
X112174388Y-71042750D01*
X113250612Y-71042750D01*
X113296968Y-71047315D01*
G37*
G36*
X107513500Y-70507250D02*
G01*
X98861500Y-70507250D01*
X98861500Y-68905250D01*
X107513500Y-68905250D01*
X107513500Y-70507250D01*
G37*
G36*
X79000604Y-69048347D02*
G01*
X79037144Y-69059432D01*
X79070821Y-69077433D01*
X79100341Y-69101659D01*
X79124567Y-69131179D01*
X79142568Y-69164856D01*
X79153653Y-69201396D01*
X79158000Y-69245538D01*
X79158000Y-70194462D01*
X79153653Y-70238604D01*
X79142568Y-70275144D01*
X79124567Y-70308821D01*
X79100341Y-70338341D01*
X79070821Y-70362567D01*
X79037144Y-70380568D01*
X79000604Y-70391653D01*
X78956462Y-70396000D01*
X77507538Y-70396000D01*
X77463396Y-70391653D01*
X77426856Y-70380568D01*
X77393179Y-70362567D01*
X77363659Y-70338341D01*
X77339433Y-70308821D01*
X77321432Y-70275144D01*
X77310347Y-70238604D01*
X77306000Y-70194462D01*
X77306000Y-69245538D01*
X77310347Y-69201396D01*
X77321432Y-69164856D01*
X77339433Y-69131179D01*
X77363659Y-69101659D01*
X77393179Y-69077433D01*
X77426856Y-69059432D01*
X77463396Y-69048347D01*
X77507538Y-69044000D01*
X78956462Y-69044000D01*
X79000604Y-69048347D01*
G37*
G36*
X113296968Y-69172315D02*
G01*
X113335638Y-69184046D01*
X113371277Y-69203096D01*
X113402517Y-69228733D01*
X113428154Y-69259973D01*
X113447204Y-69295612D01*
X113458935Y-69334282D01*
X113463500Y-69380638D01*
X113463500Y-70031862D01*
X113458935Y-70078218D01*
X113447204Y-70116888D01*
X113428154Y-70152527D01*
X113402517Y-70183767D01*
X113371277Y-70209404D01*
X113335638Y-70228454D01*
X113296968Y-70240185D01*
X113250612Y-70244750D01*
X112174388Y-70244750D01*
X112128032Y-70240185D01*
X112089362Y-70228454D01*
X112053723Y-70209404D01*
X112022483Y-70183767D01*
X111996846Y-70152527D01*
X111977796Y-70116888D01*
X111966065Y-70078218D01*
X111961500Y-70031862D01*
X111961500Y-69380638D01*
X111966065Y-69334282D01*
X111977796Y-69295612D01*
X111996846Y-69259973D01*
X112022483Y-69228733D01*
X112053723Y-69203096D01*
X112089362Y-69184046D01*
X112128032Y-69172315D01*
X112174388Y-69167750D01*
X113250612Y-69167750D01*
X113296968Y-69172315D01*
G37*
G36*
X95834468Y-67078565D02*
G01*
X95873138Y-67090296D01*
X95908777Y-67109346D01*
X95940017Y-67134983D01*
X95965654Y-67166223D01*
X95984704Y-67201862D01*
X95996435Y-67240532D01*
X96001000Y-67286888D01*
X96001000Y-67938112D01*
X95996435Y-67984468D01*
X95984704Y-68023138D01*
X95965654Y-68058777D01*
X95940017Y-68090017D01*
X95908777Y-68115654D01*
X95873138Y-68134704D01*
X95834468Y-68146435D01*
X95788112Y-68151000D01*
X94711888Y-68151000D01*
X94665532Y-68146435D01*
X94626862Y-68134704D01*
X94591223Y-68115654D01*
X94559983Y-68090017D01*
X94534346Y-68058777D01*
X94515296Y-68023138D01*
X94503565Y-67984468D01*
X94499000Y-67938112D01*
X94499000Y-67286888D01*
X94503565Y-67240532D01*
X94515296Y-67201862D01*
X94534346Y-67166223D01*
X94559983Y-67134983D01*
X94591223Y-67109346D01*
X94626862Y-67090296D01*
X94665532Y-67078565D01*
X94711888Y-67074000D01*
X95788112Y-67074000D01*
X95834468Y-67078565D01*
G37*
G36*
X92659468Y-67078565D02*
G01*
X92698138Y-67090296D01*
X92733777Y-67109346D01*
X92765017Y-67134983D01*
X92790654Y-67166223D01*
X92809704Y-67201862D01*
X92821435Y-67240532D01*
X92826000Y-67286888D01*
X92826000Y-67938112D01*
X92821435Y-67984468D01*
X92809704Y-68023138D01*
X92790654Y-68058777D01*
X92765017Y-68090017D01*
X92733777Y-68115654D01*
X92698138Y-68134704D01*
X92659468Y-68146435D01*
X92613112Y-68151000D01*
X91536888Y-68151000D01*
X91490532Y-68146435D01*
X91451862Y-68134704D01*
X91416223Y-68115654D01*
X91384983Y-68090017D01*
X91359346Y-68058777D01*
X91340296Y-68023138D01*
X91328565Y-67984468D01*
X91324000Y-67938112D01*
X91324000Y-67286888D01*
X91328565Y-67240532D01*
X91340296Y-67201862D01*
X91359346Y-67166223D01*
X91384983Y-67134983D01*
X91416223Y-67109346D01*
X91451862Y-67090296D01*
X91490532Y-67078565D01*
X91536888Y-67074000D01*
X92613112Y-67074000D01*
X92659468Y-67078565D01*
G37*
G36*
X84531468Y-66951565D02*
G01*
X84570138Y-66963296D01*
X84605777Y-66982346D01*
X84637017Y-67007983D01*
X84662654Y-67039223D01*
X84681704Y-67074862D01*
X84693435Y-67113532D01*
X84698000Y-67159888D01*
X84698000Y-67811112D01*
X84693435Y-67857468D01*
X84681704Y-67896138D01*
X84662654Y-67931777D01*
X84637017Y-67963017D01*
X84605777Y-67988654D01*
X84570138Y-68007704D01*
X84531468Y-68019435D01*
X84485112Y-68024000D01*
X83408888Y-68024000D01*
X83362532Y-68019435D01*
X83323862Y-68007704D01*
X83288223Y-67988654D01*
X83256983Y-67963017D01*
X83231346Y-67931777D01*
X83212296Y-67896138D01*
X83200565Y-67857468D01*
X83196000Y-67811112D01*
X83196000Y-67159888D01*
X83200565Y-67113532D01*
X83212296Y-67074862D01*
X83231346Y-67039223D01*
X83256983Y-67007983D01*
X83288223Y-66982346D01*
X83323862Y-66963296D01*
X83362532Y-66951565D01*
X83408888Y-66947000D01*
X84485112Y-66947000D01*
X84531468Y-66951565D01*
G37*
G36*
X81864468Y-66951565D02*
G01*
X81903138Y-66963296D01*
X81938777Y-66982346D01*
X81970017Y-67007983D01*
X81995654Y-67039223D01*
X82014704Y-67074862D01*
X82026435Y-67113532D01*
X82031000Y-67159888D01*
X82031000Y-67811112D01*
X82026435Y-67857468D01*
X82014704Y-67896138D01*
X81995654Y-67931777D01*
X81970017Y-67963017D01*
X81938777Y-67988654D01*
X81903138Y-68007704D01*
X81864468Y-68019435D01*
X81818112Y-68024000D01*
X80741888Y-68024000D01*
X80695532Y-68019435D01*
X80656862Y-68007704D01*
X80621223Y-67988654D01*
X80589983Y-67963017D01*
X80564346Y-67931777D01*
X80545296Y-67896138D01*
X80533565Y-67857468D01*
X80529000Y-67811112D01*
X80529000Y-67159888D01*
X80533565Y-67113532D01*
X80545296Y-67074862D01*
X80564346Y-67039223D01*
X80589983Y-67007983D01*
X80621223Y-66982346D01*
X80656862Y-66963296D01*
X80695532Y-66951565D01*
X80741888Y-66947000D01*
X81818112Y-66947000D01*
X81864468Y-66951565D01*
G37*
G36*
X156226000Y-67238500D02*
G01*
X154924000Y-67238500D01*
X154924000Y-66236500D01*
X156226000Y-66236500D01*
X156226000Y-67238500D01*
G37*
G36*
X137176000Y-67238500D02*
G01*
X135874000Y-67238500D01*
X135874000Y-66236500D01*
X137176000Y-66236500D01*
X137176000Y-67238500D01*
G37*
G36*
X129183974Y-63121184D02*
G01*
X129401974Y-63211483D01*
X129556123Y-63275333D01*
X129891048Y-63499123D01*
X130175877Y-63783952D01*
X130399667Y-64118877D01*
X130432062Y-64197086D01*
X130553816Y-64491026D01*
X130632400Y-64886094D01*
X130632400Y-65288906D01*
X130553816Y-65683974D01*
X130502951Y-65806772D01*
X130399667Y-66056123D01*
X130175877Y-66391048D01*
X129891048Y-66675877D01*
X129556123Y-66899667D01*
X129429359Y-66952174D01*
X129183974Y-67053816D01*
X128788906Y-67132400D01*
X128386094Y-67132400D01*
X127991026Y-67053816D01*
X127745641Y-66952174D01*
X127618877Y-66899667D01*
X127283952Y-66675877D01*
X126999123Y-66391048D01*
X126775333Y-66056123D01*
X126672049Y-65806772D01*
X126621184Y-65683974D01*
X126542600Y-65288906D01*
X126542600Y-64886094D01*
X126621184Y-64491026D01*
X126742938Y-64197086D01*
X126775333Y-64118877D01*
X126999123Y-63783952D01*
X127283952Y-63499123D01*
X127618877Y-63275333D01*
X127773026Y-63211483D01*
X127991026Y-63121184D01*
X128386094Y-63042600D01*
X128788906Y-63042600D01*
X129183974Y-63121184D01*
G37*
G36*
X148233974Y-63121184D02*
G01*
X148451974Y-63211483D01*
X148606123Y-63275333D01*
X148941048Y-63499123D01*
X149225877Y-63783952D01*
X149449667Y-64118877D01*
X149482062Y-64197086D01*
X149603816Y-64491026D01*
X149682400Y-64886094D01*
X149682400Y-65288906D01*
X149603816Y-65683974D01*
X149552951Y-65806772D01*
X149449667Y-66056123D01*
X149225877Y-66391048D01*
X148941048Y-66675877D01*
X148606123Y-66899667D01*
X148479359Y-66952174D01*
X148233974Y-67053816D01*
X147838906Y-67132400D01*
X147436094Y-67132400D01*
X147041026Y-67053816D01*
X146795641Y-66952174D01*
X146668877Y-66899667D01*
X146333952Y-66675877D01*
X146049123Y-66391048D01*
X145825333Y-66056123D01*
X145722049Y-65806772D01*
X145671184Y-65683974D01*
X145592600Y-65288906D01*
X145592600Y-64886094D01*
X145671184Y-64491026D01*
X145792938Y-64197086D01*
X145825333Y-64118877D01*
X146049123Y-63783952D01*
X146333952Y-63499123D01*
X146668877Y-63275333D01*
X146823026Y-63211483D01*
X147041026Y-63121184D01*
X147436094Y-63042600D01*
X147838906Y-63042600D01*
X148233974Y-63121184D01*
G37*
G36*
X95834468Y-65203565D02*
G01*
X95873138Y-65215296D01*
X95908777Y-65234346D01*
X95940017Y-65259983D01*
X95965654Y-65291223D01*
X95984704Y-65326862D01*
X95996435Y-65365532D01*
X96001000Y-65411888D01*
X96001000Y-66063112D01*
X95996435Y-66109468D01*
X95984704Y-66148138D01*
X95965654Y-66183777D01*
X95940017Y-66215017D01*
X95908777Y-66240654D01*
X95873138Y-66259704D01*
X95834468Y-66271435D01*
X95788112Y-66276000D01*
X94711888Y-66276000D01*
X94665532Y-66271435D01*
X94626862Y-66259704D01*
X94591223Y-66240654D01*
X94559983Y-66215017D01*
X94534346Y-66183777D01*
X94515296Y-66148138D01*
X94503565Y-66109468D01*
X94499000Y-66063112D01*
X94499000Y-65411888D01*
X94503565Y-65365532D01*
X94515296Y-65326862D01*
X94534346Y-65291223D01*
X94559983Y-65259983D01*
X94591223Y-65234346D01*
X94626862Y-65215296D01*
X94665532Y-65203565D01*
X94711888Y-65199000D01*
X95788112Y-65199000D01*
X95834468Y-65203565D01*
G37*
G36*
X92659468Y-65203565D02*
G01*
X92698138Y-65215296D01*
X92733777Y-65234346D01*
X92765017Y-65259983D01*
X92790654Y-65291223D01*
X92809704Y-65326862D01*
X92821435Y-65365532D01*
X92826000Y-65411888D01*
X92826000Y-66063112D01*
X92821435Y-66109468D01*
X92809704Y-66148138D01*
X92790654Y-66183777D01*
X92765017Y-66215017D01*
X92733777Y-66240654D01*
X92698138Y-66259704D01*
X92659468Y-66271435D01*
X92613112Y-66276000D01*
X91536888Y-66276000D01*
X91490532Y-66271435D01*
X91451862Y-66259704D01*
X91416223Y-66240654D01*
X91384983Y-66215017D01*
X91359346Y-66183777D01*
X91340296Y-66148138D01*
X91328565Y-66109468D01*
X91324000Y-66063112D01*
X91324000Y-65411888D01*
X91328565Y-65365532D01*
X91340296Y-65326862D01*
X91359346Y-65291223D01*
X91384983Y-65259983D01*
X91416223Y-65234346D01*
X91451862Y-65215296D01*
X91490532Y-65203565D01*
X91536888Y-65199000D01*
X92613112Y-65199000D01*
X92659468Y-65203565D01*
G37*
G36*
X84531468Y-65076565D02*
G01*
X84570138Y-65088296D01*
X84605777Y-65107346D01*
X84637017Y-65132983D01*
X84662654Y-65164223D01*
X84681704Y-65199862D01*
X84693435Y-65238532D01*
X84698000Y-65284888D01*
X84698000Y-65936112D01*
X84693435Y-65982468D01*
X84681704Y-66021138D01*
X84662654Y-66056777D01*
X84637017Y-66088017D01*
X84605777Y-66113654D01*
X84570138Y-66132704D01*
X84531468Y-66144435D01*
X84485112Y-66149000D01*
X83408888Y-66149000D01*
X83362532Y-66144435D01*
X83323862Y-66132704D01*
X83288223Y-66113654D01*
X83256983Y-66088017D01*
X83231346Y-66056777D01*
X83212296Y-66021138D01*
X83200565Y-65982468D01*
X83196000Y-65936112D01*
X83196000Y-65284888D01*
X83200565Y-65238532D01*
X83212296Y-65199862D01*
X83231346Y-65164223D01*
X83256983Y-65132983D01*
X83288223Y-65107346D01*
X83323862Y-65088296D01*
X83362532Y-65076565D01*
X83408888Y-65072000D01*
X84485112Y-65072000D01*
X84531468Y-65076565D01*
G37*
G36*
X81864468Y-65076565D02*
G01*
X81903138Y-65088296D01*
X81938777Y-65107346D01*
X81970017Y-65132983D01*
X81995654Y-65164223D01*
X82014704Y-65199862D01*
X82026435Y-65238532D01*
X82031000Y-65284888D01*
X82031000Y-65936112D01*
X82026435Y-65982468D01*
X82014704Y-66021138D01*
X81995654Y-66056777D01*
X81970017Y-66088017D01*
X81938777Y-66113654D01*
X81903138Y-66132704D01*
X81864468Y-66144435D01*
X81818112Y-66149000D01*
X80741888Y-66149000D01*
X80695532Y-66144435D01*
X80656862Y-66132704D01*
X80621223Y-66113654D01*
X80589983Y-66088017D01*
X80564346Y-66056777D01*
X80545296Y-66021138D01*
X80533565Y-65982468D01*
X80529000Y-65936112D01*
X80529000Y-65284888D01*
X80533565Y-65238532D01*
X80545296Y-65199862D01*
X80564346Y-65164223D01*
X80589983Y-65132983D01*
X80621223Y-65107346D01*
X80656862Y-65088296D01*
X80695532Y-65076565D01*
X80741888Y-65072000D01*
X81818112Y-65072000D01*
X81864468Y-65076565D01*
G37*
G36*
X123777604Y-64197085D02*
G01*
X123946126Y-64266889D01*
X124097791Y-64368228D01*
X124226772Y-64497209D01*
X124328111Y-64648874D01*
X124397915Y-64817396D01*
X124433500Y-64996297D01*
X124433500Y-65178703D01*
X124397915Y-65357604D01*
X124328111Y-65526126D01*
X124226772Y-65677791D01*
X124097791Y-65806772D01*
X123946126Y-65908111D01*
X123777604Y-65977915D01*
X123598703Y-66013500D01*
X123416297Y-66013500D01*
X123237396Y-65977915D01*
X123068874Y-65908111D01*
X122917209Y-65806772D01*
X122788228Y-65677791D01*
X122686889Y-65526126D01*
X122617085Y-65357604D01*
X122581500Y-65178703D01*
X122581500Y-64996297D01*
X122617085Y-64817396D01*
X122686889Y-64648874D01*
X122788228Y-64497209D01*
X122917209Y-64368228D01*
X123068874Y-64266889D01*
X123237396Y-64197085D01*
X123416297Y-64161500D01*
X123598703Y-64161500D01*
X123777604Y-64197085D01*
G37*
G36*
X133937604Y-64197085D02*
G01*
X134106126Y-64266889D01*
X134257791Y-64368228D01*
X134386772Y-64497209D01*
X134488111Y-64648874D01*
X134557915Y-64817396D01*
X134593500Y-64996297D01*
X134593500Y-65178703D01*
X134557915Y-65357604D01*
X134488111Y-65526126D01*
X134386772Y-65677791D01*
X134257791Y-65806772D01*
X134106126Y-65908111D01*
X133937604Y-65977915D01*
X133758703Y-66013500D01*
X133576297Y-66013500D01*
X133397396Y-65977915D01*
X133228874Y-65908111D01*
X133077209Y-65806772D01*
X132948228Y-65677791D01*
X132846889Y-65526126D01*
X132777085Y-65357604D01*
X132741500Y-65178703D01*
X132741500Y-64996297D01*
X132777085Y-64817396D01*
X132846889Y-64648874D01*
X132948228Y-64497209D01*
X133077209Y-64368228D01*
X133228874Y-64266889D01*
X133397396Y-64197085D01*
X133576297Y-64161500D01*
X133758703Y-64161500D01*
X133937604Y-64197085D01*
G37*
G36*
X142827604Y-64197085D02*
G01*
X142996126Y-64266889D01*
X143147791Y-64368228D01*
X143276772Y-64497209D01*
X143378111Y-64648874D01*
X143447915Y-64817396D01*
X143483500Y-64996297D01*
X143483500Y-65178703D01*
X143447915Y-65357604D01*
X143378111Y-65526126D01*
X143276772Y-65677791D01*
X143147791Y-65806772D01*
X142996126Y-65908111D01*
X142827604Y-65977915D01*
X142648703Y-66013500D01*
X142466297Y-66013500D01*
X142287396Y-65977915D01*
X142118874Y-65908111D01*
X141967209Y-65806772D01*
X141838228Y-65677791D01*
X141736889Y-65526126D01*
X141667085Y-65357604D01*
X141631500Y-65178703D01*
X141631500Y-64996297D01*
X141667085Y-64817396D01*
X141736889Y-64648874D01*
X141838228Y-64497209D01*
X141967209Y-64368228D01*
X142118874Y-64266889D01*
X142287396Y-64197085D01*
X142466297Y-64161500D01*
X142648703Y-64161500D01*
X142827604Y-64197085D01*
G37*
G36*
X152987604Y-64197085D02*
G01*
X153156126Y-64266889D01*
X153307791Y-64368228D01*
X153436772Y-64497209D01*
X153538111Y-64648874D01*
X153607915Y-64817396D01*
X153643500Y-64996297D01*
X153643500Y-65178703D01*
X153607915Y-65357604D01*
X153538111Y-65526126D01*
X153436772Y-65677791D01*
X153307791Y-65806772D01*
X153156126Y-65908111D01*
X152987604Y-65977915D01*
X152808703Y-66013500D01*
X152626297Y-66013500D01*
X152447396Y-65977915D01*
X152278874Y-65908111D01*
X152127209Y-65806772D01*
X151998228Y-65677791D01*
X151896889Y-65526126D01*
X151827085Y-65357604D01*
X151791500Y-65178703D01*
X151791500Y-64996297D01*
X151827085Y-64817396D01*
X151896889Y-64648874D01*
X151998228Y-64497209D01*
X152127209Y-64368228D01*
X152278874Y-64266889D01*
X152447396Y-64197085D01*
X152626297Y-64161500D01*
X152808703Y-64161500D01*
X152987604Y-64197085D01*
G37*
G36*
X156226000Y-63938500D02*
G01*
X154924000Y-63938500D01*
X154924000Y-62936500D01*
X156226000Y-62936500D01*
X156226000Y-63938500D01*
G37*
G36*
X137176000Y-63938500D02*
G01*
X135874000Y-63938500D01*
X135874000Y-62936500D01*
X137176000Y-62936500D01*
X137176000Y-63938500D01*
G37*
G36*
X144014403Y-61385638D02*
G01*
X144170527Y-61416693D01*
X144384545Y-61505342D01*
X144389922Y-61508935D01*
X144577154Y-61634039D01*
X144740961Y-61797846D01*
X144826758Y-61926251D01*
X144869658Y-61990455D01*
X144958307Y-62204473D01*
X144958307Y-62204475D01*
X145003399Y-62431163D01*
X145003500Y-62431674D01*
X145003500Y-62663326D01*
X144958307Y-62890527D01*
X144869658Y-63104545D01*
X144869657Y-63104546D01*
X144740961Y-63297154D01*
X144577154Y-63460961D01*
X144520040Y-63499123D01*
X144384545Y-63589658D01*
X144170527Y-63678307D01*
X144019060Y-63708436D01*
X143943327Y-63723500D01*
X143711673Y-63723500D01*
X143635940Y-63708436D01*
X143484473Y-63678307D01*
X143270455Y-63589658D01*
X143134960Y-63499123D01*
X143077846Y-63460961D01*
X142914039Y-63297154D01*
X142785343Y-63104546D01*
X142785342Y-63104545D01*
X142696693Y-62890527D01*
X142651500Y-62663326D01*
X142651500Y-62431674D01*
X142651602Y-62431163D01*
X142696693Y-62204475D01*
X142696693Y-62204473D01*
X142785342Y-61990455D01*
X142828242Y-61926251D01*
X142914039Y-61797846D01*
X143077846Y-61634039D01*
X143265078Y-61508935D01*
X143270455Y-61505342D01*
X143484473Y-61416693D01*
X143640597Y-61385638D01*
X143711673Y-61371500D01*
X143943327Y-61371500D01*
X144014403Y-61385638D01*
G37*
G36*
X124964403Y-61385638D02*
G01*
X125120527Y-61416693D01*
X125334545Y-61505342D01*
X125339922Y-61508935D01*
X125527154Y-61634039D01*
X125690961Y-61797846D01*
X125776758Y-61926251D01*
X125819658Y-61990455D01*
X125908307Y-62204473D01*
X125908307Y-62204475D01*
X125953399Y-62431163D01*
X125953500Y-62431674D01*
X125953500Y-62663326D01*
X125908307Y-62890527D01*
X125819658Y-63104545D01*
X125819657Y-63104546D01*
X125690961Y-63297154D01*
X125527154Y-63460961D01*
X125470040Y-63499123D01*
X125334545Y-63589658D01*
X125120527Y-63678307D01*
X124969060Y-63708436D01*
X124893327Y-63723500D01*
X124661673Y-63723500D01*
X124585940Y-63708436D01*
X124434473Y-63678307D01*
X124220455Y-63589658D01*
X124084960Y-63499123D01*
X124027846Y-63460961D01*
X123864039Y-63297154D01*
X123735343Y-63104546D01*
X123735342Y-63104545D01*
X123646693Y-62890527D01*
X123601500Y-62663326D01*
X123601500Y-62431674D01*
X123601602Y-62431163D01*
X123646693Y-62204475D01*
X123646693Y-62204473D01*
X123735342Y-61990455D01*
X123778242Y-61926251D01*
X123864039Y-61797846D01*
X124027846Y-61634039D01*
X124215078Y-61508935D01*
X124220455Y-61505342D01*
X124434473Y-61416693D01*
X124590597Y-61385638D01*
X124661673Y-61371500D01*
X124893327Y-61371500D01*
X124964403Y-61385638D01*
G37*
G36*
X102838500Y-63413500D02*
G01*
X101336500Y-63413500D01*
X101336500Y-62111500D01*
X102838500Y-62111500D01*
X102838500Y-63413500D01*
G37*
G36*
X105038500Y-63413500D02*
G01*
X103536500Y-63413500D01*
X103536500Y-62111500D01*
X105038500Y-62111500D01*
X105038500Y-63413500D01*
G37*
G36*
X108534468Y-62316065D02*
G01*
X108573138Y-62327796D01*
X108608777Y-62346846D01*
X108640017Y-62372483D01*
X108665654Y-62403723D01*
X108684704Y-62439362D01*
X108696435Y-62478032D01*
X108701000Y-62524388D01*
X108701000Y-63175612D01*
X108696435Y-63221968D01*
X108684704Y-63260638D01*
X108665654Y-63296277D01*
X108640017Y-63327517D01*
X108608777Y-63353154D01*
X108573138Y-63372204D01*
X108534468Y-63383935D01*
X108488112Y-63388500D01*
X107411888Y-63388500D01*
X107365532Y-63383935D01*
X107326862Y-63372204D01*
X107291223Y-63353154D01*
X107259983Y-63327517D01*
X107234346Y-63296277D01*
X107215296Y-63260638D01*
X107203565Y-63221968D01*
X107199000Y-63175612D01*
X107199000Y-62524388D01*
X107203565Y-62478032D01*
X107215296Y-62439362D01*
X107234346Y-62403723D01*
X107259983Y-62372483D01*
X107291223Y-62346846D01*
X107326862Y-62327796D01*
X107365532Y-62316065D01*
X107411888Y-62311500D01*
X108488112Y-62311500D01*
X108534468Y-62316065D01*
G37*
G36*
X99009468Y-62316065D02*
G01*
X99048138Y-62327796D01*
X99083777Y-62346846D01*
X99115017Y-62372483D01*
X99140654Y-62403723D01*
X99159704Y-62439362D01*
X99171435Y-62478032D01*
X99176000Y-62524388D01*
X99176000Y-63175612D01*
X99171435Y-63221968D01*
X99159704Y-63260638D01*
X99140654Y-63296277D01*
X99115017Y-63327517D01*
X99083777Y-63353154D01*
X99048138Y-63372204D01*
X99009468Y-63383935D01*
X98963112Y-63388500D01*
X97886888Y-63388500D01*
X97840532Y-63383935D01*
X97801862Y-63372204D01*
X97766223Y-63353154D01*
X97734983Y-63327517D01*
X97709346Y-63296277D01*
X97690296Y-63260638D01*
X97678565Y-63221968D01*
X97674000Y-63175612D01*
X97674000Y-62524388D01*
X97678565Y-62478032D01*
X97690296Y-62439362D01*
X97709346Y-62403723D01*
X97734983Y-62372483D01*
X97766223Y-62346846D01*
X97801862Y-62327796D01*
X97840532Y-62316065D01*
X97886888Y-62311500D01*
X98963112Y-62311500D01*
X99009468Y-62316065D01*
G37*
G36*
X102838500Y-61713500D02*
G01*
X101336500Y-61713500D01*
X101336500Y-60411500D01*
X102838500Y-60411500D01*
X102838500Y-61713500D01*
G37*
G36*
X105038500Y-61713500D02*
G01*
X103536500Y-61713500D01*
X103536500Y-60411500D01*
X105038500Y-60411500D01*
X105038500Y-61713500D01*
G37*
G36*
X108534468Y-60441065D02*
G01*
X108573138Y-60452796D01*
X108608777Y-60471846D01*
X108640017Y-60497483D01*
X108665654Y-60528723D01*
X108684704Y-60564362D01*
X108696435Y-60603032D01*
X108701000Y-60649388D01*
X108701000Y-61300612D01*
X108696435Y-61346968D01*
X108684704Y-61385638D01*
X108665654Y-61421277D01*
X108640017Y-61452517D01*
X108608777Y-61478154D01*
X108573138Y-61497204D01*
X108534468Y-61508935D01*
X108488112Y-61513500D01*
X107411888Y-61513500D01*
X107365532Y-61508935D01*
X107326862Y-61497204D01*
X107291223Y-61478154D01*
X107259983Y-61452517D01*
X107234346Y-61421277D01*
X107215296Y-61385638D01*
X107203565Y-61346968D01*
X107199000Y-61300612D01*
X107199000Y-60649388D01*
X107203565Y-60603032D01*
X107215296Y-60564362D01*
X107234346Y-60528723D01*
X107259983Y-60497483D01*
X107291223Y-60471846D01*
X107326862Y-60452796D01*
X107365532Y-60441065D01*
X107411888Y-60436500D01*
X108488112Y-60436500D01*
X108534468Y-60441065D01*
G37*
G36*
X99009468Y-60441065D02*
G01*
X99048138Y-60452796D01*
X99083777Y-60471846D01*
X99115017Y-60497483D01*
X99140654Y-60528723D01*
X99159704Y-60564362D01*
X99171435Y-60603032D01*
X99176000Y-60649388D01*
X99176000Y-61300612D01*
X99171435Y-61346968D01*
X99159704Y-61385638D01*
X99140654Y-61421277D01*
X99115017Y-61452517D01*
X99083777Y-61478154D01*
X99048138Y-61497204D01*
X99009468Y-61508935D01*
X98963112Y-61513500D01*
X97886888Y-61513500D01*
X97840532Y-61508935D01*
X97801862Y-61497204D01*
X97766223Y-61478154D01*
X97734983Y-61452517D01*
X97709346Y-61421277D01*
X97690296Y-61385638D01*
X97678565Y-61346968D01*
X97674000Y-61300612D01*
X97674000Y-60649388D01*
X97678565Y-60603032D01*
X97690296Y-60564362D01*
X97709346Y-60528723D01*
X97734983Y-60497483D01*
X97766223Y-60471846D01*
X97801862Y-60452796D01*
X97840532Y-60441065D01*
X97886888Y-60436500D01*
X98963112Y-60436500D01*
X99009468Y-60441065D01*
G37*
G36*
X131319060Y-58846564D02*
G01*
X131470527Y-58876693D01*
X131684545Y-58965342D01*
X131684546Y-58965343D01*
X131877154Y-59094039D01*
X132040961Y-59257846D01*
X132126758Y-59386251D01*
X132169658Y-59450455D01*
X132258307Y-59664473D01*
X132303500Y-59891674D01*
X132303500Y-60123326D01*
X132258307Y-60350527D01*
X132169658Y-60564545D01*
X132143942Y-60603032D01*
X132040961Y-60757154D01*
X131877154Y-60920961D01*
X131748749Y-61006758D01*
X131684545Y-61049658D01*
X131470527Y-61138307D01*
X131319060Y-61168436D01*
X131243327Y-61183500D01*
X131011673Y-61183500D01*
X130935940Y-61168436D01*
X130784473Y-61138307D01*
X130570455Y-61049658D01*
X130506251Y-61006758D01*
X130377846Y-60920961D01*
X130214039Y-60757154D01*
X130111058Y-60603032D01*
X130085342Y-60564545D01*
X129996693Y-60350527D01*
X129951500Y-60123326D01*
X129951500Y-59891674D01*
X129996693Y-59664473D01*
X130085342Y-59450455D01*
X130128242Y-59386251D01*
X130214039Y-59257846D01*
X130377846Y-59094039D01*
X130570454Y-58965343D01*
X130570455Y-58965342D01*
X130784473Y-58876693D01*
X130935940Y-58846564D01*
X131011673Y-58831500D01*
X131243327Y-58831500D01*
X131319060Y-58846564D01*
G37*
G36*
X150369060Y-58846564D02*
G01*
X150520527Y-58876693D01*
X150734545Y-58965342D01*
X150734546Y-58965343D01*
X150927154Y-59094039D01*
X151090961Y-59257846D01*
X151176758Y-59386251D01*
X151219658Y-59450455D01*
X151308307Y-59664473D01*
X151353500Y-59891674D01*
X151353500Y-60123326D01*
X151308307Y-60350527D01*
X151219658Y-60564545D01*
X151193942Y-60603032D01*
X151090961Y-60757154D01*
X150927154Y-60920961D01*
X150798749Y-61006758D01*
X150734545Y-61049658D01*
X150520527Y-61138307D01*
X150369060Y-61168436D01*
X150293327Y-61183500D01*
X150061673Y-61183500D01*
X149985940Y-61168436D01*
X149834473Y-61138307D01*
X149620455Y-61049658D01*
X149556251Y-61006758D01*
X149427846Y-60920961D01*
X149264039Y-60757154D01*
X149161058Y-60603032D01*
X149135342Y-60564545D01*
X149046693Y-60350527D01*
X149001500Y-60123326D01*
X149001500Y-59891674D01*
X149046693Y-59664473D01*
X149135342Y-59450455D01*
X149178242Y-59386251D01*
X149264039Y-59257846D01*
X149427846Y-59094039D01*
X149620454Y-58965343D01*
X149620455Y-58965342D01*
X149834473Y-58876693D01*
X149985940Y-58846564D01*
X150061673Y-58831500D01*
X150293327Y-58831500D01*
X150369060Y-58846564D01*
G37*
G36*
X79330627Y-57976037D02*
G01*
X79500466Y-58027557D01*
X79656991Y-58111222D01*
X79692729Y-58140552D01*
X79794186Y-58223814D01*
X79877448Y-58325271D01*
X79906778Y-58361009D01*
X79990443Y-58517534D01*
X80041963Y-58687373D01*
X80055000Y-58819742D01*
X80055000Y-59908258D01*
X80041963Y-60040627D01*
X79990443Y-60210466D01*
X79906778Y-60366991D01*
X79877448Y-60402729D01*
X79794186Y-60504186D01*
X79656989Y-60616779D01*
X79588809Y-60653222D01*
X79500465Y-60700443D01*
X79330626Y-60751963D01*
X79154000Y-60769359D01*
X78977373Y-60751963D01*
X78807534Y-60700443D01*
X78651009Y-60616778D01*
X78615271Y-60587448D01*
X78513814Y-60504186D01*
X78401221Y-60366989D01*
X78317558Y-60210467D01*
X78317557Y-60210465D01*
X78266037Y-60040626D01*
X78253000Y-59908257D01*
X78253001Y-58819742D01*
X78266038Y-58687373D01*
X78317558Y-58517534D01*
X78401223Y-58361009D01*
X78430553Y-58325271D01*
X78513815Y-58223814D01*
X78615272Y-58140552D01*
X78651010Y-58111222D01*
X78807535Y-58027557D01*
X78977374Y-57976037D01*
X79154000Y-57958641D01*
X79330627Y-57976037D01*
G37*
G36*
X86630627Y-57976037D02*
G01*
X86800466Y-58027557D01*
X86956991Y-58111222D01*
X86992729Y-58140552D01*
X87094186Y-58223814D01*
X87177448Y-58325271D01*
X87206778Y-58361009D01*
X87290443Y-58517534D01*
X87341963Y-58687373D01*
X87355000Y-58819742D01*
X87355000Y-59908258D01*
X87341963Y-60040627D01*
X87290443Y-60210466D01*
X87206778Y-60366991D01*
X87177448Y-60402729D01*
X87094186Y-60504186D01*
X86956989Y-60616779D01*
X86888809Y-60653222D01*
X86800465Y-60700443D01*
X86630626Y-60751963D01*
X86454000Y-60769359D01*
X86277373Y-60751963D01*
X86107534Y-60700443D01*
X85951009Y-60616778D01*
X85915271Y-60587448D01*
X85813814Y-60504186D01*
X85701221Y-60366989D01*
X85617558Y-60210467D01*
X85617557Y-60210465D01*
X85566037Y-60040626D01*
X85553000Y-59908257D01*
X85553001Y-58819742D01*
X85566038Y-58687373D01*
X85617558Y-58517534D01*
X85701223Y-58361009D01*
X85730553Y-58325271D01*
X85813815Y-58223814D01*
X85915272Y-58140552D01*
X85951010Y-58111222D01*
X86107535Y-58027557D01*
X86277374Y-57976037D01*
X86454000Y-57958641D01*
X86630627Y-57976037D01*
G37*
G36*
X84705000Y-60540000D02*
G01*
X80903000Y-60540000D01*
X80903000Y-58188000D01*
X84705000Y-58188000D01*
X84705000Y-60540000D01*
G37*
G36*
X79330627Y-53476037D02*
G01*
X79500466Y-53527557D01*
X79656991Y-53611222D01*
X79692729Y-53640552D01*
X79794186Y-53723814D01*
X79877448Y-53825271D01*
X79906778Y-53861009D01*
X79990443Y-54017534D01*
X80041963Y-54187373D01*
X80055000Y-54319742D01*
X80055000Y-55408258D01*
X80041963Y-55540627D01*
X79990443Y-55710466D01*
X79906778Y-55866991D01*
X79877448Y-55902729D01*
X79794186Y-56004186D01*
X79656989Y-56116779D01*
X79500467Y-56200442D01*
X79500465Y-56200443D01*
X79330626Y-56251963D01*
X79154000Y-56269359D01*
X78977373Y-56251963D01*
X78807534Y-56200443D01*
X78651009Y-56116778D01*
X78615271Y-56087448D01*
X78513814Y-56004186D01*
X78401221Y-55866989D01*
X78317558Y-55710467D01*
X78317557Y-55710465D01*
X78266037Y-55540626D01*
X78253000Y-55408257D01*
X78253001Y-54319742D01*
X78266038Y-54187373D01*
X78317558Y-54017534D01*
X78401223Y-53861009D01*
X78430553Y-53825271D01*
X78513815Y-53723814D01*
X78615272Y-53640552D01*
X78651010Y-53611222D01*
X78807535Y-53527557D01*
X78977374Y-53476037D01*
X79154000Y-53458641D01*
X79330627Y-53476037D01*
G37*
G36*
X86630627Y-53476037D02*
G01*
X86800466Y-53527557D01*
X86956991Y-53611222D01*
X86992729Y-53640552D01*
X87094186Y-53723814D01*
X87177448Y-53825271D01*
X87206778Y-53861009D01*
X87290443Y-54017534D01*
X87341963Y-54187373D01*
X87355000Y-54319742D01*
X87355000Y-55408258D01*
X87341963Y-55540627D01*
X87290443Y-55710466D01*
X87206778Y-55866991D01*
X87177448Y-55902729D01*
X87094186Y-56004186D01*
X86956989Y-56116779D01*
X86800467Y-56200442D01*
X86800465Y-56200443D01*
X86630626Y-56251963D01*
X86454000Y-56269359D01*
X86277373Y-56251963D01*
X86107534Y-56200443D01*
X85951009Y-56116778D01*
X85915271Y-56087448D01*
X85813814Y-56004186D01*
X85701221Y-55866989D01*
X85617558Y-55710467D01*
X85617557Y-55710465D01*
X85566037Y-55540626D01*
X85553000Y-55408257D01*
X85553001Y-54319742D01*
X85566038Y-54187373D01*
X85617558Y-54017534D01*
X85701223Y-53861009D01*
X85730553Y-53825271D01*
X85813815Y-53723814D01*
X85915272Y-53640552D01*
X85951010Y-53611222D01*
X86107535Y-53527557D01*
X86277374Y-53476037D01*
X86454000Y-53458641D01*
X86630627Y-53476037D01*
G37*
M02*
