G04 #@! TF.GenerationSoftware,KiCad,Pcbnew,(5.1.5)-3*
G04 #@! TF.CreationDate,2019-12-18T23:42:08-07:00*
G04 #@! TF.ProjectId,MiniV1,4d696e69-5631-42e6-9b69-6361645f7063,rev?*
G04 #@! TF.SameCoordinates,Original*
G04 #@! TF.FileFunction,Legend,Bot*
G04 #@! TF.FilePolarity,Positive*
%FSLAX46Y46*%
G04 Gerber Fmt 4.6, Leading zero omitted, Abs format (unit mm)*
G04 Created by KiCad (PCBNEW (5.1.5)-3) date 2019-12-18 23:42:08*
%MOMM*%
%LPD*%
G04 APERTURE LIST*
%ADD10C,0.150000*%
%ADD11C,0.120000*%
%ADD12O,1.802000X2.802000*%
%ADD13R,0.602000X2.352000*%
%ADD14R,1.502000X1.302000*%
%ADD15R,0.652000X1.602000*%
%ADD16R,1.602000X0.652000*%
%ADD17R,1.902000X1.202000*%
%ADD18C,0.020000*%
%ADD19C,1.852000*%
%ADD20C,2.352000*%
%ADD21C,4.089800*%
%ADD22R,1.302000X1.002000*%
G04 APERTURE END LIST*
D10*
X78954000Y-54864000D02*
X78954000Y-60314000D01*
X86654000Y-54864000D02*
X86654000Y-60314000D01*
X78954000Y-60314000D02*
X86654000Y-60314000D01*
D11*
X105187500Y-63562500D02*
X101187500Y-63562500D01*
X105187500Y-60262500D02*
X105187500Y-63562500D01*
D10*
X98012500Y-80006250D02*
X96737500Y-80006250D01*
X108362500Y-80581250D02*
X107687500Y-80581250D01*
X108362500Y-70231250D02*
X107687500Y-70231250D01*
X98012500Y-70231250D02*
X98687500Y-70231250D01*
X98012500Y-80581250D02*
X98687500Y-80581250D01*
X98012500Y-70231250D02*
X98012500Y-70906250D01*
X108362500Y-70231250D02*
X108362500Y-70906250D01*
X108362500Y-80581250D02*
X108362500Y-79906250D01*
X98012500Y-80581250D02*
X98012500Y-80006250D01*
X83804000Y-90932000D02*
G75*
G03X83804000Y-90932000I-1000000J0D01*
G01*
X85404000Y-93532000D02*
X85404000Y-88332000D01*
X80204000Y-93532000D02*
X85404000Y-93532000D01*
X80204000Y-88332000D02*
X80204000Y-93532000D01*
X85404000Y-88332000D02*
X80204000Y-88332000D01*
D11*
X112002500Y-81221078D02*
X112002500Y-80703922D01*
X113422500Y-81221078D02*
X113422500Y-80703922D01*
X80570000Y-66806578D02*
X80570000Y-66289422D01*
X81990000Y-66806578D02*
X81990000Y-66289422D01*
X83237000Y-66806578D02*
X83237000Y-66289422D01*
X84657000Y-66806578D02*
X84657000Y-66289422D01*
X92785000Y-66416422D02*
X92785000Y-66933578D01*
X91365000Y-66416422D02*
X91365000Y-66933578D01*
X77322000Y-71722064D02*
X77322000Y-70517936D01*
X79142000Y-71722064D02*
X79142000Y-70517936D01*
X156575000Y-86387500D02*
X156575000Y-82487500D01*
X154575000Y-86387500D02*
X154575000Y-82487500D01*
X156575000Y-86387500D02*
X154575000Y-86387500D01*
X137525000Y-86387500D02*
X137525000Y-82487500D01*
X135525000Y-86387500D02*
X135525000Y-82487500D01*
X137525000Y-86387500D02*
X135525000Y-86387500D01*
X156575000Y-67337500D02*
X156575000Y-63437500D01*
X154575000Y-67337500D02*
X154575000Y-63437500D01*
X156575000Y-67337500D02*
X154575000Y-67337500D01*
X137525000Y-67337500D02*
X137525000Y-63437500D01*
X135525000Y-67337500D02*
X135525000Y-63437500D01*
X137525000Y-67337500D02*
X135525000Y-67337500D01*
X92381000Y-80395578D02*
X92381000Y-79878422D01*
X93801000Y-80395578D02*
X93801000Y-79878422D01*
X106897672Y-84221250D02*
X107414828Y-84221250D01*
X106897672Y-85641250D02*
X107414828Y-85641250D01*
X113422500Y-70385172D02*
X113422500Y-70902328D01*
X112002500Y-70385172D02*
X112002500Y-70902328D01*
X94540000Y-66933578D02*
X94540000Y-66416422D01*
X95960000Y-66933578D02*
X95960000Y-66416422D01*
X93095578Y-75513000D02*
X92578422Y-75513000D01*
X93095578Y-74093000D02*
X92578422Y-74093000D01*
X99135000Y-61653922D02*
X99135000Y-62171078D01*
X97715000Y-61653922D02*
X97715000Y-62171078D01*
X107240000Y-62171078D02*
X107240000Y-61653922D01*
X108660000Y-62171078D02*
X108660000Y-61653922D01*
D10*
X83137333Y-56348380D02*
X83137333Y-57062666D01*
X83184952Y-57205523D01*
X83280190Y-57300761D01*
X83423047Y-57348380D01*
X83518285Y-57348380D01*
X82137333Y-57348380D02*
X82708761Y-57348380D01*
X82423047Y-57348380D02*
X82423047Y-56348380D01*
X82518285Y-56491238D01*
X82613523Y-56586476D01*
X82708761Y-56634095D01*
X103663690Y-59438690D02*
X103663690Y-59914880D01*
X103997023Y-58914880D02*
X103663690Y-59438690D01*
X103330357Y-58914880D01*
X102473214Y-59914880D02*
X103044642Y-59914880D01*
X102758928Y-59914880D02*
X102758928Y-58914880D01*
X102854166Y-59057738D01*
X102949404Y-59152976D01*
X103044642Y-59200595D01*
X103949404Y-82308630D02*
X103949404Y-83118154D01*
X103901785Y-83213392D01*
X103854166Y-83261011D01*
X103758928Y-83308630D01*
X103568452Y-83308630D01*
X103473214Y-83261011D01*
X103425595Y-83213392D01*
X103377976Y-83118154D01*
X103377976Y-82308630D01*
X102377976Y-83308630D02*
X102949404Y-83308630D01*
X102663690Y-83308630D02*
X102663690Y-82308630D01*
X102758928Y-82451488D01*
X102854166Y-82546726D01*
X102949404Y-82594345D01*
X84137333Y-95400761D02*
X83994476Y-95448380D01*
X83756380Y-95448380D01*
X83661142Y-95400761D01*
X83613523Y-95353142D01*
X83565904Y-95257904D01*
X83565904Y-95162666D01*
X83613523Y-95067428D01*
X83661142Y-95019809D01*
X83756380Y-94972190D01*
X83946857Y-94924571D01*
X84042095Y-94876952D01*
X84089714Y-94829333D01*
X84137333Y-94734095D01*
X84137333Y-94638857D01*
X84089714Y-94543619D01*
X84042095Y-94496000D01*
X83946857Y-94448380D01*
X83708761Y-94448380D01*
X83565904Y-94496000D01*
X83232571Y-94448380D02*
X82994476Y-95448380D01*
X82804000Y-94734095D01*
X82613523Y-95448380D01*
X82375428Y-94448380D01*
X81470666Y-95448380D02*
X82042095Y-95448380D01*
X81756380Y-95448380D02*
X81756380Y-94448380D01*
X81851619Y-94591238D01*
X81946857Y-94686476D01*
X82042095Y-94734095D01*
X114814880Y-80795833D02*
X114338690Y-80462500D01*
X114814880Y-80224404D02*
X113814880Y-80224404D01*
X113814880Y-80605357D01*
X113862500Y-80700595D01*
X113910119Y-80748214D01*
X114005357Y-80795833D01*
X114148214Y-80795833D01*
X114243452Y-80748214D01*
X114291071Y-80700595D01*
X114338690Y-80605357D01*
X114338690Y-80224404D01*
X114148214Y-81652976D02*
X114814880Y-81652976D01*
X113767261Y-81414880D02*
X114481547Y-81176785D01*
X114481547Y-81795833D01*
X83382380Y-66381333D02*
X82906190Y-66048000D01*
X83382380Y-65809904D02*
X82382380Y-65809904D01*
X82382380Y-66190857D01*
X82430000Y-66286095D01*
X82477619Y-66333714D01*
X82572857Y-66381333D01*
X82715714Y-66381333D01*
X82810952Y-66333714D01*
X82858571Y-66286095D01*
X82906190Y-66190857D01*
X82906190Y-65809904D01*
X82382380Y-66714666D02*
X82382380Y-67333714D01*
X82763333Y-67000380D01*
X82763333Y-67143238D01*
X82810952Y-67238476D01*
X82858571Y-67286095D01*
X82953809Y-67333714D01*
X83191904Y-67333714D01*
X83287142Y-67286095D01*
X83334761Y-67238476D01*
X83382380Y-67143238D01*
X83382380Y-66857523D01*
X83334761Y-66762285D01*
X83287142Y-66714666D01*
X86049380Y-66381333D02*
X85573190Y-66048000D01*
X86049380Y-65809904D02*
X85049380Y-65809904D01*
X85049380Y-66190857D01*
X85097000Y-66286095D01*
X85144619Y-66333714D01*
X85239857Y-66381333D01*
X85382714Y-66381333D01*
X85477952Y-66333714D01*
X85525571Y-66286095D01*
X85573190Y-66190857D01*
X85573190Y-65809904D01*
X85144619Y-66762285D02*
X85097000Y-66809904D01*
X85049380Y-66905142D01*
X85049380Y-67143238D01*
X85097000Y-67238476D01*
X85144619Y-67286095D01*
X85239857Y-67333714D01*
X85335095Y-67333714D01*
X85477952Y-67286095D01*
X86049380Y-66714666D01*
X86049380Y-67333714D01*
X90877380Y-66508333D02*
X90401190Y-66175000D01*
X90877380Y-65936904D02*
X89877380Y-65936904D01*
X89877380Y-66317857D01*
X89925000Y-66413095D01*
X89972619Y-66460714D01*
X90067857Y-66508333D01*
X90210714Y-66508333D01*
X90305952Y-66460714D01*
X90353571Y-66413095D01*
X90401190Y-66317857D01*
X90401190Y-65936904D01*
X90877380Y-67460714D02*
X90877380Y-66889285D01*
X90877380Y-67175000D02*
X89877380Y-67175000D01*
X90020238Y-67079761D01*
X90115476Y-66984523D01*
X90163095Y-66889285D01*
X79980571Y-70786666D02*
X79980571Y-70453333D01*
X80504380Y-70453333D02*
X79504380Y-70453333D01*
X79504380Y-70929523D01*
X80504380Y-71834285D02*
X80504380Y-71262857D01*
X80504380Y-71548571D02*
X79504380Y-71548571D01*
X79647238Y-71453333D01*
X79742476Y-71358095D01*
X79790095Y-71262857D01*
X158027380Y-83399404D02*
X157027380Y-83399404D01*
X157027380Y-83637500D01*
X157075000Y-83780357D01*
X157170238Y-83875595D01*
X157265476Y-83923214D01*
X157455952Y-83970833D01*
X157598809Y-83970833D01*
X157789285Y-83923214D01*
X157884523Y-83875595D01*
X157979761Y-83780357D01*
X158027380Y-83637500D01*
X158027380Y-83399404D01*
X157360714Y-84827976D02*
X158027380Y-84827976D01*
X156979761Y-84589880D02*
X157694047Y-84351785D01*
X157694047Y-84970833D01*
X138977380Y-83399404D02*
X137977380Y-83399404D01*
X137977380Y-83637500D01*
X138025000Y-83780357D01*
X138120238Y-83875595D01*
X138215476Y-83923214D01*
X138405952Y-83970833D01*
X138548809Y-83970833D01*
X138739285Y-83923214D01*
X138834523Y-83875595D01*
X138929761Y-83780357D01*
X138977380Y-83637500D01*
X138977380Y-83399404D01*
X137977380Y-84304166D02*
X137977380Y-84923214D01*
X138358333Y-84589880D01*
X138358333Y-84732738D01*
X138405952Y-84827976D01*
X138453571Y-84875595D01*
X138548809Y-84923214D01*
X138786904Y-84923214D01*
X138882142Y-84875595D01*
X138929761Y-84827976D01*
X138977380Y-84732738D01*
X138977380Y-84447023D01*
X138929761Y-84351785D01*
X138882142Y-84304166D01*
X158027380Y-64349404D02*
X157027380Y-64349404D01*
X157027380Y-64587500D01*
X157075000Y-64730357D01*
X157170238Y-64825595D01*
X157265476Y-64873214D01*
X157455952Y-64920833D01*
X157598809Y-64920833D01*
X157789285Y-64873214D01*
X157884523Y-64825595D01*
X157979761Y-64730357D01*
X158027380Y-64587500D01*
X158027380Y-64349404D01*
X157122619Y-65301785D02*
X157075000Y-65349404D01*
X157027380Y-65444642D01*
X157027380Y-65682738D01*
X157075000Y-65777976D01*
X157122619Y-65825595D01*
X157217857Y-65873214D01*
X157313095Y-65873214D01*
X157455952Y-65825595D01*
X158027380Y-65254166D01*
X158027380Y-65873214D01*
X138977380Y-64349404D02*
X137977380Y-64349404D01*
X137977380Y-64587500D01*
X138025000Y-64730357D01*
X138120238Y-64825595D01*
X138215476Y-64873214D01*
X138405952Y-64920833D01*
X138548809Y-64920833D01*
X138739285Y-64873214D01*
X138834523Y-64825595D01*
X138929761Y-64730357D01*
X138977380Y-64587500D01*
X138977380Y-64349404D01*
X138977380Y-65873214D02*
X138977380Y-65301785D01*
X138977380Y-65587500D02*
X137977380Y-65587500D01*
X138120238Y-65492261D01*
X138215476Y-65397023D01*
X138263095Y-65301785D01*
X95098142Y-79970333D02*
X95145761Y-79922714D01*
X95193380Y-79779857D01*
X95193380Y-79684619D01*
X95145761Y-79541761D01*
X95050523Y-79446523D01*
X94955285Y-79398904D01*
X94764809Y-79351285D01*
X94621952Y-79351285D01*
X94431476Y-79398904D01*
X94336238Y-79446523D01*
X94241000Y-79541761D01*
X94193380Y-79684619D01*
X94193380Y-79779857D01*
X94241000Y-79922714D01*
X94288619Y-79970333D01*
X94193380Y-80303666D02*
X94193380Y-80970333D01*
X95193380Y-80541761D01*
X107322916Y-86938392D02*
X107370535Y-86986011D01*
X107513392Y-87033630D01*
X107608630Y-87033630D01*
X107751488Y-86986011D01*
X107846726Y-86890773D01*
X107894345Y-86795535D01*
X107941964Y-86605059D01*
X107941964Y-86462202D01*
X107894345Y-86271726D01*
X107846726Y-86176488D01*
X107751488Y-86081250D01*
X107608630Y-86033630D01*
X107513392Y-86033630D01*
X107370535Y-86081250D01*
X107322916Y-86128869D01*
X106465773Y-86033630D02*
X106656250Y-86033630D01*
X106751488Y-86081250D01*
X106799107Y-86128869D01*
X106894345Y-86271726D01*
X106941964Y-86462202D01*
X106941964Y-86843154D01*
X106894345Y-86938392D01*
X106846726Y-86986011D01*
X106751488Y-87033630D01*
X106561011Y-87033630D01*
X106465773Y-86986011D01*
X106418154Y-86938392D01*
X106370535Y-86843154D01*
X106370535Y-86605059D01*
X106418154Y-86509821D01*
X106465773Y-86462202D01*
X106561011Y-86414583D01*
X106751488Y-86414583D01*
X106846726Y-86462202D01*
X106894345Y-86509821D01*
X106941964Y-86605059D01*
X111419642Y-70477083D02*
X111467261Y-70429464D01*
X111514880Y-70286607D01*
X111514880Y-70191369D01*
X111467261Y-70048511D01*
X111372023Y-69953273D01*
X111276785Y-69905654D01*
X111086309Y-69858035D01*
X110943452Y-69858035D01*
X110752976Y-69905654D01*
X110657738Y-69953273D01*
X110562500Y-70048511D01*
X110514880Y-70191369D01*
X110514880Y-70286607D01*
X110562500Y-70429464D01*
X110610119Y-70477083D01*
X110514880Y-71381845D02*
X110514880Y-70905654D01*
X110991071Y-70858035D01*
X110943452Y-70905654D01*
X110895833Y-71000892D01*
X110895833Y-71238988D01*
X110943452Y-71334226D01*
X110991071Y-71381845D01*
X111086309Y-71429464D01*
X111324404Y-71429464D01*
X111419642Y-71381845D01*
X111467261Y-71334226D01*
X111514880Y-71238988D01*
X111514880Y-71000892D01*
X111467261Y-70905654D01*
X111419642Y-70858035D01*
X97257142Y-66508333D02*
X97304761Y-66460714D01*
X97352380Y-66317857D01*
X97352380Y-66222619D01*
X97304761Y-66079761D01*
X97209523Y-65984523D01*
X97114285Y-65936904D01*
X96923809Y-65889285D01*
X96780952Y-65889285D01*
X96590476Y-65936904D01*
X96495238Y-65984523D01*
X96400000Y-66079761D01*
X96352380Y-66222619D01*
X96352380Y-66317857D01*
X96400000Y-66460714D01*
X96447619Y-66508333D01*
X96685714Y-67365476D02*
X97352380Y-67365476D01*
X96304761Y-67127380D02*
X97019047Y-66889285D01*
X97019047Y-67508333D01*
X93003666Y-73510142D02*
X93051285Y-73557761D01*
X93194142Y-73605380D01*
X93289380Y-73605380D01*
X93432238Y-73557761D01*
X93527476Y-73462523D01*
X93575095Y-73367285D01*
X93622714Y-73176809D01*
X93622714Y-73033952D01*
X93575095Y-72843476D01*
X93527476Y-72748238D01*
X93432238Y-72653000D01*
X93289380Y-72605380D01*
X93194142Y-72605380D01*
X93051285Y-72653000D01*
X93003666Y-72700619D01*
X92670333Y-72605380D02*
X92051285Y-72605380D01*
X92384619Y-72986333D01*
X92241761Y-72986333D01*
X92146523Y-73033952D01*
X92098904Y-73081571D01*
X92051285Y-73176809D01*
X92051285Y-73414904D01*
X92098904Y-73510142D01*
X92146523Y-73557761D01*
X92241761Y-73605380D01*
X92527476Y-73605380D01*
X92622714Y-73557761D01*
X92670333Y-73510142D01*
X97132142Y-61745833D02*
X97179761Y-61698214D01*
X97227380Y-61555357D01*
X97227380Y-61460119D01*
X97179761Y-61317261D01*
X97084523Y-61222023D01*
X96989285Y-61174404D01*
X96798809Y-61126785D01*
X96655952Y-61126785D01*
X96465476Y-61174404D01*
X96370238Y-61222023D01*
X96275000Y-61317261D01*
X96227380Y-61460119D01*
X96227380Y-61555357D01*
X96275000Y-61698214D01*
X96322619Y-61745833D01*
X96322619Y-62126785D02*
X96275000Y-62174404D01*
X96227380Y-62269642D01*
X96227380Y-62507738D01*
X96275000Y-62602976D01*
X96322619Y-62650595D01*
X96417857Y-62698214D01*
X96513095Y-62698214D01*
X96655952Y-62650595D01*
X97227380Y-62079166D01*
X97227380Y-62698214D01*
X109957142Y-61745833D02*
X110004761Y-61698214D01*
X110052380Y-61555357D01*
X110052380Y-61460119D01*
X110004761Y-61317261D01*
X109909523Y-61222023D01*
X109814285Y-61174404D01*
X109623809Y-61126785D01*
X109480952Y-61126785D01*
X109290476Y-61174404D01*
X109195238Y-61222023D01*
X109100000Y-61317261D01*
X109052380Y-61460119D01*
X109052380Y-61555357D01*
X109100000Y-61698214D01*
X109147619Y-61745833D01*
X110052380Y-62698214D02*
X110052380Y-62126785D01*
X110052380Y-62412500D02*
X109052380Y-62412500D01*
X109195238Y-62317261D01*
X109290476Y-62222023D01*
X109338095Y-62126785D01*
%LPC*%
D12*
X79154000Y-54864000D03*
X86454000Y-54864000D03*
X86454000Y-59364000D03*
X79154000Y-59364000D03*
D13*
X81204000Y-59364000D03*
X82004000Y-59364000D03*
X82804000Y-59364000D03*
X83604000Y-59364000D03*
X84404000Y-59364000D03*
D14*
X104287500Y-61062500D03*
X102087500Y-61062500D03*
X102087500Y-62762500D03*
X104287500Y-62762500D03*
D15*
X99187500Y-81106250D03*
X99987500Y-81106250D03*
X100787500Y-81106250D03*
X101587500Y-81106250D03*
X102387500Y-81106250D03*
X103187500Y-81106250D03*
X103987500Y-81106250D03*
X104787500Y-81106250D03*
X105587500Y-81106250D03*
X106387500Y-81106250D03*
X107187500Y-81106250D03*
D16*
X108887500Y-79406250D03*
X108887500Y-78606250D03*
X108887500Y-77806250D03*
X108887500Y-77006250D03*
X108887500Y-76206250D03*
X108887500Y-75406250D03*
X108887500Y-74606250D03*
X108887500Y-73806250D03*
X108887500Y-73006250D03*
X108887500Y-72206250D03*
X108887500Y-71406250D03*
D15*
X107187500Y-69706250D03*
X106387500Y-69706250D03*
X105587500Y-69706250D03*
X104787500Y-69706250D03*
X103987500Y-69706250D03*
X103187500Y-69706250D03*
X102387500Y-69706250D03*
X101587500Y-69706250D03*
X100787500Y-69706250D03*
X99987500Y-69706250D03*
X99187500Y-69706250D03*
D16*
X97487500Y-71406250D03*
X97487500Y-72206250D03*
X97487500Y-73006250D03*
X97487500Y-73806250D03*
X97487500Y-74606250D03*
X97487500Y-75406250D03*
X97487500Y-76206250D03*
X97487500Y-77006250D03*
X97487500Y-77806250D03*
X97487500Y-78606250D03*
X97487500Y-79406250D03*
D17*
X79704000Y-92782000D03*
X85904000Y-89082000D03*
X79704000Y-89082000D03*
X85904000Y-92782000D03*
D18*
G36*
X113220641Y-79487797D02*
G01*
X113246778Y-79491674D01*
X113272409Y-79498094D01*
X113297288Y-79506995D01*
X113321174Y-79518293D01*
X113343837Y-79531877D01*
X113365060Y-79547617D01*
X113384639Y-79565361D01*
X113402383Y-79584940D01*
X113418123Y-79606163D01*
X113431707Y-79628826D01*
X113443005Y-79652712D01*
X113451906Y-79677591D01*
X113458326Y-79703222D01*
X113462203Y-79729359D01*
X113463500Y-79755750D01*
X113463500Y-80294250D01*
X113462203Y-80320641D01*
X113458326Y-80346778D01*
X113451906Y-80372409D01*
X113443005Y-80397288D01*
X113431707Y-80421174D01*
X113418123Y-80443837D01*
X113402383Y-80465060D01*
X113384639Y-80484639D01*
X113365060Y-80502383D01*
X113343837Y-80518123D01*
X113321174Y-80531707D01*
X113297288Y-80543005D01*
X113272409Y-80551906D01*
X113246778Y-80558326D01*
X113220641Y-80562203D01*
X113194250Y-80563500D01*
X112230750Y-80563500D01*
X112204359Y-80562203D01*
X112178222Y-80558326D01*
X112152591Y-80551906D01*
X112127712Y-80543005D01*
X112103826Y-80531707D01*
X112081163Y-80518123D01*
X112059940Y-80502383D01*
X112040361Y-80484639D01*
X112022617Y-80465060D01*
X112006877Y-80443837D01*
X111993293Y-80421174D01*
X111981995Y-80397288D01*
X111973094Y-80372409D01*
X111966674Y-80346778D01*
X111962797Y-80320641D01*
X111961500Y-80294250D01*
X111961500Y-79755750D01*
X111962797Y-79729359D01*
X111966674Y-79703222D01*
X111973094Y-79677591D01*
X111981995Y-79652712D01*
X111993293Y-79628826D01*
X112006877Y-79606163D01*
X112022617Y-79584940D01*
X112040361Y-79565361D01*
X112059940Y-79547617D01*
X112081163Y-79531877D01*
X112103826Y-79518293D01*
X112127712Y-79506995D01*
X112152591Y-79498094D01*
X112178222Y-79491674D01*
X112204359Y-79487797D01*
X112230750Y-79486500D01*
X113194250Y-79486500D01*
X113220641Y-79487797D01*
G37*
G36*
X113220641Y-81362797D02*
G01*
X113246778Y-81366674D01*
X113272409Y-81373094D01*
X113297288Y-81381995D01*
X113321174Y-81393293D01*
X113343837Y-81406877D01*
X113365060Y-81422617D01*
X113384639Y-81440361D01*
X113402383Y-81459940D01*
X113418123Y-81481163D01*
X113431707Y-81503826D01*
X113443005Y-81527712D01*
X113451906Y-81552591D01*
X113458326Y-81578222D01*
X113462203Y-81604359D01*
X113463500Y-81630750D01*
X113463500Y-82169250D01*
X113462203Y-82195641D01*
X113458326Y-82221778D01*
X113451906Y-82247409D01*
X113443005Y-82272288D01*
X113431707Y-82296174D01*
X113418123Y-82318837D01*
X113402383Y-82340060D01*
X113384639Y-82359639D01*
X113365060Y-82377383D01*
X113343837Y-82393123D01*
X113321174Y-82406707D01*
X113297288Y-82418005D01*
X113272409Y-82426906D01*
X113246778Y-82433326D01*
X113220641Y-82437203D01*
X113194250Y-82438500D01*
X112230750Y-82438500D01*
X112204359Y-82437203D01*
X112178222Y-82433326D01*
X112152591Y-82426906D01*
X112127712Y-82418005D01*
X112103826Y-82406707D01*
X112081163Y-82393123D01*
X112059940Y-82377383D01*
X112040361Y-82359639D01*
X112022617Y-82340060D01*
X112006877Y-82318837D01*
X111993293Y-82296174D01*
X111981995Y-82272288D01*
X111973094Y-82247409D01*
X111966674Y-82221778D01*
X111962797Y-82195641D01*
X111961500Y-82169250D01*
X111961500Y-81630750D01*
X111962797Y-81604359D01*
X111966674Y-81578222D01*
X111973094Y-81552591D01*
X111981995Y-81527712D01*
X111993293Y-81503826D01*
X112006877Y-81481163D01*
X112022617Y-81459940D01*
X112040361Y-81440361D01*
X112059940Y-81422617D01*
X112081163Y-81406877D01*
X112103826Y-81393293D01*
X112127712Y-81381995D01*
X112152591Y-81373094D01*
X112178222Y-81366674D01*
X112204359Y-81362797D01*
X112230750Y-81361500D01*
X113194250Y-81361500D01*
X113220641Y-81362797D01*
G37*
G36*
X81788141Y-65073297D02*
G01*
X81814278Y-65077174D01*
X81839909Y-65083594D01*
X81864788Y-65092495D01*
X81888674Y-65103793D01*
X81911337Y-65117377D01*
X81932560Y-65133117D01*
X81952139Y-65150861D01*
X81969883Y-65170440D01*
X81985623Y-65191663D01*
X81999207Y-65214326D01*
X82010505Y-65238212D01*
X82019406Y-65263091D01*
X82025826Y-65288722D01*
X82029703Y-65314859D01*
X82031000Y-65341250D01*
X82031000Y-65879750D01*
X82029703Y-65906141D01*
X82025826Y-65932278D01*
X82019406Y-65957909D01*
X82010505Y-65982788D01*
X81999207Y-66006674D01*
X81985623Y-66029337D01*
X81969883Y-66050560D01*
X81952139Y-66070139D01*
X81932560Y-66087883D01*
X81911337Y-66103623D01*
X81888674Y-66117207D01*
X81864788Y-66128505D01*
X81839909Y-66137406D01*
X81814278Y-66143826D01*
X81788141Y-66147703D01*
X81761750Y-66149000D01*
X80798250Y-66149000D01*
X80771859Y-66147703D01*
X80745722Y-66143826D01*
X80720091Y-66137406D01*
X80695212Y-66128505D01*
X80671326Y-66117207D01*
X80648663Y-66103623D01*
X80627440Y-66087883D01*
X80607861Y-66070139D01*
X80590117Y-66050560D01*
X80574377Y-66029337D01*
X80560793Y-66006674D01*
X80549495Y-65982788D01*
X80540594Y-65957909D01*
X80534174Y-65932278D01*
X80530297Y-65906141D01*
X80529000Y-65879750D01*
X80529000Y-65341250D01*
X80530297Y-65314859D01*
X80534174Y-65288722D01*
X80540594Y-65263091D01*
X80549495Y-65238212D01*
X80560793Y-65214326D01*
X80574377Y-65191663D01*
X80590117Y-65170440D01*
X80607861Y-65150861D01*
X80627440Y-65133117D01*
X80648663Y-65117377D01*
X80671326Y-65103793D01*
X80695212Y-65092495D01*
X80720091Y-65083594D01*
X80745722Y-65077174D01*
X80771859Y-65073297D01*
X80798250Y-65072000D01*
X81761750Y-65072000D01*
X81788141Y-65073297D01*
G37*
G36*
X81788141Y-66948297D02*
G01*
X81814278Y-66952174D01*
X81839909Y-66958594D01*
X81864788Y-66967495D01*
X81888674Y-66978793D01*
X81911337Y-66992377D01*
X81932560Y-67008117D01*
X81952139Y-67025861D01*
X81969883Y-67045440D01*
X81985623Y-67066663D01*
X81999207Y-67089326D01*
X82010505Y-67113212D01*
X82019406Y-67138091D01*
X82025826Y-67163722D01*
X82029703Y-67189859D01*
X82031000Y-67216250D01*
X82031000Y-67754750D01*
X82029703Y-67781141D01*
X82025826Y-67807278D01*
X82019406Y-67832909D01*
X82010505Y-67857788D01*
X81999207Y-67881674D01*
X81985623Y-67904337D01*
X81969883Y-67925560D01*
X81952139Y-67945139D01*
X81932560Y-67962883D01*
X81911337Y-67978623D01*
X81888674Y-67992207D01*
X81864788Y-68003505D01*
X81839909Y-68012406D01*
X81814278Y-68018826D01*
X81788141Y-68022703D01*
X81761750Y-68024000D01*
X80798250Y-68024000D01*
X80771859Y-68022703D01*
X80745722Y-68018826D01*
X80720091Y-68012406D01*
X80695212Y-68003505D01*
X80671326Y-67992207D01*
X80648663Y-67978623D01*
X80627440Y-67962883D01*
X80607861Y-67945139D01*
X80590117Y-67925560D01*
X80574377Y-67904337D01*
X80560793Y-67881674D01*
X80549495Y-67857788D01*
X80540594Y-67832909D01*
X80534174Y-67807278D01*
X80530297Y-67781141D01*
X80529000Y-67754750D01*
X80529000Y-67216250D01*
X80530297Y-67189859D01*
X80534174Y-67163722D01*
X80540594Y-67138091D01*
X80549495Y-67113212D01*
X80560793Y-67089326D01*
X80574377Y-67066663D01*
X80590117Y-67045440D01*
X80607861Y-67025861D01*
X80627440Y-67008117D01*
X80648663Y-66992377D01*
X80671326Y-66978793D01*
X80695212Y-66967495D01*
X80720091Y-66958594D01*
X80745722Y-66952174D01*
X80771859Y-66948297D01*
X80798250Y-66947000D01*
X81761750Y-66947000D01*
X81788141Y-66948297D01*
G37*
G36*
X84455141Y-65073297D02*
G01*
X84481278Y-65077174D01*
X84506909Y-65083594D01*
X84531788Y-65092495D01*
X84555674Y-65103793D01*
X84578337Y-65117377D01*
X84599560Y-65133117D01*
X84619139Y-65150861D01*
X84636883Y-65170440D01*
X84652623Y-65191663D01*
X84666207Y-65214326D01*
X84677505Y-65238212D01*
X84686406Y-65263091D01*
X84692826Y-65288722D01*
X84696703Y-65314859D01*
X84698000Y-65341250D01*
X84698000Y-65879750D01*
X84696703Y-65906141D01*
X84692826Y-65932278D01*
X84686406Y-65957909D01*
X84677505Y-65982788D01*
X84666207Y-66006674D01*
X84652623Y-66029337D01*
X84636883Y-66050560D01*
X84619139Y-66070139D01*
X84599560Y-66087883D01*
X84578337Y-66103623D01*
X84555674Y-66117207D01*
X84531788Y-66128505D01*
X84506909Y-66137406D01*
X84481278Y-66143826D01*
X84455141Y-66147703D01*
X84428750Y-66149000D01*
X83465250Y-66149000D01*
X83438859Y-66147703D01*
X83412722Y-66143826D01*
X83387091Y-66137406D01*
X83362212Y-66128505D01*
X83338326Y-66117207D01*
X83315663Y-66103623D01*
X83294440Y-66087883D01*
X83274861Y-66070139D01*
X83257117Y-66050560D01*
X83241377Y-66029337D01*
X83227793Y-66006674D01*
X83216495Y-65982788D01*
X83207594Y-65957909D01*
X83201174Y-65932278D01*
X83197297Y-65906141D01*
X83196000Y-65879750D01*
X83196000Y-65341250D01*
X83197297Y-65314859D01*
X83201174Y-65288722D01*
X83207594Y-65263091D01*
X83216495Y-65238212D01*
X83227793Y-65214326D01*
X83241377Y-65191663D01*
X83257117Y-65170440D01*
X83274861Y-65150861D01*
X83294440Y-65133117D01*
X83315663Y-65117377D01*
X83338326Y-65103793D01*
X83362212Y-65092495D01*
X83387091Y-65083594D01*
X83412722Y-65077174D01*
X83438859Y-65073297D01*
X83465250Y-65072000D01*
X84428750Y-65072000D01*
X84455141Y-65073297D01*
G37*
G36*
X84455141Y-66948297D02*
G01*
X84481278Y-66952174D01*
X84506909Y-66958594D01*
X84531788Y-66967495D01*
X84555674Y-66978793D01*
X84578337Y-66992377D01*
X84599560Y-67008117D01*
X84619139Y-67025861D01*
X84636883Y-67045440D01*
X84652623Y-67066663D01*
X84666207Y-67089326D01*
X84677505Y-67113212D01*
X84686406Y-67138091D01*
X84692826Y-67163722D01*
X84696703Y-67189859D01*
X84698000Y-67216250D01*
X84698000Y-67754750D01*
X84696703Y-67781141D01*
X84692826Y-67807278D01*
X84686406Y-67832909D01*
X84677505Y-67857788D01*
X84666207Y-67881674D01*
X84652623Y-67904337D01*
X84636883Y-67925560D01*
X84619139Y-67945139D01*
X84599560Y-67962883D01*
X84578337Y-67978623D01*
X84555674Y-67992207D01*
X84531788Y-68003505D01*
X84506909Y-68012406D01*
X84481278Y-68018826D01*
X84455141Y-68022703D01*
X84428750Y-68024000D01*
X83465250Y-68024000D01*
X83438859Y-68022703D01*
X83412722Y-68018826D01*
X83387091Y-68012406D01*
X83362212Y-68003505D01*
X83338326Y-67992207D01*
X83315663Y-67978623D01*
X83294440Y-67962883D01*
X83274861Y-67945139D01*
X83257117Y-67925560D01*
X83241377Y-67904337D01*
X83227793Y-67881674D01*
X83216495Y-67857788D01*
X83207594Y-67832909D01*
X83201174Y-67807278D01*
X83197297Y-67781141D01*
X83196000Y-67754750D01*
X83196000Y-67216250D01*
X83197297Y-67189859D01*
X83201174Y-67163722D01*
X83207594Y-67138091D01*
X83216495Y-67113212D01*
X83227793Y-67089326D01*
X83241377Y-67066663D01*
X83257117Y-67045440D01*
X83274861Y-67025861D01*
X83294440Y-67008117D01*
X83315663Y-66992377D01*
X83338326Y-66978793D01*
X83362212Y-66967495D01*
X83387091Y-66958594D01*
X83412722Y-66952174D01*
X83438859Y-66948297D01*
X83465250Y-66947000D01*
X84428750Y-66947000D01*
X84455141Y-66948297D01*
G37*
G36*
X92583141Y-67075297D02*
G01*
X92609278Y-67079174D01*
X92634909Y-67085594D01*
X92659788Y-67094495D01*
X92683674Y-67105793D01*
X92706337Y-67119377D01*
X92727560Y-67135117D01*
X92747139Y-67152861D01*
X92764883Y-67172440D01*
X92780623Y-67193663D01*
X92794207Y-67216326D01*
X92805505Y-67240212D01*
X92814406Y-67265091D01*
X92820826Y-67290722D01*
X92824703Y-67316859D01*
X92826000Y-67343250D01*
X92826000Y-67881750D01*
X92824703Y-67908141D01*
X92820826Y-67934278D01*
X92814406Y-67959909D01*
X92805505Y-67984788D01*
X92794207Y-68008674D01*
X92780623Y-68031337D01*
X92764883Y-68052560D01*
X92747139Y-68072139D01*
X92727560Y-68089883D01*
X92706337Y-68105623D01*
X92683674Y-68119207D01*
X92659788Y-68130505D01*
X92634909Y-68139406D01*
X92609278Y-68145826D01*
X92583141Y-68149703D01*
X92556750Y-68151000D01*
X91593250Y-68151000D01*
X91566859Y-68149703D01*
X91540722Y-68145826D01*
X91515091Y-68139406D01*
X91490212Y-68130505D01*
X91466326Y-68119207D01*
X91443663Y-68105623D01*
X91422440Y-68089883D01*
X91402861Y-68072139D01*
X91385117Y-68052560D01*
X91369377Y-68031337D01*
X91355793Y-68008674D01*
X91344495Y-67984788D01*
X91335594Y-67959909D01*
X91329174Y-67934278D01*
X91325297Y-67908141D01*
X91324000Y-67881750D01*
X91324000Y-67343250D01*
X91325297Y-67316859D01*
X91329174Y-67290722D01*
X91335594Y-67265091D01*
X91344495Y-67240212D01*
X91355793Y-67216326D01*
X91369377Y-67193663D01*
X91385117Y-67172440D01*
X91402861Y-67152861D01*
X91422440Y-67135117D01*
X91443663Y-67119377D01*
X91466326Y-67105793D01*
X91490212Y-67094495D01*
X91515091Y-67085594D01*
X91540722Y-67079174D01*
X91566859Y-67075297D01*
X91593250Y-67074000D01*
X92556750Y-67074000D01*
X92583141Y-67075297D01*
G37*
G36*
X92583141Y-65200297D02*
G01*
X92609278Y-65204174D01*
X92634909Y-65210594D01*
X92659788Y-65219495D01*
X92683674Y-65230793D01*
X92706337Y-65244377D01*
X92727560Y-65260117D01*
X92747139Y-65277861D01*
X92764883Y-65297440D01*
X92780623Y-65318663D01*
X92794207Y-65341326D01*
X92805505Y-65365212D01*
X92814406Y-65390091D01*
X92820826Y-65415722D01*
X92824703Y-65441859D01*
X92826000Y-65468250D01*
X92826000Y-66006750D01*
X92824703Y-66033141D01*
X92820826Y-66059278D01*
X92814406Y-66084909D01*
X92805505Y-66109788D01*
X92794207Y-66133674D01*
X92780623Y-66156337D01*
X92764883Y-66177560D01*
X92747139Y-66197139D01*
X92727560Y-66214883D01*
X92706337Y-66230623D01*
X92683674Y-66244207D01*
X92659788Y-66255505D01*
X92634909Y-66264406D01*
X92609278Y-66270826D01*
X92583141Y-66274703D01*
X92556750Y-66276000D01*
X91593250Y-66276000D01*
X91566859Y-66274703D01*
X91540722Y-66270826D01*
X91515091Y-66264406D01*
X91490212Y-66255505D01*
X91466326Y-66244207D01*
X91443663Y-66230623D01*
X91422440Y-66214883D01*
X91402861Y-66197139D01*
X91385117Y-66177560D01*
X91369377Y-66156337D01*
X91355793Y-66133674D01*
X91344495Y-66109788D01*
X91335594Y-66084909D01*
X91329174Y-66059278D01*
X91325297Y-66033141D01*
X91324000Y-66006750D01*
X91324000Y-65468250D01*
X91325297Y-65441859D01*
X91329174Y-65415722D01*
X91335594Y-65390091D01*
X91344495Y-65365212D01*
X91355793Y-65341326D01*
X91369377Y-65318663D01*
X91385117Y-65297440D01*
X91402861Y-65277861D01*
X91422440Y-65260117D01*
X91443663Y-65244377D01*
X91466326Y-65230793D01*
X91490212Y-65219495D01*
X91515091Y-65210594D01*
X91540722Y-65204174D01*
X91566859Y-65200297D01*
X91593250Y-65199000D01*
X92556750Y-65199000D01*
X92583141Y-65200297D01*
G37*
D19*
X152717500Y-84137500D03*
X142557500Y-84137500D03*
D20*
X143827500Y-81597500D03*
D21*
X147637500Y-84137500D03*
D20*
X150177500Y-79057500D03*
D19*
X133667500Y-84137500D03*
X123507500Y-84137500D03*
D20*
X124777500Y-81597500D03*
D21*
X128587500Y-84137500D03*
D20*
X131127500Y-79057500D03*
D19*
X152717500Y-65087500D03*
X142557500Y-65087500D03*
D20*
X143827500Y-62547500D03*
D21*
X147637500Y-65087500D03*
D20*
X150177500Y-60007500D03*
D19*
X133667500Y-65087500D03*
X123507500Y-65087500D03*
D20*
X124777500Y-62547500D03*
D21*
X128587500Y-65087500D03*
D20*
X131127500Y-60007500D03*
D18*
G36*
X78914104Y-69045302D02*
G01*
X78940352Y-69049196D01*
X78966093Y-69055643D01*
X78991078Y-69064583D01*
X79015066Y-69075928D01*
X79037826Y-69089571D01*
X79059140Y-69105378D01*
X79078802Y-69123198D01*
X79096622Y-69142860D01*
X79112429Y-69164174D01*
X79126072Y-69186934D01*
X79137417Y-69210922D01*
X79146357Y-69235907D01*
X79152804Y-69261648D01*
X79156698Y-69287896D01*
X79158000Y-69314400D01*
X79158000Y-70125600D01*
X79156698Y-70152104D01*
X79152804Y-70178352D01*
X79146357Y-70204093D01*
X79137417Y-70229078D01*
X79126072Y-70253066D01*
X79112429Y-70275826D01*
X79096622Y-70297140D01*
X79078802Y-70316802D01*
X79059140Y-70334622D01*
X79037826Y-70350429D01*
X79015066Y-70364072D01*
X78991078Y-70375417D01*
X78966093Y-70384357D01*
X78940352Y-70390804D01*
X78914104Y-70394698D01*
X78887600Y-70396000D01*
X77576400Y-70396000D01*
X77549896Y-70394698D01*
X77523648Y-70390804D01*
X77497907Y-70384357D01*
X77472922Y-70375417D01*
X77448934Y-70364072D01*
X77426174Y-70350429D01*
X77404860Y-70334622D01*
X77385198Y-70316802D01*
X77367378Y-70297140D01*
X77351571Y-70275826D01*
X77337928Y-70253066D01*
X77326583Y-70229078D01*
X77317643Y-70204093D01*
X77311196Y-70178352D01*
X77307302Y-70152104D01*
X77306000Y-70125600D01*
X77306000Y-69314400D01*
X77307302Y-69287896D01*
X77311196Y-69261648D01*
X77317643Y-69235907D01*
X77326583Y-69210922D01*
X77337928Y-69186934D01*
X77351571Y-69164174D01*
X77367378Y-69142860D01*
X77385198Y-69123198D01*
X77404860Y-69105378D01*
X77426174Y-69089571D01*
X77448934Y-69075928D01*
X77472922Y-69064583D01*
X77497907Y-69055643D01*
X77523648Y-69049196D01*
X77549896Y-69045302D01*
X77576400Y-69044000D01*
X78887600Y-69044000D01*
X78914104Y-69045302D01*
G37*
G36*
X78914104Y-71845302D02*
G01*
X78940352Y-71849196D01*
X78966093Y-71855643D01*
X78991078Y-71864583D01*
X79015066Y-71875928D01*
X79037826Y-71889571D01*
X79059140Y-71905378D01*
X79078802Y-71923198D01*
X79096622Y-71942860D01*
X79112429Y-71964174D01*
X79126072Y-71986934D01*
X79137417Y-72010922D01*
X79146357Y-72035907D01*
X79152804Y-72061648D01*
X79156698Y-72087896D01*
X79158000Y-72114400D01*
X79158000Y-72925600D01*
X79156698Y-72952104D01*
X79152804Y-72978352D01*
X79146357Y-73004093D01*
X79137417Y-73029078D01*
X79126072Y-73053066D01*
X79112429Y-73075826D01*
X79096622Y-73097140D01*
X79078802Y-73116802D01*
X79059140Y-73134622D01*
X79037826Y-73150429D01*
X79015066Y-73164072D01*
X78991078Y-73175417D01*
X78966093Y-73184357D01*
X78940352Y-73190804D01*
X78914104Y-73194698D01*
X78887600Y-73196000D01*
X77576400Y-73196000D01*
X77549896Y-73194698D01*
X77523648Y-73190804D01*
X77497907Y-73184357D01*
X77472922Y-73175417D01*
X77448934Y-73164072D01*
X77426174Y-73150429D01*
X77404860Y-73134622D01*
X77385198Y-73116802D01*
X77367378Y-73097140D01*
X77351571Y-73075826D01*
X77337928Y-73053066D01*
X77326583Y-73029078D01*
X77317643Y-73004093D01*
X77311196Y-72978352D01*
X77307302Y-72952104D01*
X77306000Y-72925600D01*
X77306000Y-72114400D01*
X77307302Y-72087896D01*
X77311196Y-72061648D01*
X77317643Y-72035907D01*
X77326583Y-72010922D01*
X77337928Y-71986934D01*
X77351571Y-71964174D01*
X77367378Y-71942860D01*
X77385198Y-71923198D01*
X77404860Y-71905378D01*
X77426174Y-71889571D01*
X77448934Y-71875928D01*
X77472922Y-71864583D01*
X77497907Y-71855643D01*
X77523648Y-71849196D01*
X77549896Y-71845302D01*
X77576400Y-71844000D01*
X78887600Y-71844000D01*
X78914104Y-71845302D01*
G37*
D22*
X155575000Y-82487500D03*
X155575000Y-85787500D03*
X136525000Y-82487500D03*
X136525000Y-85787500D03*
X155575000Y-63437500D03*
X155575000Y-66737500D03*
X136525000Y-63437500D03*
X136525000Y-66737500D03*
D18*
G36*
X93599141Y-78662297D02*
G01*
X93625278Y-78666174D01*
X93650909Y-78672594D01*
X93675788Y-78681495D01*
X93699674Y-78692793D01*
X93722337Y-78706377D01*
X93743560Y-78722117D01*
X93763139Y-78739861D01*
X93780883Y-78759440D01*
X93796623Y-78780663D01*
X93810207Y-78803326D01*
X93821505Y-78827212D01*
X93830406Y-78852091D01*
X93836826Y-78877722D01*
X93840703Y-78903859D01*
X93842000Y-78930250D01*
X93842000Y-79468750D01*
X93840703Y-79495141D01*
X93836826Y-79521278D01*
X93830406Y-79546909D01*
X93821505Y-79571788D01*
X93810207Y-79595674D01*
X93796623Y-79618337D01*
X93780883Y-79639560D01*
X93763139Y-79659139D01*
X93743560Y-79676883D01*
X93722337Y-79692623D01*
X93699674Y-79706207D01*
X93675788Y-79717505D01*
X93650909Y-79726406D01*
X93625278Y-79732826D01*
X93599141Y-79736703D01*
X93572750Y-79738000D01*
X92609250Y-79738000D01*
X92582859Y-79736703D01*
X92556722Y-79732826D01*
X92531091Y-79726406D01*
X92506212Y-79717505D01*
X92482326Y-79706207D01*
X92459663Y-79692623D01*
X92438440Y-79676883D01*
X92418861Y-79659139D01*
X92401117Y-79639560D01*
X92385377Y-79618337D01*
X92371793Y-79595674D01*
X92360495Y-79571788D01*
X92351594Y-79546909D01*
X92345174Y-79521278D01*
X92341297Y-79495141D01*
X92340000Y-79468750D01*
X92340000Y-78930250D01*
X92341297Y-78903859D01*
X92345174Y-78877722D01*
X92351594Y-78852091D01*
X92360495Y-78827212D01*
X92371793Y-78803326D01*
X92385377Y-78780663D01*
X92401117Y-78759440D01*
X92418861Y-78739861D01*
X92438440Y-78722117D01*
X92459663Y-78706377D01*
X92482326Y-78692793D01*
X92506212Y-78681495D01*
X92531091Y-78672594D01*
X92556722Y-78666174D01*
X92582859Y-78662297D01*
X92609250Y-78661000D01*
X93572750Y-78661000D01*
X93599141Y-78662297D01*
G37*
G36*
X93599141Y-80537297D02*
G01*
X93625278Y-80541174D01*
X93650909Y-80547594D01*
X93675788Y-80556495D01*
X93699674Y-80567793D01*
X93722337Y-80581377D01*
X93743560Y-80597117D01*
X93763139Y-80614861D01*
X93780883Y-80634440D01*
X93796623Y-80655663D01*
X93810207Y-80678326D01*
X93821505Y-80702212D01*
X93830406Y-80727091D01*
X93836826Y-80752722D01*
X93840703Y-80778859D01*
X93842000Y-80805250D01*
X93842000Y-81343750D01*
X93840703Y-81370141D01*
X93836826Y-81396278D01*
X93830406Y-81421909D01*
X93821505Y-81446788D01*
X93810207Y-81470674D01*
X93796623Y-81493337D01*
X93780883Y-81514560D01*
X93763139Y-81534139D01*
X93743560Y-81551883D01*
X93722337Y-81567623D01*
X93699674Y-81581207D01*
X93675788Y-81592505D01*
X93650909Y-81601406D01*
X93625278Y-81607826D01*
X93599141Y-81611703D01*
X93572750Y-81613000D01*
X92609250Y-81613000D01*
X92582859Y-81611703D01*
X92556722Y-81607826D01*
X92531091Y-81601406D01*
X92506212Y-81592505D01*
X92482326Y-81581207D01*
X92459663Y-81567623D01*
X92438440Y-81551883D01*
X92418861Y-81534139D01*
X92401117Y-81514560D01*
X92385377Y-81493337D01*
X92371793Y-81470674D01*
X92360495Y-81446788D01*
X92351594Y-81421909D01*
X92345174Y-81396278D01*
X92341297Y-81370141D01*
X92340000Y-81343750D01*
X92340000Y-80805250D01*
X92341297Y-80778859D01*
X92345174Y-80752722D01*
X92351594Y-80727091D01*
X92360495Y-80702212D01*
X92371793Y-80678326D01*
X92385377Y-80655663D01*
X92401117Y-80634440D01*
X92418861Y-80614861D01*
X92438440Y-80597117D01*
X92459663Y-80581377D01*
X92482326Y-80567793D01*
X92506212Y-80556495D01*
X92531091Y-80547594D01*
X92556722Y-80541174D01*
X92582859Y-80537297D01*
X92609250Y-80536000D01*
X93572750Y-80536000D01*
X93599141Y-80537297D01*
G37*
G36*
X108389391Y-84181547D02*
G01*
X108415528Y-84185424D01*
X108441159Y-84191844D01*
X108466038Y-84200745D01*
X108489924Y-84212043D01*
X108512587Y-84225627D01*
X108533810Y-84241367D01*
X108553389Y-84259111D01*
X108571133Y-84278690D01*
X108586873Y-84299913D01*
X108600457Y-84322576D01*
X108611755Y-84346462D01*
X108620656Y-84371341D01*
X108627076Y-84396972D01*
X108630953Y-84423109D01*
X108632250Y-84449500D01*
X108632250Y-85413000D01*
X108630953Y-85439391D01*
X108627076Y-85465528D01*
X108620656Y-85491159D01*
X108611755Y-85516038D01*
X108600457Y-85539924D01*
X108586873Y-85562587D01*
X108571133Y-85583810D01*
X108553389Y-85603389D01*
X108533810Y-85621133D01*
X108512587Y-85636873D01*
X108489924Y-85650457D01*
X108466038Y-85661755D01*
X108441159Y-85670656D01*
X108415528Y-85677076D01*
X108389391Y-85680953D01*
X108363000Y-85682250D01*
X107824500Y-85682250D01*
X107798109Y-85680953D01*
X107771972Y-85677076D01*
X107746341Y-85670656D01*
X107721462Y-85661755D01*
X107697576Y-85650457D01*
X107674913Y-85636873D01*
X107653690Y-85621133D01*
X107634111Y-85603389D01*
X107616367Y-85583810D01*
X107600627Y-85562587D01*
X107587043Y-85539924D01*
X107575745Y-85516038D01*
X107566844Y-85491159D01*
X107560424Y-85465528D01*
X107556547Y-85439391D01*
X107555250Y-85413000D01*
X107555250Y-84449500D01*
X107556547Y-84423109D01*
X107560424Y-84396972D01*
X107566844Y-84371341D01*
X107575745Y-84346462D01*
X107587043Y-84322576D01*
X107600627Y-84299913D01*
X107616367Y-84278690D01*
X107634111Y-84259111D01*
X107653690Y-84241367D01*
X107674913Y-84225627D01*
X107697576Y-84212043D01*
X107721462Y-84200745D01*
X107746341Y-84191844D01*
X107771972Y-84185424D01*
X107798109Y-84181547D01*
X107824500Y-84180250D01*
X108363000Y-84180250D01*
X108389391Y-84181547D01*
G37*
G36*
X106514391Y-84181547D02*
G01*
X106540528Y-84185424D01*
X106566159Y-84191844D01*
X106591038Y-84200745D01*
X106614924Y-84212043D01*
X106637587Y-84225627D01*
X106658810Y-84241367D01*
X106678389Y-84259111D01*
X106696133Y-84278690D01*
X106711873Y-84299913D01*
X106725457Y-84322576D01*
X106736755Y-84346462D01*
X106745656Y-84371341D01*
X106752076Y-84396972D01*
X106755953Y-84423109D01*
X106757250Y-84449500D01*
X106757250Y-85413000D01*
X106755953Y-85439391D01*
X106752076Y-85465528D01*
X106745656Y-85491159D01*
X106736755Y-85516038D01*
X106725457Y-85539924D01*
X106711873Y-85562587D01*
X106696133Y-85583810D01*
X106678389Y-85603389D01*
X106658810Y-85621133D01*
X106637587Y-85636873D01*
X106614924Y-85650457D01*
X106591038Y-85661755D01*
X106566159Y-85670656D01*
X106540528Y-85677076D01*
X106514391Y-85680953D01*
X106488000Y-85682250D01*
X105949500Y-85682250D01*
X105923109Y-85680953D01*
X105896972Y-85677076D01*
X105871341Y-85670656D01*
X105846462Y-85661755D01*
X105822576Y-85650457D01*
X105799913Y-85636873D01*
X105778690Y-85621133D01*
X105759111Y-85603389D01*
X105741367Y-85583810D01*
X105725627Y-85562587D01*
X105712043Y-85539924D01*
X105700745Y-85516038D01*
X105691844Y-85491159D01*
X105685424Y-85465528D01*
X105681547Y-85439391D01*
X105680250Y-85413000D01*
X105680250Y-84449500D01*
X105681547Y-84423109D01*
X105685424Y-84396972D01*
X105691844Y-84371341D01*
X105700745Y-84346462D01*
X105712043Y-84322576D01*
X105725627Y-84299913D01*
X105741367Y-84278690D01*
X105759111Y-84259111D01*
X105778690Y-84241367D01*
X105799913Y-84225627D01*
X105822576Y-84212043D01*
X105846462Y-84200745D01*
X105871341Y-84191844D01*
X105896972Y-84185424D01*
X105923109Y-84181547D01*
X105949500Y-84180250D01*
X106488000Y-84180250D01*
X106514391Y-84181547D01*
G37*
G36*
X113220641Y-71044047D02*
G01*
X113246778Y-71047924D01*
X113272409Y-71054344D01*
X113297288Y-71063245D01*
X113321174Y-71074543D01*
X113343837Y-71088127D01*
X113365060Y-71103867D01*
X113384639Y-71121611D01*
X113402383Y-71141190D01*
X113418123Y-71162413D01*
X113431707Y-71185076D01*
X113443005Y-71208962D01*
X113451906Y-71233841D01*
X113458326Y-71259472D01*
X113462203Y-71285609D01*
X113463500Y-71312000D01*
X113463500Y-71850500D01*
X113462203Y-71876891D01*
X113458326Y-71903028D01*
X113451906Y-71928659D01*
X113443005Y-71953538D01*
X113431707Y-71977424D01*
X113418123Y-72000087D01*
X113402383Y-72021310D01*
X113384639Y-72040889D01*
X113365060Y-72058633D01*
X113343837Y-72074373D01*
X113321174Y-72087957D01*
X113297288Y-72099255D01*
X113272409Y-72108156D01*
X113246778Y-72114576D01*
X113220641Y-72118453D01*
X113194250Y-72119750D01*
X112230750Y-72119750D01*
X112204359Y-72118453D01*
X112178222Y-72114576D01*
X112152591Y-72108156D01*
X112127712Y-72099255D01*
X112103826Y-72087957D01*
X112081163Y-72074373D01*
X112059940Y-72058633D01*
X112040361Y-72040889D01*
X112022617Y-72021310D01*
X112006877Y-72000087D01*
X111993293Y-71977424D01*
X111981995Y-71953538D01*
X111973094Y-71928659D01*
X111966674Y-71903028D01*
X111962797Y-71876891D01*
X111961500Y-71850500D01*
X111961500Y-71312000D01*
X111962797Y-71285609D01*
X111966674Y-71259472D01*
X111973094Y-71233841D01*
X111981995Y-71208962D01*
X111993293Y-71185076D01*
X112006877Y-71162413D01*
X112022617Y-71141190D01*
X112040361Y-71121611D01*
X112059940Y-71103867D01*
X112081163Y-71088127D01*
X112103826Y-71074543D01*
X112127712Y-71063245D01*
X112152591Y-71054344D01*
X112178222Y-71047924D01*
X112204359Y-71044047D01*
X112230750Y-71042750D01*
X113194250Y-71042750D01*
X113220641Y-71044047D01*
G37*
G36*
X113220641Y-69169047D02*
G01*
X113246778Y-69172924D01*
X113272409Y-69179344D01*
X113297288Y-69188245D01*
X113321174Y-69199543D01*
X113343837Y-69213127D01*
X113365060Y-69228867D01*
X113384639Y-69246611D01*
X113402383Y-69266190D01*
X113418123Y-69287413D01*
X113431707Y-69310076D01*
X113443005Y-69333962D01*
X113451906Y-69358841D01*
X113458326Y-69384472D01*
X113462203Y-69410609D01*
X113463500Y-69437000D01*
X113463500Y-69975500D01*
X113462203Y-70001891D01*
X113458326Y-70028028D01*
X113451906Y-70053659D01*
X113443005Y-70078538D01*
X113431707Y-70102424D01*
X113418123Y-70125087D01*
X113402383Y-70146310D01*
X113384639Y-70165889D01*
X113365060Y-70183633D01*
X113343837Y-70199373D01*
X113321174Y-70212957D01*
X113297288Y-70224255D01*
X113272409Y-70233156D01*
X113246778Y-70239576D01*
X113220641Y-70243453D01*
X113194250Y-70244750D01*
X112230750Y-70244750D01*
X112204359Y-70243453D01*
X112178222Y-70239576D01*
X112152591Y-70233156D01*
X112127712Y-70224255D01*
X112103826Y-70212957D01*
X112081163Y-70199373D01*
X112059940Y-70183633D01*
X112040361Y-70165889D01*
X112022617Y-70146310D01*
X112006877Y-70125087D01*
X111993293Y-70102424D01*
X111981995Y-70078538D01*
X111973094Y-70053659D01*
X111966674Y-70028028D01*
X111962797Y-70001891D01*
X111961500Y-69975500D01*
X111961500Y-69437000D01*
X111962797Y-69410609D01*
X111966674Y-69384472D01*
X111973094Y-69358841D01*
X111981995Y-69333962D01*
X111993293Y-69310076D01*
X112006877Y-69287413D01*
X112022617Y-69266190D01*
X112040361Y-69246611D01*
X112059940Y-69228867D01*
X112081163Y-69213127D01*
X112103826Y-69199543D01*
X112127712Y-69188245D01*
X112152591Y-69179344D01*
X112178222Y-69172924D01*
X112204359Y-69169047D01*
X112230750Y-69167750D01*
X113194250Y-69167750D01*
X113220641Y-69169047D01*
G37*
G36*
X95758141Y-65200297D02*
G01*
X95784278Y-65204174D01*
X95809909Y-65210594D01*
X95834788Y-65219495D01*
X95858674Y-65230793D01*
X95881337Y-65244377D01*
X95902560Y-65260117D01*
X95922139Y-65277861D01*
X95939883Y-65297440D01*
X95955623Y-65318663D01*
X95969207Y-65341326D01*
X95980505Y-65365212D01*
X95989406Y-65390091D01*
X95995826Y-65415722D01*
X95999703Y-65441859D01*
X96001000Y-65468250D01*
X96001000Y-66006750D01*
X95999703Y-66033141D01*
X95995826Y-66059278D01*
X95989406Y-66084909D01*
X95980505Y-66109788D01*
X95969207Y-66133674D01*
X95955623Y-66156337D01*
X95939883Y-66177560D01*
X95922139Y-66197139D01*
X95902560Y-66214883D01*
X95881337Y-66230623D01*
X95858674Y-66244207D01*
X95834788Y-66255505D01*
X95809909Y-66264406D01*
X95784278Y-66270826D01*
X95758141Y-66274703D01*
X95731750Y-66276000D01*
X94768250Y-66276000D01*
X94741859Y-66274703D01*
X94715722Y-66270826D01*
X94690091Y-66264406D01*
X94665212Y-66255505D01*
X94641326Y-66244207D01*
X94618663Y-66230623D01*
X94597440Y-66214883D01*
X94577861Y-66197139D01*
X94560117Y-66177560D01*
X94544377Y-66156337D01*
X94530793Y-66133674D01*
X94519495Y-66109788D01*
X94510594Y-66084909D01*
X94504174Y-66059278D01*
X94500297Y-66033141D01*
X94499000Y-66006750D01*
X94499000Y-65468250D01*
X94500297Y-65441859D01*
X94504174Y-65415722D01*
X94510594Y-65390091D01*
X94519495Y-65365212D01*
X94530793Y-65341326D01*
X94544377Y-65318663D01*
X94560117Y-65297440D01*
X94577861Y-65277861D01*
X94597440Y-65260117D01*
X94618663Y-65244377D01*
X94641326Y-65230793D01*
X94665212Y-65219495D01*
X94690091Y-65210594D01*
X94715722Y-65204174D01*
X94741859Y-65200297D01*
X94768250Y-65199000D01*
X95731750Y-65199000D01*
X95758141Y-65200297D01*
G37*
G36*
X95758141Y-67075297D02*
G01*
X95784278Y-67079174D01*
X95809909Y-67085594D01*
X95834788Y-67094495D01*
X95858674Y-67105793D01*
X95881337Y-67119377D01*
X95902560Y-67135117D01*
X95922139Y-67152861D01*
X95939883Y-67172440D01*
X95955623Y-67193663D01*
X95969207Y-67216326D01*
X95980505Y-67240212D01*
X95989406Y-67265091D01*
X95995826Y-67290722D01*
X95999703Y-67316859D01*
X96001000Y-67343250D01*
X96001000Y-67881750D01*
X95999703Y-67908141D01*
X95995826Y-67934278D01*
X95989406Y-67959909D01*
X95980505Y-67984788D01*
X95969207Y-68008674D01*
X95955623Y-68031337D01*
X95939883Y-68052560D01*
X95922139Y-68072139D01*
X95902560Y-68089883D01*
X95881337Y-68105623D01*
X95858674Y-68119207D01*
X95834788Y-68130505D01*
X95809909Y-68139406D01*
X95784278Y-68145826D01*
X95758141Y-68149703D01*
X95731750Y-68151000D01*
X94768250Y-68151000D01*
X94741859Y-68149703D01*
X94715722Y-68145826D01*
X94690091Y-68139406D01*
X94665212Y-68130505D01*
X94641326Y-68119207D01*
X94618663Y-68105623D01*
X94597440Y-68089883D01*
X94577861Y-68072139D01*
X94560117Y-68052560D01*
X94544377Y-68031337D01*
X94530793Y-68008674D01*
X94519495Y-67984788D01*
X94510594Y-67959909D01*
X94504174Y-67934278D01*
X94500297Y-67908141D01*
X94499000Y-67881750D01*
X94499000Y-67343250D01*
X94500297Y-67316859D01*
X94504174Y-67290722D01*
X94510594Y-67265091D01*
X94519495Y-67240212D01*
X94530793Y-67216326D01*
X94544377Y-67193663D01*
X94560117Y-67172440D01*
X94577861Y-67152861D01*
X94597440Y-67135117D01*
X94618663Y-67119377D01*
X94641326Y-67105793D01*
X94665212Y-67094495D01*
X94690091Y-67085594D01*
X94715722Y-67079174D01*
X94741859Y-67075297D01*
X94768250Y-67074000D01*
X95731750Y-67074000D01*
X95758141Y-67075297D01*
G37*
G36*
X92195141Y-74053297D02*
G01*
X92221278Y-74057174D01*
X92246909Y-74063594D01*
X92271788Y-74072495D01*
X92295674Y-74083793D01*
X92318337Y-74097377D01*
X92339560Y-74113117D01*
X92359139Y-74130861D01*
X92376883Y-74150440D01*
X92392623Y-74171663D01*
X92406207Y-74194326D01*
X92417505Y-74218212D01*
X92426406Y-74243091D01*
X92432826Y-74268722D01*
X92436703Y-74294859D01*
X92438000Y-74321250D01*
X92438000Y-75284750D01*
X92436703Y-75311141D01*
X92432826Y-75337278D01*
X92426406Y-75362909D01*
X92417505Y-75387788D01*
X92406207Y-75411674D01*
X92392623Y-75434337D01*
X92376883Y-75455560D01*
X92359139Y-75475139D01*
X92339560Y-75492883D01*
X92318337Y-75508623D01*
X92295674Y-75522207D01*
X92271788Y-75533505D01*
X92246909Y-75542406D01*
X92221278Y-75548826D01*
X92195141Y-75552703D01*
X92168750Y-75554000D01*
X91630250Y-75554000D01*
X91603859Y-75552703D01*
X91577722Y-75548826D01*
X91552091Y-75542406D01*
X91527212Y-75533505D01*
X91503326Y-75522207D01*
X91480663Y-75508623D01*
X91459440Y-75492883D01*
X91439861Y-75475139D01*
X91422117Y-75455560D01*
X91406377Y-75434337D01*
X91392793Y-75411674D01*
X91381495Y-75387788D01*
X91372594Y-75362909D01*
X91366174Y-75337278D01*
X91362297Y-75311141D01*
X91361000Y-75284750D01*
X91361000Y-74321250D01*
X91362297Y-74294859D01*
X91366174Y-74268722D01*
X91372594Y-74243091D01*
X91381495Y-74218212D01*
X91392793Y-74194326D01*
X91406377Y-74171663D01*
X91422117Y-74150440D01*
X91439861Y-74130861D01*
X91459440Y-74113117D01*
X91480663Y-74097377D01*
X91503326Y-74083793D01*
X91527212Y-74072495D01*
X91552091Y-74063594D01*
X91577722Y-74057174D01*
X91603859Y-74053297D01*
X91630250Y-74052000D01*
X92168750Y-74052000D01*
X92195141Y-74053297D01*
G37*
G36*
X94070141Y-74053297D02*
G01*
X94096278Y-74057174D01*
X94121909Y-74063594D01*
X94146788Y-74072495D01*
X94170674Y-74083793D01*
X94193337Y-74097377D01*
X94214560Y-74113117D01*
X94234139Y-74130861D01*
X94251883Y-74150440D01*
X94267623Y-74171663D01*
X94281207Y-74194326D01*
X94292505Y-74218212D01*
X94301406Y-74243091D01*
X94307826Y-74268722D01*
X94311703Y-74294859D01*
X94313000Y-74321250D01*
X94313000Y-75284750D01*
X94311703Y-75311141D01*
X94307826Y-75337278D01*
X94301406Y-75362909D01*
X94292505Y-75387788D01*
X94281207Y-75411674D01*
X94267623Y-75434337D01*
X94251883Y-75455560D01*
X94234139Y-75475139D01*
X94214560Y-75492883D01*
X94193337Y-75508623D01*
X94170674Y-75522207D01*
X94146788Y-75533505D01*
X94121909Y-75542406D01*
X94096278Y-75548826D01*
X94070141Y-75552703D01*
X94043750Y-75554000D01*
X93505250Y-75554000D01*
X93478859Y-75552703D01*
X93452722Y-75548826D01*
X93427091Y-75542406D01*
X93402212Y-75533505D01*
X93378326Y-75522207D01*
X93355663Y-75508623D01*
X93334440Y-75492883D01*
X93314861Y-75475139D01*
X93297117Y-75455560D01*
X93281377Y-75434337D01*
X93267793Y-75411674D01*
X93256495Y-75387788D01*
X93247594Y-75362909D01*
X93241174Y-75337278D01*
X93237297Y-75311141D01*
X93236000Y-75284750D01*
X93236000Y-74321250D01*
X93237297Y-74294859D01*
X93241174Y-74268722D01*
X93247594Y-74243091D01*
X93256495Y-74218212D01*
X93267793Y-74194326D01*
X93281377Y-74171663D01*
X93297117Y-74150440D01*
X93314861Y-74130861D01*
X93334440Y-74113117D01*
X93355663Y-74097377D01*
X93378326Y-74083793D01*
X93402212Y-74072495D01*
X93427091Y-74063594D01*
X93452722Y-74057174D01*
X93478859Y-74053297D01*
X93505250Y-74052000D01*
X94043750Y-74052000D01*
X94070141Y-74053297D01*
G37*
G36*
X98933141Y-62312797D02*
G01*
X98959278Y-62316674D01*
X98984909Y-62323094D01*
X99009788Y-62331995D01*
X99033674Y-62343293D01*
X99056337Y-62356877D01*
X99077560Y-62372617D01*
X99097139Y-62390361D01*
X99114883Y-62409940D01*
X99130623Y-62431163D01*
X99144207Y-62453826D01*
X99155505Y-62477712D01*
X99164406Y-62502591D01*
X99170826Y-62528222D01*
X99174703Y-62554359D01*
X99176000Y-62580750D01*
X99176000Y-63119250D01*
X99174703Y-63145641D01*
X99170826Y-63171778D01*
X99164406Y-63197409D01*
X99155505Y-63222288D01*
X99144207Y-63246174D01*
X99130623Y-63268837D01*
X99114883Y-63290060D01*
X99097139Y-63309639D01*
X99077560Y-63327383D01*
X99056337Y-63343123D01*
X99033674Y-63356707D01*
X99009788Y-63368005D01*
X98984909Y-63376906D01*
X98959278Y-63383326D01*
X98933141Y-63387203D01*
X98906750Y-63388500D01*
X97943250Y-63388500D01*
X97916859Y-63387203D01*
X97890722Y-63383326D01*
X97865091Y-63376906D01*
X97840212Y-63368005D01*
X97816326Y-63356707D01*
X97793663Y-63343123D01*
X97772440Y-63327383D01*
X97752861Y-63309639D01*
X97735117Y-63290060D01*
X97719377Y-63268837D01*
X97705793Y-63246174D01*
X97694495Y-63222288D01*
X97685594Y-63197409D01*
X97679174Y-63171778D01*
X97675297Y-63145641D01*
X97674000Y-63119250D01*
X97674000Y-62580750D01*
X97675297Y-62554359D01*
X97679174Y-62528222D01*
X97685594Y-62502591D01*
X97694495Y-62477712D01*
X97705793Y-62453826D01*
X97719377Y-62431163D01*
X97735117Y-62409940D01*
X97752861Y-62390361D01*
X97772440Y-62372617D01*
X97793663Y-62356877D01*
X97816326Y-62343293D01*
X97840212Y-62331995D01*
X97865091Y-62323094D01*
X97890722Y-62316674D01*
X97916859Y-62312797D01*
X97943250Y-62311500D01*
X98906750Y-62311500D01*
X98933141Y-62312797D01*
G37*
G36*
X98933141Y-60437797D02*
G01*
X98959278Y-60441674D01*
X98984909Y-60448094D01*
X99009788Y-60456995D01*
X99033674Y-60468293D01*
X99056337Y-60481877D01*
X99077560Y-60497617D01*
X99097139Y-60515361D01*
X99114883Y-60534940D01*
X99130623Y-60556163D01*
X99144207Y-60578826D01*
X99155505Y-60602712D01*
X99164406Y-60627591D01*
X99170826Y-60653222D01*
X99174703Y-60679359D01*
X99176000Y-60705750D01*
X99176000Y-61244250D01*
X99174703Y-61270641D01*
X99170826Y-61296778D01*
X99164406Y-61322409D01*
X99155505Y-61347288D01*
X99144207Y-61371174D01*
X99130623Y-61393837D01*
X99114883Y-61415060D01*
X99097139Y-61434639D01*
X99077560Y-61452383D01*
X99056337Y-61468123D01*
X99033674Y-61481707D01*
X99009788Y-61493005D01*
X98984909Y-61501906D01*
X98959278Y-61508326D01*
X98933141Y-61512203D01*
X98906750Y-61513500D01*
X97943250Y-61513500D01*
X97916859Y-61512203D01*
X97890722Y-61508326D01*
X97865091Y-61501906D01*
X97840212Y-61493005D01*
X97816326Y-61481707D01*
X97793663Y-61468123D01*
X97772440Y-61452383D01*
X97752861Y-61434639D01*
X97735117Y-61415060D01*
X97719377Y-61393837D01*
X97705793Y-61371174D01*
X97694495Y-61347288D01*
X97685594Y-61322409D01*
X97679174Y-61296778D01*
X97675297Y-61270641D01*
X97674000Y-61244250D01*
X97674000Y-60705750D01*
X97675297Y-60679359D01*
X97679174Y-60653222D01*
X97685594Y-60627591D01*
X97694495Y-60602712D01*
X97705793Y-60578826D01*
X97719377Y-60556163D01*
X97735117Y-60534940D01*
X97752861Y-60515361D01*
X97772440Y-60497617D01*
X97793663Y-60481877D01*
X97816326Y-60468293D01*
X97840212Y-60456995D01*
X97865091Y-60448094D01*
X97890722Y-60441674D01*
X97916859Y-60437797D01*
X97943250Y-60436500D01*
X98906750Y-60436500D01*
X98933141Y-60437797D01*
G37*
G36*
X108458141Y-60437797D02*
G01*
X108484278Y-60441674D01*
X108509909Y-60448094D01*
X108534788Y-60456995D01*
X108558674Y-60468293D01*
X108581337Y-60481877D01*
X108602560Y-60497617D01*
X108622139Y-60515361D01*
X108639883Y-60534940D01*
X108655623Y-60556163D01*
X108669207Y-60578826D01*
X108680505Y-60602712D01*
X108689406Y-60627591D01*
X108695826Y-60653222D01*
X108699703Y-60679359D01*
X108701000Y-60705750D01*
X108701000Y-61244250D01*
X108699703Y-61270641D01*
X108695826Y-61296778D01*
X108689406Y-61322409D01*
X108680505Y-61347288D01*
X108669207Y-61371174D01*
X108655623Y-61393837D01*
X108639883Y-61415060D01*
X108622139Y-61434639D01*
X108602560Y-61452383D01*
X108581337Y-61468123D01*
X108558674Y-61481707D01*
X108534788Y-61493005D01*
X108509909Y-61501906D01*
X108484278Y-61508326D01*
X108458141Y-61512203D01*
X108431750Y-61513500D01*
X107468250Y-61513500D01*
X107441859Y-61512203D01*
X107415722Y-61508326D01*
X107390091Y-61501906D01*
X107365212Y-61493005D01*
X107341326Y-61481707D01*
X107318663Y-61468123D01*
X107297440Y-61452383D01*
X107277861Y-61434639D01*
X107260117Y-61415060D01*
X107244377Y-61393837D01*
X107230793Y-61371174D01*
X107219495Y-61347288D01*
X107210594Y-61322409D01*
X107204174Y-61296778D01*
X107200297Y-61270641D01*
X107199000Y-61244250D01*
X107199000Y-60705750D01*
X107200297Y-60679359D01*
X107204174Y-60653222D01*
X107210594Y-60627591D01*
X107219495Y-60602712D01*
X107230793Y-60578826D01*
X107244377Y-60556163D01*
X107260117Y-60534940D01*
X107277861Y-60515361D01*
X107297440Y-60497617D01*
X107318663Y-60481877D01*
X107341326Y-60468293D01*
X107365212Y-60456995D01*
X107390091Y-60448094D01*
X107415722Y-60441674D01*
X107441859Y-60437797D01*
X107468250Y-60436500D01*
X108431750Y-60436500D01*
X108458141Y-60437797D01*
G37*
G36*
X108458141Y-62312797D02*
G01*
X108484278Y-62316674D01*
X108509909Y-62323094D01*
X108534788Y-62331995D01*
X108558674Y-62343293D01*
X108581337Y-62356877D01*
X108602560Y-62372617D01*
X108622139Y-62390361D01*
X108639883Y-62409940D01*
X108655623Y-62431163D01*
X108669207Y-62453826D01*
X108680505Y-62477712D01*
X108689406Y-62502591D01*
X108695826Y-62528222D01*
X108699703Y-62554359D01*
X108701000Y-62580750D01*
X108701000Y-63119250D01*
X108699703Y-63145641D01*
X108695826Y-63171778D01*
X108689406Y-63197409D01*
X108680505Y-63222288D01*
X108669207Y-63246174D01*
X108655623Y-63268837D01*
X108639883Y-63290060D01*
X108622139Y-63309639D01*
X108602560Y-63327383D01*
X108581337Y-63343123D01*
X108558674Y-63356707D01*
X108534788Y-63368005D01*
X108509909Y-63376906D01*
X108484278Y-63383326D01*
X108458141Y-63387203D01*
X108431750Y-63388500D01*
X107468250Y-63388500D01*
X107441859Y-63387203D01*
X107415722Y-63383326D01*
X107390091Y-63376906D01*
X107365212Y-63368005D01*
X107341326Y-63356707D01*
X107318663Y-63343123D01*
X107297440Y-63327383D01*
X107277861Y-63309639D01*
X107260117Y-63290060D01*
X107244377Y-63268837D01*
X107230793Y-63246174D01*
X107219495Y-63222288D01*
X107210594Y-63197409D01*
X107204174Y-63171778D01*
X107200297Y-63145641D01*
X107199000Y-63119250D01*
X107199000Y-62580750D01*
X107200297Y-62554359D01*
X107204174Y-62528222D01*
X107210594Y-62502591D01*
X107219495Y-62477712D01*
X107230793Y-62453826D01*
X107244377Y-62431163D01*
X107260117Y-62409940D01*
X107277861Y-62390361D01*
X107297440Y-62372617D01*
X107318663Y-62356877D01*
X107341326Y-62343293D01*
X107365212Y-62331995D01*
X107390091Y-62323094D01*
X107415722Y-62316674D01*
X107441859Y-62312797D01*
X107468250Y-62311500D01*
X108431750Y-62311500D01*
X108458141Y-62312797D01*
G37*
M02*
