G04 #@! TF.GenerationSoftware,KiCad,Pcbnew,(5.1.5)-3*
G04 #@! TF.CreationDate,2019-12-18T23:42:08-07:00*
G04 #@! TF.ProjectId,MiniV1,4d696e69-5631-42e6-9b69-6361645f7063,rev?*
G04 #@! TF.SameCoordinates,Original*
G04 #@! TF.FileFunction,Paste,Bot*
G04 #@! TF.FilePolarity,Positive*
%FSLAX46Y46*%
G04 Gerber Fmt 4.6, Leading zero omitted, Abs format (unit mm)*
G04 Created by KiCad (PCBNEW (5.1.5)-3) date 2019-12-18 23:42:08*
%MOMM*%
%LPD*%
G04 APERTURE LIST*
%ADD10R,0.500000X2.250000*%
%ADD11R,1.400000X1.200000*%
%ADD12R,0.550000X1.500000*%
%ADD13R,1.500000X0.550000*%
%ADD14R,1.800000X1.100000*%
%ADD15C,0.020000*%
%ADD16R,1.200000X0.900000*%
G04 APERTURE END LIST*
D10*
X81204000Y-59364000D03*
X82004000Y-59364000D03*
X82804000Y-59364000D03*
X83604000Y-59364000D03*
X84404000Y-59364000D03*
D11*
X104287500Y-61062500D03*
X102087500Y-61062500D03*
X102087500Y-62762500D03*
X104287500Y-62762500D03*
D12*
X99187500Y-81106250D03*
X99987500Y-81106250D03*
X100787500Y-81106250D03*
X101587500Y-81106250D03*
X102387500Y-81106250D03*
X103187500Y-81106250D03*
X103987500Y-81106250D03*
X104787500Y-81106250D03*
X105587500Y-81106250D03*
X106387500Y-81106250D03*
X107187500Y-81106250D03*
D13*
X108887500Y-79406250D03*
X108887500Y-78606250D03*
X108887500Y-77806250D03*
X108887500Y-77006250D03*
X108887500Y-76206250D03*
X108887500Y-75406250D03*
X108887500Y-74606250D03*
X108887500Y-73806250D03*
X108887500Y-73006250D03*
X108887500Y-72206250D03*
X108887500Y-71406250D03*
D12*
X107187500Y-69706250D03*
X106387500Y-69706250D03*
X105587500Y-69706250D03*
X104787500Y-69706250D03*
X103987500Y-69706250D03*
X103187500Y-69706250D03*
X102387500Y-69706250D03*
X101587500Y-69706250D03*
X100787500Y-69706250D03*
X99987500Y-69706250D03*
X99187500Y-69706250D03*
D13*
X97487500Y-71406250D03*
X97487500Y-72206250D03*
X97487500Y-73006250D03*
X97487500Y-73806250D03*
X97487500Y-74606250D03*
X97487500Y-75406250D03*
X97487500Y-76206250D03*
X97487500Y-77006250D03*
X97487500Y-77806250D03*
X97487500Y-78606250D03*
X97487500Y-79406250D03*
D14*
X79704000Y-92782000D03*
X85904000Y-89082000D03*
X79704000Y-89082000D03*
X85904000Y-92782000D03*
D15*
G36*
X113192642Y-79538674D02*
G01*
X113216303Y-79542184D01*
X113239507Y-79547996D01*
X113262029Y-79556054D01*
X113283653Y-79566282D01*
X113304170Y-79578579D01*
X113323383Y-79592829D01*
X113341107Y-79608893D01*
X113357171Y-79626617D01*
X113371421Y-79645830D01*
X113383718Y-79666347D01*
X113393946Y-79687971D01*
X113402004Y-79710493D01*
X113407816Y-79733697D01*
X113411326Y-79757358D01*
X113412500Y-79781250D01*
X113412500Y-80268750D01*
X113411326Y-80292642D01*
X113407816Y-80316303D01*
X113402004Y-80339507D01*
X113393946Y-80362029D01*
X113383718Y-80383653D01*
X113371421Y-80404170D01*
X113357171Y-80423383D01*
X113341107Y-80441107D01*
X113323383Y-80457171D01*
X113304170Y-80471421D01*
X113283653Y-80483718D01*
X113262029Y-80493946D01*
X113239507Y-80502004D01*
X113216303Y-80507816D01*
X113192642Y-80511326D01*
X113168750Y-80512500D01*
X112256250Y-80512500D01*
X112232358Y-80511326D01*
X112208697Y-80507816D01*
X112185493Y-80502004D01*
X112162971Y-80493946D01*
X112141347Y-80483718D01*
X112120830Y-80471421D01*
X112101617Y-80457171D01*
X112083893Y-80441107D01*
X112067829Y-80423383D01*
X112053579Y-80404170D01*
X112041282Y-80383653D01*
X112031054Y-80362029D01*
X112022996Y-80339507D01*
X112017184Y-80316303D01*
X112013674Y-80292642D01*
X112012500Y-80268750D01*
X112012500Y-79781250D01*
X112013674Y-79757358D01*
X112017184Y-79733697D01*
X112022996Y-79710493D01*
X112031054Y-79687971D01*
X112041282Y-79666347D01*
X112053579Y-79645830D01*
X112067829Y-79626617D01*
X112083893Y-79608893D01*
X112101617Y-79592829D01*
X112120830Y-79578579D01*
X112141347Y-79566282D01*
X112162971Y-79556054D01*
X112185493Y-79547996D01*
X112208697Y-79542184D01*
X112232358Y-79538674D01*
X112256250Y-79537500D01*
X113168750Y-79537500D01*
X113192642Y-79538674D01*
G37*
G36*
X113192642Y-81413674D02*
G01*
X113216303Y-81417184D01*
X113239507Y-81422996D01*
X113262029Y-81431054D01*
X113283653Y-81441282D01*
X113304170Y-81453579D01*
X113323383Y-81467829D01*
X113341107Y-81483893D01*
X113357171Y-81501617D01*
X113371421Y-81520830D01*
X113383718Y-81541347D01*
X113393946Y-81562971D01*
X113402004Y-81585493D01*
X113407816Y-81608697D01*
X113411326Y-81632358D01*
X113412500Y-81656250D01*
X113412500Y-82143750D01*
X113411326Y-82167642D01*
X113407816Y-82191303D01*
X113402004Y-82214507D01*
X113393946Y-82237029D01*
X113383718Y-82258653D01*
X113371421Y-82279170D01*
X113357171Y-82298383D01*
X113341107Y-82316107D01*
X113323383Y-82332171D01*
X113304170Y-82346421D01*
X113283653Y-82358718D01*
X113262029Y-82368946D01*
X113239507Y-82377004D01*
X113216303Y-82382816D01*
X113192642Y-82386326D01*
X113168750Y-82387500D01*
X112256250Y-82387500D01*
X112232358Y-82386326D01*
X112208697Y-82382816D01*
X112185493Y-82377004D01*
X112162971Y-82368946D01*
X112141347Y-82358718D01*
X112120830Y-82346421D01*
X112101617Y-82332171D01*
X112083893Y-82316107D01*
X112067829Y-82298383D01*
X112053579Y-82279170D01*
X112041282Y-82258653D01*
X112031054Y-82237029D01*
X112022996Y-82214507D01*
X112017184Y-82191303D01*
X112013674Y-82167642D01*
X112012500Y-82143750D01*
X112012500Y-81656250D01*
X112013674Y-81632358D01*
X112017184Y-81608697D01*
X112022996Y-81585493D01*
X112031054Y-81562971D01*
X112041282Y-81541347D01*
X112053579Y-81520830D01*
X112067829Y-81501617D01*
X112083893Y-81483893D01*
X112101617Y-81467829D01*
X112120830Y-81453579D01*
X112141347Y-81441282D01*
X112162971Y-81431054D01*
X112185493Y-81422996D01*
X112208697Y-81417184D01*
X112232358Y-81413674D01*
X112256250Y-81412500D01*
X113168750Y-81412500D01*
X113192642Y-81413674D01*
G37*
G36*
X81760142Y-65124174D02*
G01*
X81783803Y-65127684D01*
X81807007Y-65133496D01*
X81829529Y-65141554D01*
X81851153Y-65151782D01*
X81871670Y-65164079D01*
X81890883Y-65178329D01*
X81908607Y-65194393D01*
X81924671Y-65212117D01*
X81938921Y-65231330D01*
X81951218Y-65251847D01*
X81961446Y-65273471D01*
X81969504Y-65295993D01*
X81975316Y-65319197D01*
X81978826Y-65342858D01*
X81980000Y-65366750D01*
X81980000Y-65854250D01*
X81978826Y-65878142D01*
X81975316Y-65901803D01*
X81969504Y-65925007D01*
X81961446Y-65947529D01*
X81951218Y-65969153D01*
X81938921Y-65989670D01*
X81924671Y-66008883D01*
X81908607Y-66026607D01*
X81890883Y-66042671D01*
X81871670Y-66056921D01*
X81851153Y-66069218D01*
X81829529Y-66079446D01*
X81807007Y-66087504D01*
X81783803Y-66093316D01*
X81760142Y-66096826D01*
X81736250Y-66098000D01*
X80823750Y-66098000D01*
X80799858Y-66096826D01*
X80776197Y-66093316D01*
X80752993Y-66087504D01*
X80730471Y-66079446D01*
X80708847Y-66069218D01*
X80688330Y-66056921D01*
X80669117Y-66042671D01*
X80651393Y-66026607D01*
X80635329Y-66008883D01*
X80621079Y-65989670D01*
X80608782Y-65969153D01*
X80598554Y-65947529D01*
X80590496Y-65925007D01*
X80584684Y-65901803D01*
X80581174Y-65878142D01*
X80580000Y-65854250D01*
X80580000Y-65366750D01*
X80581174Y-65342858D01*
X80584684Y-65319197D01*
X80590496Y-65295993D01*
X80598554Y-65273471D01*
X80608782Y-65251847D01*
X80621079Y-65231330D01*
X80635329Y-65212117D01*
X80651393Y-65194393D01*
X80669117Y-65178329D01*
X80688330Y-65164079D01*
X80708847Y-65151782D01*
X80730471Y-65141554D01*
X80752993Y-65133496D01*
X80776197Y-65127684D01*
X80799858Y-65124174D01*
X80823750Y-65123000D01*
X81736250Y-65123000D01*
X81760142Y-65124174D01*
G37*
G36*
X81760142Y-66999174D02*
G01*
X81783803Y-67002684D01*
X81807007Y-67008496D01*
X81829529Y-67016554D01*
X81851153Y-67026782D01*
X81871670Y-67039079D01*
X81890883Y-67053329D01*
X81908607Y-67069393D01*
X81924671Y-67087117D01*
X81938921Y-67106330D01*
X81951218Y-67126847D01*
X81961446Y-67148471D01*
X81969504Y-67170993D01*
X81975316Y-67194197D01*
X81978826Y-67217858D01*
X81980000Y-67241750D01*
X81980000Y-67729250D01*
X81978826Y-67753142D01*
X81975316Y-67776803D01*
X81969504Y-67800007D01*
X81961446Y-67822529D01*
X81951218Y-67844153D01*
X81938921Y-67864670D01*
X81924671Y-67883883D01*
X81908607Y-67901607D01*
X81890883Y-67917671D01*
X81871670Y-67931921D01*
X81851153Y-67944218D01*
X81829529Y-67954446D01*
X81807007Y-67962504D01*
X81783803Y-67968316D01*
X81760142Y-67971826D01*
X81736250Y-67973000D01*
X80823750Y-67973000D01*
X80799858Y-67971826D01*
X80776197Y-67968316D01*
X80752993Y-67962504D01*
X80730471Y-67954446D01*
X80708847Y-67944218D01*
X80688330Y-67931921D01*
X80669117Y-67917671D01*
X80651393Y-67901607D01*
X80635329Y-67883883D01*
X80621079Y-67864670D01*
X80608782Y-67844153D01*
X80598554Y-67822529D01*
X80590496Y-67800007D01*
X80584684Y-67776803D01*
X80581174Y-67753142D01*
X80580000Y-67729250D01*
X80580000Y-67241750D01*
X80581174Y-67217858D01*
X80584684Y-67194197D01*
X80590496Y-67170993D01*
X80598554Y-67148471D01*
X80608782Y-67126847D01*
X80621079Y-67106330D01*
X80635329Y-67087117D01*
X80651393Y-67069393D01*
X80669117Y-67053329D01*
X80688330Y-67039079D01*
X80708847Y-67026782D01*
X80730471Y-67016554D01*
X80752993Y-67008496D01*
X80776197Y-67002684D01*
X80799858Y-66999174D01*
X80823750Y-66998000D01*
X81736250Y-66998000D01*
X81760142Y-66999174D01*
G37*
G36*
X84427142Y-65124174D02*
G01*
X84450803Y-65127684D01*
X84474007Y-65133496D01*
X84496529Y-65141554D01*
X84518153Y-65151782D01*
X84538670Y-65164079D01*
X84557883Y-65178329D01*
X84575607Y-65194393D01*
X84591671Y-65212117D01*
X84605921Y-65231330D01*
X84618218Y-65251847D01*
X84628446Y-65273471D01*
X84636504Y-65295993D01*
X84642316Y-65319197D01*
X84645826Y-65342858D01*
X84647000Y-65366750D01*
X84647000Y-65854250D01*
X84645826Y-65878142D01*
X84642316Y-65901803D01*
X84636504Y-65925007D01*
X84628446Y-65947529D01*
X84618218Y-65969153D01*
X84605921Y-65989670D01*
X84591671Y-66008883D01*
X84575607Y-66026607D01*
X84557883Y-66042671D01*
X84538670Y-66056921D01*
X84518153Y-66069218D01*
X84496529Y-66079446D01*
X84474007Y-66087504D01*
X84450803Y-66093316D01*
X84427142Y-66096826D01*
X84403250Y-66098000D01*
X83490750Y-66098000D01*
X83466858Y-66096826D01*
X83443197Y-66093316D01*
X83419993Y-66087504D01*
X83397471Y-66079446D01*
X83375847Y-66069218D01*
X83355330Y-66056921D01*
X83336117Y-66042671D01*
X83318393Y-66026607D01*
X83302329Y-66008883D01*
X83288079Y-65989670D01*
X83275782Y-65969153D01*
X83265554Y-65947529D01*
X83257496Y-65925007D01*
X83251684Y-65901803D01*
X83248174Y-65878142D01*
X83247000Y-65854250D01*
X83247000Y-65366750D01*
X83248174Y-65342858D01*
X83251684Y-65319197D01*
X83257496Y-65295993D01*
X83265554Y-65273471D01*
X83275782Y-65251847D01*
X83288079Y-65231330D01*
X83302329Y-65212117D01*
X83318393Y-65194393D01*
X83336117Y-65178329D01*
X83355330Y-65164079D01*
X83375847Y-65151782D01*
X83397471Y-65141554D01*
X83419993Y-65133496D01*
X83443197Y-65127684D01*
X83466858Y-65124174D01*
X83490750Y-65123000D01*
X84403250Y-65123000D01*
X84427142Y-65124174D01*
G37*
G36*
X84427142Y-66999174D02*
G01*
X84450803Y-67002684D01*
X84474007Y-67008496D01*
X84496529Y-67016554D01*
X84518153Y-67026782D01*
X84538670Y-67039079D01*
X84557883Y-67053329D01*
X84575607Y-67069393D01*
X84591671Y-67087117D01*
X84605921Y-67106330D01*
X84618218Y-67126847D01*
X84628446Y-67148471D01*
X84636504Y-67170993D01*
X84642316Y-67194197D01*
X84645826Y-67217858D01*
X84647000Y-67241750D01*
X84647000Y-67729250D01*
X84645826Y-67753142D01*
X84642316Y-67776803D01*
X84636504Y-67800007D01*
X84628446Y-67822529D01*
X84618218Y-67844153D01*
X84605921Y-67864670D01*
X84591671Y-67883883D01*
X84575607Y-67901607D01*
X84557883Y-67917671D01*
X84538670Y-67931921D01*
X84518153Y-67944218D01*
X84496529Y-67954446D01*
X84474007Y-67962504D01*
X84450803Y-67968316D01*
X84427142Y-67971826D01*
X84403250Y-67973000D01*
X83490750Y-67973000D01*
X83466858Y-67971826D01*
X83443197Y-67968316D01*
X83419993Y-67962504D01*
X83397471Y-67954446D01*
X83375847Y-67944218D01*
X83355330Y-67931921D01*
X83336117Y-67917671D01*
X83318393Y-67901607D01*
X83302329Y-67883883D01*
X83288079Y-67864670D01*
X83275782Y-67844153D01*
X83265554Y-67822529D01*
X83257496Y-67800007D01*
X83251684Y-67776803D01*
X83248174Y-67753142D01*
X83247000Y-67729250D01*
X83247000Y-67241750D01*
X83248174Y-67217858D01*
X83251684Y-67194197D01*
X83257496Y-67170993D01*
X83265554Y-67148471D01*
X83275782Y-67126847D01*
X83288079Y-67106330D01*
X83302329Y-67087117D01*
X83318393Y-67069393D01*
X83336117Y-67053329D01*
X83355330Y-67039079D01*
X83375847Y-67026782D01*
X83397471Y-67016554D01*
X83419993Y-67008496D01*
X83443197Y-67002684D01*
X83466858Y-66999174D01*
X83490750Y-66998000D01*
X84403250Y-66998000D01*
X84427142Y-66999174D01*
G37*
G36*
X92555142Y-67126174D02*
G01*
X92578803Y-67129684D01*
X92602007Y-67135496D01*
X92624529Y-67143554D01*
X92646153Y-67153782D01*
X92666670Y-67166079D01*
X92685883Y-67180329D01*
X92703607Y-67196393D01*
X92719671Y-67214117D01*
X92733921Y-67233330D01*
X92746218Y-67253847D01*
X92756446Y-67275471D01*
X92764504Y-67297993D01*
X92770316Y-67321197D01*
X92773826Y-67344858D01*
X92775000Y-67368750D01*
X92775000Y-67856250D01*
X92773826Y-67880142D01*
X92770316Y-67903803D01*
X92764504Y-67927007D01*
X92756446Y-67949529D01*
X92746218Y-67971153D01*
X92733921Y-67991670D01*
X92719671Y-68010883D01*
X92703607Y-68028607D01*
X92685883Y-68044671D01*
X92666670Y-68058921D01*
X92646153Y-68071218D01*
X92624529Y-68081446D01*
X92602007Y-68089504D01*
X92578803Y-68095316D01*
X92555142Y-68098826D01*
X92531250Y-68100000D01*
X91618750Y-68100000D01*
X91594858Y-68098826D01*
X91571197Y-68095316D01*
X91547993Y-68089504D01*
X91525471Y-68081446D01*
X91503847Y-68071218D01*
X91483330Y-68058921D01*
X91464117Y-68044671D01*
X91446393Y-68028607D01*
X91430329Y-68010883D01*
X91416079Y-67991670D01*
X91403782Y-67971153D01*
X91393554Y-67949529D01*
X91385496Y-67927007D01*
X91379684Y-67903803D01*
X91376174Y-67880142D01*
X91375000Y-67856250D01*
X91375000Y-67368750D01*
X91376174Y-67344858D01*
X91379684Y-67321197D01*
X91385496Y-67297993D01*
X91393554Y-67275471D01*
X91403782Y-67253847D01*
X91416079Y-67233330D01*
X91430329Y-67214117D01*
X91446393Y-67196393D01*
X91464117Y-67180329D01*
X91483330Y-67166079D01*
X91503847Y-67153782D01*
X91525471Y-67143554D01*
X91547993Y-67135496D01*
X91571197Y-67129684D01*
X91594858Y-67126174D01*
X91618750Y-67125000D01*
X92531250Y-67125000D01*
X92555142Y-67126174D01*
G37*
G36*
X92555142Y-65251174D02*
G01*
X92578803Y-65254684D01*
X92602007Y-65260496D01*
X92624529Y-65268554D01*
X92646153Y-65278782D01*
X92666670Y-65291079D01*
X92685883Y-65305329D01*
X92703607Y-65321393D01*
X92719671Y-65339117D01*
X92733921Y-65358330D01*
X92746218Y-65378847D01*
X92756446Y-65400471D01*
X92764504Y-65422993D01*
X92770316Y-65446197D01*
X92773826Y-65469858D01*
X92775000Y-65493750D01*
X92775000Y-65981250D01*
X92773826Y-66005142D01*
X92770316Y-66028803D01*
X92764504Y-66052007D01*
X92756446Y-66074529D01*
X92746218Y-66096153D01*
X92733921Y-66116670D01*
X92719671Y-66135883D01*
X92703607Y-66153607D01*
X92685883Y-66169671D01*
X92666670Y-66183921D01*
X92646153Y-66196218D01*
X92624529Y-66206446D01*
X92602007Y-66214504D01*
X92578803Y-66220316D01*
X92555142Y-66223826D01*
X92531250Y-66225000D01*
X91618750Y-66225000D01*
X91594858Y-66223826D01*
X91571197Y-66220316D01*
X91547993Y-66214504D01*
X91525471Y-66206446D01*
X91503847Y-66196218D01*
X91483330Y-66183921D01*
X91464117Y-66169671D01*
X91446393Y-66153607D01*
X91430329Y-66135883D01*
X91416079Y-66116670D01*
X91403782Y-66096153D01*
X91393554Y-66074529D01*
X91385496Y-66052007D01*
X91379684Y-66028803D01*
X91376174Y-66005142D01*
X91375000Y-65981250D01*
X91375000Y-65493750D01*
X91376174Y-65469858D01*
X91379684Y-65446197D01*
X91385496Y-65422993D01*
X91393554Y-65400471D01*
X91403782Y-65378847D01*
X91416079Y-65358330D01*
X91430329Y-65339117D01*
X91446393Y-65321393D01*
X91464117Y-65305329D01*
X91483330Y-65291079D01*
X91503847Y-65278782D01*
X91525471Y-65268554D01*
X91547993Y-65260496D01*
X91571197Y-65254684D01*
X91594858Y-65251174D01*
X91618750Y-65250000D01*
X92531250Y-65250000D01*
X92555142Y-65251174D01*
G37*
G36*
X78881504Y-69096204D02*
G01*
X78905773Y-69099804D01*
X78929571Y-69105765D01*
X78952671Y-69114030D01*
X78974849Y-69124520D01*
X78995893Y-69137133D01*
X79015598Y-69151747D01*
X79033777Y-69168223D01*
X79050253Y-69186402D01*
X79064867Y-69206107D01*
X79077480Y-69227151D01*
X79087970Y-69249329D01*
X79096235Y-69272429D01*
X79102196Y-69296227D01*
X79105796Y-69320496D01*
X79107000Y-69345000D01*
X79107000Y-70095000D01*
X79105796Y-70119504D01*
X79102196Y-70143773D01*
X79096235Y-70167571D01*
X79087970Y-70190671D01*
X79077480Y-70212849D01*
X79064867Y-70233893D01*
X79050253Y-70253598D01*
X79033777Y-70271777D01*
X79015598Y-70288253D01*
X78995893Y-70302867D01*
X78974849Y-70315480D01*
X78952671Y-70325970D01*
X78929571Y-70334235D01*
X78905773Y-70340196D01*
X78881504Y-70343796D01*
X78857000Y-70345000D01*
X77607000Y-70345000D01*
X77582496Y-70343796D01*
X77558227Y-70340196D01*
X77534429Y-70334235D01*
X77511329Y-70325970D01*
X77489151Y-70315480D01*
X77468107Y-70302867D01*
X77448402Y-70288253D01*
X77430223Y-70271777D01*
X77413747Y-70253598D01*
X77399133Y-70233893D01*
X77386520Y-70212849D01*
X77376030Y-70190671D01*
X77367765Y-70167571D01*
X77361804Y-70143773D01*
X77358204Y-70119504D01*
X77357000Y-70095000D01*
X77357000Y-69345000D01*
X77358204Y-69320496D01*
X77361804Y-69296227D01*
X77367765Y-69272429D01*
X77376030Y-69249329D01*
X77386520Y-69227151D01*
X77399133Y-69206107D01*
X77413747Y-69186402D01*
X77430223Y-69168223D01*
X77448402Y-69151747D01*
X77468107Y-69137133D01*
X77489151Y-69124520D01*
X77511329Y-69114030D01*
X77534429Y-69105765D01*
X77558227Y-69099804D01*
X77582496Y-69096204D01*
X77607000Y-69095000D01*
X78857000Y-69095000D01*
X78881504Y-69096204D01*
G37*
G36*
X78881504Y-71896204D02*
G01*
X78905773Y-71899804D01*
X78929571Y-71905765D01*
X78952671Y-71914030D01*
X78974849Y-71924520D01*
X78995893Y-71937133D01*
X79015598Y-71951747D01*
X79033777Y-71968223D01*
X79050253Y-71986402D01*
X79064867Y-72006107D01*
X79077480Y-72027151D01*
X79087970Y-72049329D01*
X79096235Y-72072429D01*
X79102196Y-72096227D01*
X79105796Y-72120496D01*
X79107000Y-72145000D01*
X79107000Y-72895000D01*
X79105796Y-72919504D01*
X79102196Y-72943773D01*
X79096235Y-72967571D01*
X79087970Y-72990671D01*
X79077480Y-73012849D01*
X79064867Y-73033893D01*
X79050253Y-73053598D01*
X79033777Y-73071777D01*
X79015598Y-73088253D01*
X78995893Y-73102867D01*
X78974849Y-73115480D01*
X78952671Y-73125970D01*
X78929571Y-73134235D01*
X78905773Y-73140196D01*
X78881504Y-73143796D01*
X78857000Y-73145000D01*
X77607000Y-73145000D01*
X77582496Y-73143796D01*
X77558227Y-73140196D01*
X77534429Y-73134235D01*
X77511329Y-73125970D01*
X77489151Y-73115480D01*
X77468107Y-73102867D01*
X77448402Y-73088253D01*
X77430223Y-73071777D01*
X77413747Y-73053598D01*
X77399133Y-73033893D01*
X77386520Y-73012849D01*
X77376030Y-72990671D01*
X77367765Y-72967571D01*
X77361804Y-72943773D01*
X77358204Y-72919504D01*
X77357000Y-72895000D01*
X77357000Y-72145000D01*
X77358204Y-72120496D01*
X77361804Y-72096227D01*
X77367765Y-72072429D01*
X77376030Y-72049329D01*
X77386520Y-72027151D01*
X77399133Y-72006107D01*
X77413747Y-71986402D01*
X77430223Y-71968223D01*
X77448402Y-71951747D01*
X77468107Y-71937133D01*
X77489151Y-71924520D01*
X77511329Y-71914030D01*
X77534429Y-71905765D01*
X77558227Y-71899804D01*
X77582496Y-71896204D01*
X77607000Y-71895000D01*
X78857000Y-71895000D01*
X78881504Y-71896204D01*
G37*
D16*
X155575000Y-82487500D03*
X155575000Y-85787500D03*
X136525000Y-82487500D03*
X136525000Y-85787500D03*
X155575000Y-63437500D03*
X155575000Y-66737500D03*
X136525000Y-63437500D03*
X136525000Y-66737500D03*
D15*
G36*
X93571142Y-78713174D02*
G01*
X93594803Y-78716684D01*
X93618007Y-78722496D01*
X93640529Y-78730554D01*
X93662153Y-78740782D01*
X93682670Y-78753079D01*
X93701883Y-78767329D01*
X93719607Y-78783393D01*
X93735671Y-78801117D01*
X93749921Y-78820330D01*
X93762218Y-78840847D01*
X93772446Y-78862471D01*
X93780504Y-78884993D01*
X93786316Y-78908197D01*
X93789826Y-78931858D01*
X93791000Y-78955750D01*
X93791000Y-79443250D01*
X93789826Y-79467142D01*
X93786316Y-79490803D01*
X93780504Y-79514007D01*
X93772446Y-79536529D01*
X93762218Y-79558153D01*
X93749921Y-79578670D01*
X93735671Y-79597883D01*
X93719607Y-79615607D01*
X93701883Y-79631671D01*
X93682670Y-79645921D01*
X93662153Y-79658218D01*
X93640529Y-79668446D01*
X93618007Y-79676504D01*
X93594803Y-79682316D01*
X93571142Y-79685826D01*
X93547250Y-79687000D01*
X92634750Y-79687000D01*
X92610858Y-79685826D01*
X92587197Y-79682316D01*
X92563993Y-79676504D01*
X92541471Y-79668446D01*
X92519847Y-79658218D01*
X92499330Y-79645921D01*
X92480117Y-79631671D01*
X92462393Y-79615607D01*
X92446329Y-79597883D01*
X92432079Y-79578670D01*
X92419782Y-79558153D01*
X92409554Y-79536529D01*
X92401496Y-79514007D01*
X92395684Y-79490803D01*
X92392174Y-79467142D01*
X92391000Y-79443250D01*
X92391000Y-78955750D01*
X92392174Y-78931858D01*
X92395684Y-78908197D01*
X92401496Y-78884993D01*
X92409554Y-78862471D01*
X92419782Y-78840847D01*
X92432079Y-78820330D01*
X92446329Y-78801117D01*
X92462393Y-78783393D01*
X92480117Y-78767329D01*
X92499330Y-78753079D01*
X92519847Y-78740782D01*
X92541471Y-78730554D01*
X92563993Y-78722496D01*
X92587197Y-78716684D01*
X92610858Y-78713174D01*
X92634750Y-78712000D01*
X93547250Y-78712000D01*
X93571142Y-78713174D01*
G37*
G36*
X93571142Y-80588174D02*
G01*
X93594803Y-80591684D01*
X93618007Y-80597496D01*
X93640529Y-80605554D01*
X93662153Y-80615782D01*
X93682670Y-80628079D01*
X93701883Y-80642329D01*
X93719607Y-80658393D01*
X93735671Y-80676117D01*
X93749921Y-80695330D01*
X93762218Y-80715847D01*
X93772446Y-80737471D01*
X93780504Y-80759993D01*
X93786316Y-80783197D01*
X93789826Y-80806858D01*
X93791000Y-80830750D01*
X93791000Y-81318250D01*
X93789826Y-81342142D01*
X93786316Y-81365803D01*
X93780504Y-81389007D01*
X93772446Y-81411529D01*
X93762218Y-81433153D01*
X93749921Y-81453670D01*
X93735671Y-81472883D01*
X93719607Y-81490607D01*
X93701883Y-81506671D01*
X93682670Y-81520921D01*
X93662153Y-81533218D01*
X93640529Y-81543446D01*
X93618007Y-81551504D01*
X93594803Y-81557316D01*
X93571142Y-81560826D01*
X93547250Y-81562000D01*
X92634750Y-81562000D01*
X92610858Y-81560826D01*
X92587197Y-81557316D01*
X92563993Y-81551504D01*
X92541471Y-81543446D01*
X92519847Y-81533218D01*
X92499330Y-81520921D01*
X92480117Y-81506671D01*
X92462393Y-81490607D01*
X92446329Y-81472883D01*
X92432079Y-81453670D01*
X92419782Y-81433153D01*
X92409554Y-81411529D01*
X92401496Y-81389007D01*
X92395684Y-81365803D01*
X92392174Y-81342142D01*
X92391000Y-81318250D01*
X92391000Y-80830750D01*
X92392174Y-80806858D01*
X92395684Y-80783197D01*
X92401496Y-80759993D01*
X92409554Y-80737471D01*
X92419782Y-80715847D01*
X92432079Y-80695330D01*
X92446329Y-80676117D01*
X92462393Y-80658393D01*
X92480117Y-80642329D01*
X92499330Y-80628079D01*
X92519847Y-80615782D01*
X92541471Y-80605554D01*
X92563993Y-80597496D01*
X92587197Y-80591684D01*
X92610858Y-80588174D01*
X92634750Y-80587000D01*
X93547250Y-80587000D01*
X93571142Y-80588174D01*
G37*
G36*
X108361392Y-84232424D02*
G01*
X108385053Y-84235934D01*
X108408257Y-84241746D01*
X108430779Y-84249804D01*
X108452403Y-84260032D01*
X108472920Y-84272329D01*
X108492133Y-84286579D01*
X108509857Y-84302643D01*
X108525921Y-84320367D01*
X108540171Y-84339580D01*
X108552468Y-84360097D01*
X108562696Y-84381721D01*
X108570754Y-84404243D01*
X108576566Y-84427447D01*
X108580076Y-84451108D01*
X108581250Y-84475000D01*
X108581250Y-85387500D01*
X108580076Y-85411392D01*
X108576566Y-85435053D01*
X108570754Y-85458257D01*
X108562696Y-85480779D01*
X108552468Y-85502403D01*
X108540171Y-85522920D01*
X108525921Y-85542133D01*
X108509857Y-85559857D01*
X108492133Y-85575921D01*
X108472920Y-85590171D01*
X108452403Y-85602468D01*
X108430779Y-85612696D01*
X108408257Y-85620754D01*
X108385053Y-85626566D01*
X108361392Y-85630076D01*
X108337500Y-85631250D01*
X107850000Y-85631250D01*
X107826108Y-85630076D01*
X107802447Y-85626566D01*
X107779243Y-85620754D01*
X107756721Y-85612696D01*
X107735097Y-85602468D01*
X107714580Y-85590171D01*
X107695367Y-85575921D01*
X107677643Y-85559857D01*
X107661579Y-85542133D01*
X107647329Y-85522920D01*
X107635032Y-85502403D01*
X107624804Y-85480779D01*
X107616746Y-85458257D01*
X107610934Y-85435053D01*
X107607424Y-85411392D01*
X107606250Y-85387500D01*
X107606250Y-84475000D01*
X107607424Y-84451108D01*
X107610934Y-84427447D01*
X107616746Y-84404243D01*
X107624804Y-84381721D01*
X107635032Y-84360097D01*
X107647329Y-84339580D01*
X107661579Y-84320367D01*
X107677643Y-84302643D01*
X107695367Y-84286579D01*
X107714580Y-84272329D01*
X107735097Y-84260032D01*
X107756721Y-84249804D01*
X107779243Y-84241746D01*
X107802447Y-84235934D01*
X107826108Y-84232424D01*
X107850000Y-84231250D01*
X108337500Y-84231250D01*
X108361392Y-84232424D01*
G37*
G36*
X106486392Y-84232424D02*
G01*
X106510053Y-84235934D01*
X106533257Y-84241746D01*
X106555779Y-84249804D01*
X106577403Y-84260032D01*
X106597920Y-84272329D01*
X106617133Y-84286579D01*
X106634857Y-84302643D01*
X106650921Y-84320367D01*
X106665171Y-84339580D01*
X106677468Y-84360097D01*
X106687696Y-84381721D01*
X106695754Y-84404243D01*
X106701566Y-84427447D01*
X106705076Y-84451108D01*
X106706250Y-84475000D01*
X106706250Y-85387500D01*
X106705076Y-85411392D01*
X106701566Y-85435053D01*
X106695754Y-85458257D01*
X106687696Y-85480779D01*
X106677468Y-85502403D01*
X106665171Y-85522920D01*
X106650921Y-85542133D01*
X106634857Y-85559857D01*
X106617133Y-85575921D01*
X106597920Y-85590171D01*
X106577403Y-85602468D01*
X106555779Y-85612696D01*
X106533257Y-85620754D01*
X106510053Y-85626566D01*
X106486392Y-85630076D01*
X106462500Y-85631250D01*
X105975000Y-85631250D01*
X105951108Y-85630076D01*
X105927447Y-85626566D01*
X105904243Y-85620754D01*
X105881721Y-85612696D01*
X105860097Y-85602468D01*
X105839580Y-85590171D01*
X105820367Y-85575921D01*
X105802643Y-85559857D01*
X105786579Y-85542133D01*
X105772329Y-85522920D01*
X105760032Y-85502403D01*
X105749804Y-85480779D01*
X105741746Y-85458257D01*
X105735934Y-85435053D01*
X105732424Y-85411392D01*
X105731250Y-85387500D01*
X105731250Y-84475000D01*
X105732424Y-84451108D01*
X105735934Y-84427447D01*
X105741746Y-84404243D01*
X105749804Y-84381721D01*
X105760032Y-84360097D01*
X105772329Y-84339580D01*
X105786579Y-84320367D01*
X105802643Y-84302643D01*
X105820367Y-84286579D01*
X105839580Y-84272329D01*
X105860097Y-84260032D01*
X105881721Y-84249804D01*
X105904243Y-84241746D01*
X105927447Y-84235934D01*
X105951108Y-84232424D01*
X105975000Y-84231250D01*
X106462500Y-84231250D01*
X106486392Y-84232424D01*
G37*
G36*
X113192642Y-71094924D02*
G01*
X113216303Y-71098434D01*
X113239507Y-71104246D01*
X113262029Y-71112304D01*
X113283653Y-71122532D01*
X113304170Y-71134829D01*
X113323383Y-71149079D01*
X113341107Y-71165143D01*
X113357171Y-71182867D01*
X113371421Y-71202080D01*
X113383718Y-71222597D01*
X113393946Y-71244221D01*
X113402004Y-71266743D01*
X113407816Y-71289947D01*
X113411326Y-71313608D01*
X113412500Y-71337500D01*
X113412500Y-71825000D01*
X113411326Y-71848892D01*
X113407816Y-71872553D01*
X113402004Y-71895757D01*
X113393946Y-71918279D01*
X113383718Y-71939903D01*
X113371421Y-71960420D01*
X113357171Y-71979633D01*
X113341107Y-71997357D01*
X113323383Y-72013421D01*
X113304170Y-72027671D01*
X113283653Y-72039968D01*
X113262029Y-72050196D01*
X113239507Y-72058254D01*
X113216303Y-72064066D01*
X113192642Y-72067576D01*
X113168750Y-72068750D01*
X112256250Y-72068750D01*
X112232358Y-72067576D01*
X112208697Y-72064066D01*
X112185493Y-72058254D01*
X112162971Y-72050196D01*
X112141347Y-72039968D01*
X112120830Y-72027671D01*
X112101617Y-72013421D01*
X112083893Y-71997357D01*
X112067829Y-71979633D01*
X112053579Y-71960420D01*
X112041282Y-71939903D01*
X112031054Y-71918279D01*
X112022996Y-71895757D01*
X112017184Y-71872553D01*
X112013674Y-71848892D01*
X112012500Y-71825000D01*
X112012500Y-71337500D01*
X112013674Y-71313608D01*
X112017184Y-71289947D01*
X112022996Y-71266743D01*
X112031054Y-71244221D01*
X112041282Y-71222597D01*
X112053579Y-71202080D01*
X112067829Y-71182867D01*
X112083893Y-71165143D01*
X112101617Y-71149079D01*
X112120830Y-71134829D01*
X112141347Y-71122532D01*
X112162971Y-71112304D01*
X112185493Y-71104246D01*
X112208697Y-71098434D01*
X112232358Y-71094924D01*
X112256250Y-71093750D01*
X113168750Y-71093750D01*
X113192642Y-71094924D01*
G37*
G36*
X113192642Y-69219924D02*
G01*
X113216303Y-69223434D01*
X113239507Y-69229246D01*
X113262029Y-69237304D01*
X113283653Y-69247532D01*
X113304170Y-69259829D01*
X113323383Y-69274079D01*
X113341107Y-69290143D01*
X113357171Y-69307867D01*
X113371421Y-69327080D01*
X113383718Y-69347597D01*
X113393946Y-69369221D01*
X113402004Y-69391743D01*
X113407816Y-69414947D01*
X113411326Y-69438608D01*
X113412500Y-69462500D01*
X113412500Y-69950000D01*
X113411326Y-69973892D01*
X113407816Y-69997553D01*
X113402004Y-70020757D01*
X113393946Y-70043279D01*
X113383718Y-70064903D01*
X113371421Y-70085420D01*
X113357171Y-70104633D01*
X113341107Y-70122357D01*
X113323383Y-70138421D01*
X113304170Y-70152671D01*
X113283653Y-70164968D01*
X113262029Y-70175196D01*
X113239507Y-70183254D01*
X113216303Y-70189066D01*
X113192642Y-70192576D01*
X113168750Y-70193750D01*
X112256250Y-70193750D01*
X112232358Y-70192576D01*
X112208697Y-70189066D01*
X112185493Y-70183254D01*
X112162971Y-70175196D01*
X112141347Y-70164968D01*
X112120830Y-70152671D01*
X112101617Y-70138421D01*
X112083893Y-70122357D01*
X112067829Y-70104633D01*
X112053579Y-70085420D01*
X112041282Y-70064903D01*
X112031054Y-70043279D01*
X112022996Y-70020757D01*
X112017184Y-69997553D01*
X112013674Y-69973892D01*
X112012500Y-69950000D01*
X112012500Y-69462500D01*
X112013674Y-69438608D01*
X112017184Y-69414947D01*
X112022996Y-69391743D01*
X112031054Y-69369221D01*
X112041282Y-69347597D01*
X112053579Y-69327080D01*
X112067829Y-69307867D01*
X112083893Y-69290143D01*
X112101617Y-69274079D01*
X112120830Y-69259829D01*
X112141347Y-69247532D01*
X112162971Y-69237304D01*
X112185493Y-69229246D01*
X112208697Y-69223434D01*
X112232358Y-69219924D01*
X112256250Y-69218750D01*
X113168750Y-69218750D01*
X113192642Y-69219924D01*
G37*
G36*
X95730142Y-65251174D02*
G01*
X95753803Y-65254684D01*
X95777007Y-65260496D01*
X95799529Y-65268554D01*
X95821153Y-65278782D01*
X95841670Y-65291079D01*
X95860883Y-65305329D01*
X95878607Y-65321393D01*
X95894671Y-65339117D01*
X95908921Y-65358330D01*
X95921218Y-65378847D01*
X95931446Y-65400471D01*
X95939504Y-65422993D01*
X95945316Y-65446197D01*
X95948826Y-65469858D01*
X95950000Y-65493750D01*
X95950000Y-65981250D01*
X95948826Y-66005142D01*
X95945316Y-66028803D01*
X95939504Y-66052007D01*
X95931446Y-66074529D01*
X95921218Y-66096153D01*
X95908921Y-66116670D01*
X95894671Y-66135883D01*
X95878607Y-66153607D01*
X95860883Y-66169671D01*
X95841670Y-66183921D01*
X95821153Y-66196218D01*
X95799529Y-66206446D01*
X95777007Y-66214504D01*
X95753803Y-66220316D01*
X95730142Y-66223826D01*
X95706250Y-66225000D01*
X94793750Y-66225000D01*
X94769858Y-66223826D01*
X94746197Y-66220316D01*
X94722993Y-66214504D01*
X94700471Y-66206446D01*
X94678847Y-66196218D01*
X94658330Y-66183921D01*
X94639117Y-66169671D01*
X94621393Y-66153607D01*
X94605329Y-66135883D01*
X94591079Y-66116670D01*
X94578782Y-66096153D01*
X94568554Y-66074529D01*
X94560496Y-66052007D01*
X94554684Y-66028803D01*
X94551174Y-66005142D01*
X94550000Y-65981250D01*
X94550000Y-65493750D01*
X94551174Y-65469858D01*
X94554684Y-65446197D01*
X94560496Y-65422993D01*
X94568554Y-65400471D01*
X94578782Y-65378847D01*
X94591079Y-65358330D01*
X94605329Y-65339117D01*
X94621393Y-65321393D01*
X94639117Y-65305329D01*
X94658330Y-65291079D01*
X94678847Y-65278782D01*
X94700471Y-65268554D01*
X94722993Y-65260496D01*
X94746197Y-65254684D01*
X94769858Y-65251174D01*
X94793750Y-65250000D01*
X95706250Y-65250000D01*
X95730142Y-65251174D01*
G37*
G36*
X95730142Y-67126174D02*
G01*
X95753803Y-67129684D01*
X95777007Y-67135496D01*
X95799529Y-67143554D01*
X95821153Y-67153782D01*
X95841670Y-67166079D01*
X95860883Y-67180329D01*
X95878607Y-67196393D01*
X95894671Y-67214117D01*
X95908921Y-67233330D01*
X95921218Y-67253847D01*
X95931446Y-67275471D01*
X95939504Y-67297993D01*
X95945316Y-67321197D01*
X95948826Y-67344858D01*
X95950000Y-67368750D01*
X95950000Y-67856250D01*
X95948826Y-67880142D01*
X95945316Y-67903803D01*
X95939504Y-67927007D01*
X95931446Y-67949529D01*
X95921218Y-67971153D01*
X95908921Y-67991670D01*
X95894671Y-68010883D01*
X95878607Y-68028607D01*
X95860883Y-68044671D01*
X95841670Y-68058921D01*
X95821153Y-68071218D01*
X95799529Y-68081446D01*
X95777007Y-68089504D01*
X95753803Y-68095316D01*
X95730142Y-68098826D01*
X95706250Y-68100000D01*
X94793750Y-68100000D01*
X94769858Y-68098826D01*
X94746197Y-68095316D01*
X94722993Y-68089504D01*
X94700471Y-68081446D01*
X94678847Y-68071218D01*
X94658330Y-68058921D01*
X94639117Y-68044671D01*
X94621393Y-68028607D01*
X94605329Y-68010883D01*
X94591079Y-67991670D01*
X94578782Y-67971153D01*
X94568554Y-67949529D01*
X94560496Y-67927007D01*
X94554684Y-67903803D01*
X94551174Y-67880142D01*
X94550000Y-67856250D01*
X94550000Y-67368750D01*
X94551174Y-67344858D01*
X94554684Y-67321197D01*
X94560496Y-67297993D01*
X94568554Y-67275471D01*
X94578782Y-67253847D01*
X94591079Y-67233330D01*
X94605329Y-67214117D01*
X94621393Y-67196393D01*
X94639117Y-67180329D01*
X94658330Y-67166079D01*
X94678847Y-67153782D01*
X94700471Y-67143554D01*
X94722993Y-67135496D01*
X94746197Y-67129684D01*
X94769858Y-67126174D01*
X94793750Y-67125000D01*
X95706250Y-67125000D01*
X95730142Y-67126174D01*
G37*
G36*
X92167142Y-74104174D02*
G01*
X92190803Y-74107684D01*
X92214007Y-74113496D01*
X92236529Y-74121554D01*
X92258153Y-74131782D01*
X92278670Y-74144079D01*
X92297883Y-74158329D01*
X92315607Y-74174393D01*
X92331671Y-74192117D01*
X92345921Y-74211330D01*
X92358218Y-74231847D01*
X92368446Y-74253471D01*
X92376504Y-74275993D01*
X92382316Y-74299197D01*
X92385826Y-74322858D01*
X92387000Y-74346750D01*
X92387000Y-75259250D01*
X92385826Y-75283142D01*
X92382316Y-75306803D01*
X92376504Y-75330007D01*
X92368446Y-75352529D01*
X92358218Y-75374153D01*
X92345921Y-75394670D01*
X92331671Y-75413883D01*
X92315607Y-75431607D01*
X92297883Y-75447671D01*
X92278670Y-75461921D01*
X92258153Y-75474218D01*
X92236529Y-75484446D01*
X92214007Y-75492504D01*
X92190803Y-75498316D01*
X92167142Y-75501826D01*
X92143250Y-75503000D01*
X91655750Y-75503000D01*
X91631858Y-75501826D01*
X91608197Y-75498316D01*
X91584993Y-75492504D01*
X91562471Y-75484446D01*
X91540847Y-75474218D01*
X91520330Y-75461921D01*
X91501117Y-75447671D01*
X91483393Y-75431607D01*
X91467329Y-75413883D01*
X91453079Y-75394670D01*
X91440782Y-75374153D01*
X91430554Y-75352529D01*
X91422496Y-75330007D01*
X91416684Y-75306803D01*
X91413174Y-75283142D01*
X91412000Y-75259250D01*
X91412000Y-74346750D01*
X91413174Y-74322858D01*
X91416684Y-74299197D01*
X91422496Y-74275993D01*
X91430554Y-74253471D01*
X91440782Y-74231847D01*
X91453079Y-74211330D01*
X91467329Y-74192117D01*
X91483393Y-74174393D01*
X91501117Y-74158329D01*
X91520330Y-74144079D01*
X91540847Y-74131782D01*
X91562471Y-74121554D01*
X91584993Y-74113496D01*
X91608197Y-74107684D01*
X91631858Y-74104174D01*
X91655750Y-74103000D01*
X92143250Y-74103000D01*
X92167142Y-74104174D01*
G37*
G36*
X94042142Y-74104174D02*
G01*
X94065803Y-74107684D01*
X94089007Y-74113496D01*
X94111529Y-74121554D01*
X94133153Y-74131782D01*
X94153670Y-74144079D01*
X94172883Y-74158329D01*
X94190607Y-74174393D01*
X94206671Y-74192117D01*
X94220921Y-74211330D01*
X94233218Y-74231847D01*
X94243446Y-74253471D01*
X94251504Y-74275993D01*
X94257316Y-74299197D01*
X94260826Y-74322858D01*
X94262000Y-74346750D01*
X94262000Y-75259250D01*
X94260826Y-75283142D01*
X94257316Y-75306803D01*
X94251504Y-75330007D01*
X94243446Y-75352529D01*
X94233218Y-75374153D01*
X94220921Y-75394670D01*
X94206671Y-75413883D01*
X94190607Y-75431607D01*
X94172883Y-75447671D01*
X94153670Y-75461921D01*
X94133153Y-75474218D01*
X94111529Y-75484446D01*
X94089007Y-75492504D01*
X94065803Y-75498316D01*
X94042142Y-75501826D01*
X94018250Y-75503000D01*
X93530750Y-75503000D01*
X93506858Y-75501826D01*
X93483197Y-75498316D01*
X93459993Y-75492504D01*
X93437471Y-75484446D01*
X93415847Y-75474218D01*
X93395330Y-75461921D01*
X93376117Y-75447671D01*
X93358393Y-75431607D01*
X93342329Y-75413883D01*
X93328079Y-75394670D01*
X93315782Y-75374153D01*
X93305554Y-75352529D01*
X93297496Y-75330007D01*
X93291684Y-75306803D01*
X93288174Y-75283142D01*
X93287000Y-75259250D01*
X93287000Y-74346750D01*
X93288174Y-74322858D01*
X93291684Y-74299197D01*
X93297496Y-74275993D01*
X93305554Y-74253471D01*
X93315782Y-74231847D01*
X93328079Y-74211330D01*
X93342329Y-74192117D01*
X93358393Y-74174393D01*
X93376117Y-74158329D01*
X93395330Y-74144079D01*
X93415847Y-74131782D01*
X93437471Y-74121554D01*
X93459993Y-74113496D01*
X93483197Y-74107684D01*
X93506858Y-74104174D01*
X93530750Y-74103000D01*
X94018250Y-74103000D01*
X94042142Y-74104174D01*
G37*
G36*
X98905142Y-62363674D02*
G01*
X98928803Y-62367184D01*
X98952007Y-62372996D01*
X98974529Y-62381054D01*
X98996153Y-62391282D01*
X99016670Y-62403579D01*
X99035883Y-62417829D01*
X99053607Y-62433893D01*
X99069671Y-62451617D01*
X99083921Y-62470830D01*
X99096218Y-62491347D01*
X99106446Y-62512971D01*
X99114504Y-62535493D01*
X99120316Y-62558697D01*
X99123826Y-62582358D01*
X99125000Y-62606250D01*
X99125000Y-63093750D01*
X99123826Y-63117642D01*
X99120316Y-63141303D01*
X99114504Y-63164507D01*
X99106446Y-63187029D01*
X99096218Y-63208653D01*
X99083921Y-63229170D01*
X99069671Y-63248383D01*
X99053607Y-63266107D01*
X99035883Y-63282171D01*
X99016670Y-63296421D01*
X98996153Y-63308718D01*
X98974529Y-63318946D01*
X98952007Y-63327004D01*
X98928803Y-63332816D01*
X98905142Y-63336326D01*
X98881250Y-63337500D01*
X97968750Y-63337500D01*
X97944858Y-63336326D01*
X97921197Y-63332816D01*
X97897993Y-63327004D01*
X97875471Y-63318946D01*
X97853847Y-63308718D01*
X97833330Y-63296421D01*
X97814117Y-63282171D01*
X97796393Y-63266107D01*
X97780329Y-63248383D01*
X97766079Y-63229170D01*
X97753782Y-63208653D01*
X97743554Y-63187029D01*
X97735496Y-63164507D01*
X97729684Y-63141303D01*
X97726174Y-63117642D01*
X97725000Y-63093750D01*
X97725000Y-62606250D01*
X97726174Y-62582358D01*
X97729684Y-62558697D01*
X97735496Y-62535493D01*
X97743554Y-62512971D01*
X97753782Y-62491347D01*
X97766079Y-62470830D01*
X97780329Y-62451617D01*
X97796393Y-62433893D01*
X97814117Y-62417829D01*
X97833330Y-62403579D01*
X97853847Y-62391282D01*
X97875471Y-62381054D01*
X97897993Y-62372996D01*
X97921197Y-62367184D01*
X97944858Y-62363674D01*
X97968750Y-62362500D01*
X98881250Y-62362500D01*
X98905142Y-62363674D01*
G37*
G36*
X98905142Y-60488674D02*
G01*
X98928803Y-60492184D01*
X98952007Y-60497996D01*
X98974529Y-60506054D01*
X98996153Y-60516282D01*
X99016670Y-60528579D01*
X99035883Y-60542829D01*
X99053607Y-60558893D01*
X99069671Y-60576617D01*
X99083921Y-60595830D01*
X99096218Y-60616347D01*
X99106446Y-60637971D01*
X99114504Y-60660493D01*
X99120316Y-60683697D01*
X99123826Y-60707358D01*
X99125000Y-60731250D01*
X99125000Y-61218750D01*
X99123826Y-61242642D01*
X99120316Y-61266303D01*
X99114504Y-61289507D01*
X99106446Y-61312029D01*
X99096218Y-61333653D01*
X99083921Y-61354170D01*
X99069671Y-61373383D01*
X99053607Y-61391107D01*
X99035883Y-61407171D01*
X99016670Y-61421421D01*
X98996153Y-61433718D01*
X98974529Y-61443946D01*
X98952007Y-61452004D01*
X98928803Y-61457816D01*
X98905142Y-61461326D01*
X98881250Y-61462500D01*
X97968750Y-61462500D01*
X97944858Y-61461326D01*
X97921197Y-61457816D01*
X97897993Y-61452004D01*
X97875471Y-61443946D01*
X97853847Y-61433718D01*
X97833330Y-61421421D01*
X97814117Y-61407171D01*
X97796393Y-61391107D01*
X97780329Y-61373383D01*
X97766079Y-61354170D01*
X97753782Y-61333653D01*
X97743554Y-61312029D01*
X97735496Y-61289507D01*
X97729684Y-61266303D01*
X97726174Y-61242642D01*
X97725000Y-61218750D01*
X97725000Y-60731250D01*
X97726174Y-60707358D01*
X97729684Y-60683697D01*
X97735496Y-60660493D01*
X97743554Y-60637971D01*
X97753782Y-60616347D01*
X97766079Y-60595830D01*
X97780329Y-60576617D01*
X97796393Y-60558893D01*
X97814117Y-60542829D01*
X97833330Y-60528579D01*
X97853847Y-60516282D01*
X97875471Y-60506054D01*
X97897993Y-60497996D01*
X97921197Y-60492184D01*
X97944858Y-60488674D01*
X97968750Y-60487500D01*
X98881250Y-60487500D01*
X98905142Y-60488674D01*
G37*
G36*
X108430142Y-60488674D02*
G01*
X108453803Y-60492184D01*
X108477007Y-60497996D01*
X108499529Y-60506054D01*
X108521153Y-60516282D01*
X108541670Y-60528579D01*
X108560883Y-60542829D01*
X108578607Y-60558893D01*
X108594671Y-60576617D01*
X108608921Y-60595830D01*
X108621218Y-60616347D01*
X108631446Y-60637971D01*
X108639504Y-60660493D01*
X108645316Y-60683697D01*
X108648826Y-60707358D01*
X108650000Y-60731250D01*
X108650000Y-61218750D01*
X108648826Y-61242642D01*
X108645316Y-61266303D01*
X108639504Y-61289507D01*
X108631446Y-61312029D01*
X108621218Y-61333653D01*
X108608921Y-61354170D01*
X108594671Y-61373383D01*
X108578607Y-61391107D01*
X108560883Y-61407171D01*
X108541670Y-61421421D01*
X108521153Y-61433718D01*
X108499529Y-61443946D01*
X108477007Y-61452004D01*
X108453803Y-61457816D01*
X108430142Y-61461326D01*
X108406250Y-61462500D01*
X107493750Y-61462500D01*
X107469858Y-61461326D01*
X107446197Y-61457816D01*
X107422993Y-61452004D01*
X107400471Y-61443946D01*
X107378847Y-61433718D01*
X107358330Y-61421421D01*
X107339117Y-61407171D01*
X107321393Y-61391107D01*
X107305329Y-61373383D01*
X107291079Y-61354170D01*
X107278782Y-61333653D01*
X107268554Y-61312029D01*
X107260496Y-61289507D01*
X107254684Y-61266303D01*
X107251174Y-61242642D01*
X107250000Y-61218750D01*
X107250000Y-60731250D01*
X107251174Y-60707358D01*
X107254684Y-60683697D01*
X107260496Y-60660493D01*
X107268554Y-60637971D01*
X107278782Y-60616347D01*
X107291079Y-60595830D01*
X107305329Y-60576617D01*
X107321393Y-60558893D01*
X107339117Y-60542829D01*
X107358330Y-60528579D01*
X107378847Y-60516282D01*
X107400471Y-60506054D01*
X107422993Y-60497996D01*
X107446197Y-60492184D01*
X107469858Y-60488674D01*
X107493750Y-60487500D01*
X108406250Y-60487500D01*
X108430142Y-60488674D01*
G37*
G36*
X108430142Y-62363674D02*
G01*
X108453803Y-62367184D01*
X108477007Y-62372996D01*
X108499529Y-62381054D01*
X108521153Y-62391282D01*
X108541670Y-62403579D01*
X108560883Y-62417829D01*
X108578607Y-62433893D01*
X108594671Y-62451617D01*
X108608921Y-62470830D01*
X108621218Y-62491347D01*
X108631446Y-62512971D01*
X108639504Y-62535493D01*
X108645316Y-62558697D01*
X108648826Y-62582358D01*
X108650000Y-62606250D01*
X108650000Y-63093750D01*
X108648826Y-63117642D01*
X108645316Y-63141303D01*
X108639504Y-63164507D01*
X108631446Y-63187029D01*
X108621218Y-63208653D01*
X108608921Y-63229170D01*
X108594671Y-63248383D01*
X108578607Y-63266107D01*
X108560883Y-63282171D01*
X108541670Y-63296421D01*
X108521153Y-63308718D01*
X108499529Y-63318946D01*
X108477007Y-63327004D01*
X108453803Y-63332816D01*
X108430142Y-63336326D01*
X108406250Y-63337500D01*
X107493750Y-63337500D01*
X107469858Y-63336326D01*
X107446197Y-63332816D01*
X107422993Y-63327004D01*
X107400471Y-63318946D01*
X107378847Y-63308718D01*
X107358330Y-63296421D01*
X107339117Y-63282171D01*
X107321393Y-63266107D01*
X107305329Y-63248383D01*
X107291079Y-63229170D01*
X107278782Y-63208653D01*
X107268554Y-63187029D01*
X107260496Y-63164507D01*
X107254684Y-63141303D01*
X107251174Y-63117642D01*
X107250000Y-63093750D01*
X107250000Y-62606250D01*
X107251174Y-62582358D01*
X107254684Y-62558697D01*
X107260496Y-62535493D01*
X107268554Y-62512971D01*
X107278782Y-62491347D01*
X107291079Y-62470830D01*
X107305329Y-62451617D01*
X107321393Y-62433893D01*
X107339117Y-62417829D01*
X107358330Y-62403579D01*
X107378847Y-62391282D01*
X107400471Y-62381054D01*
X107422993Y-62372996D01*
X107446197Y-62367184D01*
X107469858Y-62363674D01*
X107493750Y-62362500D01*
X108406250Y-62362500D01*
X108430142Y-62363674D01*
G37*
M02*
