G04 #@! TF.GenerationSoftware,KiCad,Pcbnew,(5.1.5)-3*
G04 #@! TF.CreationDate,2019-12-18T23:42:08-07:00*
G04 #@! TF.ProjectId,MiniV1,4d696e69-5631-42e6-9b69-6361645f7063,rev?*
G04 #@! TF.SameCoordinates,Original*
G04 #@! TF.FileFunction,Legend,Top*
G04 #@! TF.FilePolarity,Positive*
%FSLAX46Y46*%
G04 Gerber Fmt 4.6, Leading zero omitted, Abs format (unit mm)*
G04 Created by KiCad (PCBNEW (5.1.5)-3) date 2019-12-18 23:42:08*
%MOMM*%
%LPD*%
G04 APERTURE LIST*
%ADD10C,0.150000*%
%ADD11C,0.120000*%
%ADD12O,1.802000X2.802000*%
%ADD13C,1.852000*%
%ADD14C,4.089800*%
G04 APERTURE END LIST*
D10*
X93965095Y-89749380D02*
X94536523Y-89749380D01*
X94250809Y-90749380D02*
X94250809Y-89749380D01*
X94869857Y-90749380D02*
X94869857Y-89749380D01*
X95298428Y-90749380D02*
X95298428Y-90225571D01*
X95250809Y-90130333D01*
X95155571Y-90082714D01*
X95012714Y-90082714D01*
X94917476Y-90130333D01*
X94869857Y-90177952D01*
X95774619Y-90749380D02*
X95774619Y-90082714D01*
X95774619Y-89749380D02*
X95727000Y-89797000D01*
X95774619Y-89844619D01*
X95822238Y-89797000D01*
X95774619Y-89749380D01*
X95774619Y-89844619D01*
X96203190Y-90701761D02*
X96298428Y-90749380D01*
X96488904Y-90749380D01*
X96584142Y-90701761D01*
X96631761Y-90606523D01*
X96631761Y-90558904D01*
X96584142Y-90463666D01*
X96488904Y-90416047D01*
X96346047Y-90416047D01*
X96250809Y-90368428D01*
X96203190Y-90273190D01*
X96203190Y-90225571D01*
X96250809Y-90130333D01*
X96346047Y-90082714D01*
X96488904Y-90082714D01*
X96584142Y-90130333D01*
X97822238Y-90749380D02*
X97822238Y-90082714D01*
X97822238Y-89749380D02*
X97774619Y-89797000D01*
X97822238Y-89844619D01*
X97869857Y-89797000D01*
X97822238Y-89749380D01*
X97822238Y-89844619D01*
X98250809Y-90701761D02*
X98346047Y-90749380D01*
X98536523Y-90749380D01*
X98631761Y-90701761D01*
X98679380Y-90606523D01*
X98679380Y-90558904D01*
X98631761Y-90463666D01*
X98536523Y-90416047D01*
X98393666Y-90416047D01*
X98298428Y-90368428D01*
X98250809Y-90273190D01*
X98250809Y-90225571D01*
X98298428Y-90130333D01*
X98393666Y-90082714D01*
X98536523Y-90082714D01*
X98631761Y-90130333D01*
X99869857Y-90749380D02*
X99869857Y-90082714D01*
X99869857Y-90177952D02*
X99917476Y-90130333D01*
X100012714Y-90082714D01*
X100155571Y-90082714D01*
X100250809Y-90130333D01*
X100298428Y-90225571D01*
X100298428Y-90749380D01*
X100298428Y-90225571D02*
X100346047Y-90130333D01*
X100441285Y-90082714D01*
X100584142Y-90082714D01*
X100679380Y-90130333D01*
X100727000Y-90225571D01*
X100727000Y-90749380D01*
X101107952Y-90082714D02*
X101346047Y-90749380D01*
X101584142Y-90082714D02*
X101346047Y-90749380D01*
X101250809Y-90987476D01*
X101203190Y-91035095D01*
X101107952Y-91082714D01*
X103060333Y-90225571D02*
X102727000Y-90225571D01*
X102727000Y-90749380D02*
X102727000Y-89749380D01*
X103203190Y-89749380D01*
X103584142Y-90749380D02*
X103584142Y-90082714D01*
X103584142Y-89749380D02*
X103536523Y-89797000D01*
X103584142Y-89844619D01*
X103631761Y-89797000D01*
X103584142Y-89749380D01*
X103584142Y-89844619D01*
X104060333Y-90749380D02*
X104060333Y-90082714D01*
X104060333Y-90273190D02*
X104107952Y-90177952D01*
X104155571Y-90130333D01*
X104250809Y-90082714D01*
X104346047Y-90082714D01*
X104631761Y-90701761D02*
X104727000Y-90749380D01*
X104917476Y-90749380D01*
X105012714Y-90701761D01*
X105060333Y-90606523D01*
X105060333Y-90558904D01*
X105012714Y-90463666D01*
X104917476Y-90416047D01*
X104774619Y-90416047D01*
X104679380Y-90368428D01*
X104631761Y-90273190D01*
X104631761Y-90225571D01*
X104679380Y-90130333D01*
X104774619Y-90082714D01*
X104917476Y-90082714D01*
X105012714Y-90130333D01*
X105346047Y-90082714D02*
X105727000Y-90082714D01*
X105488904Y-89749380D02*
X105488904Y-90606523D01*
X105536523Y-90701761D01*
X105631761Y-90749380D01*
X105727000Y-90749380D01*
X106822238Y-90749380D02*
X106822238Y-89749380D01*
X107203190Y-89749380D01*
X107298428Y-89797000D01*
X107346047Y-89844619D01*
X107393666Y-89939857D01*
X107393666Y-90082714D01*
X107346047Y-90177952D01*
X107298428Y-90225571D01*
X107203190Y-90273190D01*
X106822238Y-90273190D01*
X108393666Y-90654142D02*
X108346047Y-90701761D01*
X108203190Y-90749380D01*
X108107952Y-90749380D01*
X107965095Y-90701761D01*
X107869857Y-90606523D01*
X107822238Y-90511285D01*
X107774619Y-90320809D01*
X107774619Y-90177952D01*
X107822238Y-89987476D01*
X107869857Y-89892238D01*
X107965095Y-89797000D01*
X108107952Y-89749380D01*
X108203190Y-89749380D01*
X108346047Y-89797000D01*
X108393666Y-89844619D01*
X109155571Y-90225571D02*
X109298428Y-90273190D01*
X109346047Y-90320809D01*
X109393666Y-90416047D01*
X109393666Y-90558904D01*
X109346047Y-90654142D01*
X109298428Y-90701761D01*
X109203190Y-90749380D01*
X108822238Y-90749380D01*
X108822238Y-89749380D01*
X109155571Y-89749380D01*
X109250809Y-89797000D01*
X109298428Y-89844619D01*
X109346047Y-89939857D01*
X109346047Y-90035095D01*
X109298428Y-90130333D01*
X109250809Y-90177952D01*
X109155571Y-90225571D01*
X108822238Y-90225571D01*
X146288285Y-87828380D02*
X146288285Y-86828380D01*
X146621619Y-87542666D01*
X146954952Y-86828380D01*
X146954952Y-87828380D01*
X147335904Y-86828380D02*
X148002571Y-87828380D01*
X148002571Y-86828380D02*
X147335904Y-87828380D01*
X148812095Y-87161714D02*
X148812095Y-87828380D01*
X148574000Y-86780761D02*
X148335904Y-87495047D01*
X148954952Y-87495047D01*
X127238285Y-87828380D02*
X127238285Y-86828380D01*
X127571619Y-87542666D01*
X127904952Y-86828380D01*
X127904952Y-87828380D01*
X128285904Y-86828380D02*
X128952571Y-87828380D01*
X128952571Y-86828380D02*
X128285904Y-87828380D01*
X129238285Y-86828380D02*
X129857333Y-86828380D01*
X129524000Y-87209333D01*
X129666857Y-87209333D01*
X129762095Y-87256952D01*
X129809714Y-87304571D01*
X129857333Y-87399809D01*
X129857333Y-87637904D01*
X129809714Y-87733142D01*
X129762095Y-87780761D01*
X129666857Y-87828380D01*
X129381142Y-87828380D01*
X129285904Y-87780761D01*
X129238285Y-87733142D01*
X146288285Y-68778380D02*
X146288285Y-67778380D01*
X146621619Y-68492666D01*
X146954952Y-67778380D01*
X146954952Y-68778380D01*
X147335904Y-67778380D02*
X148002571Y-68778380D01*
X148002571Y-67778380D02*
X147335904Y-68778380D01*
X148335904Y-67873619D02*
X148383523Y-67826000D01*
X148478761Y-67778380D01*
X148716857Y-67778380D01*
X148812095Y-67826000D01*
X148859714Y-67873619D01*
X148907333Y-67968857D01*
X148907333Y-68064095D01*
X148859714Y-68206952D01*
X148288285Y-68778380D01*
X148907333Y-68778380D01*
X127238285Y-68778380D02*
X127238285Y-67778380D01*
X127571619Y-68492666D01*
X127904952Y-67778380D01*
X127904952Y-68778380D01*
X128285904Y-67778380D02*
X128952571Y-68778380D01*
X128952571Y-67778380D02*
X128285904Y-68778380D01*
X129857333Y-68778380D02*
X129285904Y-68778380D01*
X129571619Y-68778380D02*
X129571619Y-67778380D01*
X129476380Y-67921238D01*
X129381142Y-68016476D01*
X129285904Y-68064095D01*
D11*
X140716000Y-89154000D02*
X140716000Y-91059000D01*
X140716000Y-91059000D02*
X142621000Y-91059000D01*
X152654000Y-91059000D02*
X154559000Y-91059000D01*
X154559000Y-91059000D02*
X154559000Y-89154000D01*
X140716000Y-79121000D02*
X140716000Y-77216000D01*
X154559000Y-77216000D02*
X154559000Y-79121000D01*
X152654000Y-77216000D02*
X154559000Y-77216000D01*
X140716000Y-77216000D02*
X142621000Y-77216000D01*
X121666000Y-89154000D02*
X121666000Y-91059000D01*
X121666000Y-91059000D02*
X123571000Y-91059000D01*
X133604000Y-91059000D02*
X135509000Y-91059000D01*
X135509000Y-91059000D02*
X135509000Y-89154000D01*
X121666000Y-79121000D02*
X121666000Y-77216000D01*
X135509000Y-77216000D02*
X135509000Y-79121000D01*
X133604000Y-77216000D02*
X135509000Y-77216000D01*
X121666000Y-77216000D02*
X123571000Y-77216000D01*
X140716000Y-70104000D02*
X140716000Y-72009000D01*
X140716000Y-72009000D02*
X142621000Y-72009000D01*
X152654000Y-72009000D02*
X154559000Y-72009000D01*
X154559000Y-72009000D02*
X154559000Y-70104000D01*
X140716000Y-60071000D02*
X140716000Y-58166000D01*
X154559000Y-58166000D02*
X154559000Y-60071000D01*
X152654000Y-58166000D02*
X154559000Y-58166000D01*
X140716000Y-58166000D02*
X142621000Y-58166000D01*
X121666000Y-72009000D02*
X123571000Y-72009000D01*
X121666000Y-70104000D02*
X121666000Y-72009000D01*
X135509000Y-72009000D02*
X135509000Y-70104000D01*
X133604000Y-72009000D02*
X135509000Y-72009000D01*
X135509000Y-58166000D02*
X135509000Y-60071000D01*
X133604000Y-58166000D02*
X135509000Y-58166000D01*
X121666000Y-58166000D02*
X123571000Y-58166000D01*
X121666000Y-60071000D02*
X121666000Y-58166000D01*
%LPC*%
D12*
X79154000Y-54864000D03*
X86454000Y-54864000D03*
X86454000Y-59364000D03*
X79154000Y-59364000D03*
D13*
X152717500Y-84137500D03*
X142557500Y-84137500D03*
D14*
X147637500Y-84137500D03*
D13*
X133667500Y-84137500D03*
X123507500Y-84137500D03*
D14*
X128587500Y-84137500D03*
D13*
X152717500Y-65087500D03*
X142557500Y-65087500D03*
D14*
X147637500Y-65087500D03*
D13*
X133667500Y-65087500D03*
X123507500Y-65087500D03*
D14*
X128587500Y-65087500D03*
M02*
