M48
; DRILL file {KiCad (5.1.5)-3} date 12/18/2019 11:43:08 PM
; FORMAT={-:-/ absolute / inch / decimal}
; #@! TF.CreationDate,2019-12-18T23:43:08-07:00
; #@! TF.GenerationSoftware,Kicad,Pcbnew,(5.1.5)-3
; #@! TF.FileFunction,Plated,1,2,PTH
FMAT,2
INCH
T1C0.0157
T2C0.0276
T3C0.0579
%
G90
G05
T1
X3.45Y-3.505
X3.545Y-2.665
X3.69Y-2.59
X3.77Y-2.915
X3.77Y-3.11
X4.315Y-3.345
X4.525Y-2.82
T3
X4.9125Y-2.4625
X5.1625Y-2.3625
X5.6625Y-2.4625
X5.9125Y-2.3625
X4.9125Y-3.2125
X5.1625Y-3.1125
X5.6625Y-3.2125
X5.9125Y-3.1125
T2
G00X3.1163Y-2.1364
M15
G01X3.1163Y-2.1836
M16
G05
G00X3.1163Y-2.3135
M15
G01X3.1163Y-2.3608
M16
G05
G00X3.4037Y-2.1364
M15
G01X3.4037Y-2.1836
M16
G05
G00X3.4037Y-2.3135
M15
G01X3.4037Y-2.3608
M16
G05
T0
M30
